<svg width="364" height="688" viewBox="0 0 364 688" fill="none" xmlns="http://www.w3.org/2000/svg">
<path d="M27 242L31.4747 259.708L48.1095 252.166L37.0545 266.705L53.3231 275.008L35.0631 275.43L38.7149 293.326L27 279.313L15.2851 293.326L18.9369 275.43L0.676947 275.008L16.9455 266.705L5.89055 252.166L22.5253 259.708L27 242Z" fill="#A6BBDA"/>
<path d="M200 599L204.475 616.708L221.109 609.166L210.055 623.705L226.323 632.008L208.063 632.43L211.715 650.326L200 636.313L188.285 650.326L191.937 632.43L173.677 632.008L189.945 623.705L178.891 609.166L195.525 616.708L200 599Z" fill="#A6BBDA"/>
<path d="M306 0L310.475 17.7082L327.109 10.1658L316.055 24.7051L332.323 33.0081L314.063 33.4301L317.715 51.3262L306 37.3131L294.285 51.3262L297.937 33.4301L279.677 33.0081L295.945 24.7051L284.891 10.1658L301.525 17.7082L306 0Z" fill="#A6BBDA"/>
<path d="M346.5 352L349.4 363.478L360.182 358.589L353.017 368.013L363.561 373.394L351.726 373.668L354.093 385.267L346.5 376.184L338.907 385.267L341.274 373.668L329.439 373.394L339.983 368.013L332.818 358.589L343.6 363.478L346.5 352Z" fill="#A6BBDA"/>
<path d="M40.5 653L43.4003 664.478L54.1821 659.589L47.0168 669.013L57.5612 674.394L45.7261 674.668L48.093 686.267L40.5 677.184L32.907 686.267L35.2739 674.668L23.4388 674.394L33.9832 669.013L26.8179 659.589L37.5997 664.478L40.5 653Z" fill="#A6BBDA"/>
<path d="M81.5 0L84.4003 11.4776L95.1821 6.58893L88.0168 16.0126L98.5612 21.3941L86.7261 21.6677L89.093 33.267L81.5 24.1844L73.907 33.267L76.2739 21.6677L64.4388 21.3941L74.9832 16.0126L67.8179 6.58893L78.5997 11.4776L81.5 0Z" fill="#A6BBDA"/>
</svg>
