<svg width="170" height="73" viewBox="0 0 170 73" fill="none" xmlns="http://www.w3.org/2000/svg">
<path d="M2.77368 56.4683H2.14539V51.7216C2.09686 51.7701 2.02535 51.8263 1.93085 51.8902C1.83891 51.9514 1.73419 52.0127 1.61671 52.074C1.50177 52.1353 1.37918 52.1928 1.24892 52.2464C1.12122 52.3001 0.996074 52.3422 0.87348 52.3729V51.7369C1.0114 51.6986 1.15698 51.6475 1.31022 51.5837C1.46602 51.5173 1.61798 51.4445 1.76612 51.3653C1.9168 51.2836 2.05855 51.1993 2.19136 51.1124C2.32417 51.0231 2.4391 50.9362 2.53616 50.8519H2.77368V56.4683ZM8.13716 53.6984C8.13716 54.1581 8.09502 54.5655 8.01074 54.9205C7.92901 55.2755 7.80897 55.5756 7.65062 55.8208C7.49482 56.0634 7.30199 56.2486 7.07213 56.3763C6.84482 56.5015 6.58558 56.564 6.29442 56.564C6.01859 56.564 5.77212 56.504 5.55503 56.384C5.34049 56.2614 5.15915 56.0839 5.01102 55.8515C4.86289 55.619 4.75051 55.3343 4.67389 54.9971C4.59727 54.6574 4.55896 54.2692 4.55896 53.8325C4.55896 53.3523 4.59854 52.9284 4.67772 52.5606C4.75945 52.1928 4.87821 51.885 5.03401 51.6373C5.1898 51.387 5.38263 51.1993 5.6125 51.0741C5.84491 50.9464 6.11053 50.8826 6.40935 50.8826C7.56123 50.8826 8.13716 51.8212 8.13716 53.6984ZM7.49354 53.7597C7.49354 52.1966 7.12193 51.4151 6.37871 51.4151C5.59462 51.4151 5.20257 52.2107 5.20257 53.8018C5.20257 55.2857 5.58695 56.0277 6.35572 56.0277C7.11427 56.0277 7.49354 55.2717 7.49354 53.7597Z" fill="#666666"/>
<path d="M2.95757 28.1809C2.95757 28.0123 2.93076 27.8655 2.87712 27.7403C2.82604 27.6152 2.75453 27.5117 2.66258 27.43C2.57319 27.3457 2.4672 27.2831 2.34461 27.2423C2.22201 27.2014 2.0892 27.181 1.94618 27.181C1.82358 27.181 1.70354 27.1976 1.58606 27.2308C1.46857 27.264 1.35364 27.3099 1.24126 27.3687C1.13144 27.4274 1.02417 27.4977 0.919453 27.5794C0.817292 27.6611 0.721515 27.7518 0.632124 27.8514V27.1771C0.808353 27.006 1.00501 26.8758 1.22211 26.7864C1.44175 26.6944 1.70865 26.6485 2.0228 26.6485C2.24755 26.6485 2.45571 26.6817 2.64726 26.7481C2.83881 26.8119 3.00482 26.9064 3.1453 27.0316C3.28577 27.1567 3.39559 27.3112 3.47477 27.4951C3.5565 27.679 3.59736 27.8897 3.59736 28.1272C3.59736 28.3443 3.57182 28.541 3.52074 28.7172C3.47221 28.8935 3.39687 29.0595 3.29471 29.2153C3.1951 29.3711 3.06867 29.5205 2.91543 29.6635C2.76219 29.8065 2.58213 29.9521 2.37525 30.1002C2.1173 30.2841 1.90403 30.4412 1.73547 30.5715C1.56946 30.7017 1.43665 30.8243 1.33704 30.9392C1.23998 31.0516 1.17103 31.1653 1.13016 31.2802C1.09185 31.3926 1.0727 31.5228 1.0727 31.671H3.80807V32.2341H0.417585V31.9621C0.417585 31.7272 0.443125 31.5203 0.494206 31.3415C0.545287 31.1627 0.62957 30.9929 0.747056 30.832C0.864541 30.6711 1.01778 30.5102 1.20678 30.3493C1.39833 30.1883 1.63203 30.007 1.90787 29.8052C2.10708 29.6622 2.27309 29.5256 2.4059 29.3953C2.54127 29.2651 2.64981 29.1348 2.73154 29.0046C2.81327 28.8743 2.87074 28.7428 2.90394 28.61C2.9397 28.4746 2.95757 28.3316 2.95757 28.1809ZM8.13716 29.4643C8.13716 29.924 8.09502 30.3314 8.01074 30.6864C7.92901 31.0414 7.80897 31.3415 7.65062 31.5867C7.49482 31.8293 7.30199 32.0145 7.07213 32.1422C6.84482 32.2673 6.58558 32.3299 6.29442 32.3299C6.01859 32.3299 5.77212 32.2699 5.55503 32.1498C5.34049 32.0273 5.15915 31.8497 5.01102 31.6173C4.86289 31.3849 4.75051 31.1001 4.67389 30.763C4.59727 30.4233 4.55896 30.0351 4.55896 29.5984C4.55896 29.1182 4.59854 28.6942 4.67772 28.3265C4.75945 27.9587 4.87821 27.6509 5.03401 27.4032C5.1898 27.1529 5.38263 26.9652 5.6125 26.84C5.84491 26.7123 6.11053 26.6485 6.40935 26.6485C7.56123 26.6485 8.13716 27.5871 8.13716 29.4643ZM7.49354 29.5256C7.49354 27.9625 7.12193 27.181 6.37871 27.181C5.59462 27.181 5.20257 27.9766 5.20257 29.5677C5.20257 31.0516 5.58695 31.7936 6.35572 31.7936C7.11427 31.7936 7.49354 31.0376 7.49354 29.5256Z" fill="#666666"/>
<path d="M3.651 6.44459C3.651 6.69233 3.60375 6.91837 3.50925 7.12269C3.4173 7.32446 3.28577 7.49813 3.11465 7.64371C2.94608 7.78674 2.74304 7.89784 2.50551 7.97701C2.26798 8.05619 2.0062 8.09578 1.72014 8.09578C1.19657 8.09578 0.780258 7.99617 0.47122 7.79695V7.12269C0.841555 7.41385 1.26553 7.55943 1.74313 7.55943C1.93468 7.55943 2.10708 7.53517 2.26032 7.48664C2.41612 7.43811 2.54893 7.36788 2.65875 7.27593C2.77113 7.18399 2.85669 7.07288 2.91543 6.94263C2.97673 6.81237 3.00738 6.66552 3.00738 6.50206C3.00738 5.78437 2.49657 5.42553 1.47496 5.42553H1.01906V4.89301H1.45197C2.3561 4.89301 2.80816 4.55588 2.80816 3.88162C2.80816 3.25843 2.46337 2.94684 1.77378 2.94684C1.38556 2.94684 1.02161 3.07709 0.681928 3.33761V2.72847C1.03183 2.51904 1.44814 2.41432 1.93085 2.41432C2.16071 2.41432 2.36887 2.44625 2.55531 2.5101C2.74176 2.57395 2.90139 2.66334 3.0342 2.77827C3.16701 2.8932 3.26917 3.03112 3.34068 3.19203C3.41475 3.35293 3.45178 3.53044 3.45178 3.72454C3.45178 4.44734 3.08655 4.91217 2.3561 5.11905V5.13437C2.54254 5.1548 2.71494 5.20078 2.87329 5.27229C3.03164 5.34125 3.16828 5.43192 3.28321 5.54429C3.39815 5.65667 3.48754 5.78948 3.55139 5.94272C3.61779 6.09341 3.651 6.2607 3.651 6.44459ZM8.13716 5.23015C8.13716 5.68987 8.09502 6.09724 8.01074 6.45225C7.92901 6.80726 7.80897 7.10736 7.65062 7.35255C7.49482 7.59519 7.30199 7.78035 7.07213 7.90805C6.84482 8.0332 6.58558 8.09578 6.29442 8.09578C6.01859 8.09578 5.77212 8.03576 5.55503 7.91572C5.34049 7.79312 5.15915 7.61562 5.01102 7.3832C4.86289 7.15078 4.75051 6.86601 4.67389 6.52887C4.59727 6.18919 4.55896 5.80097 4.55896 5.36423C4.55896 4.88408 4.59854 4.46011 4.67772 4.09232C4.75945 3.72454 4.87821 3.41678 5.03401 3.16904C5.1898 2.91874 5.38263 2.73102 5.6125 2.60587C5.84491 2.47817 6.11053 2.41432 6.40935 2.41432C7.56123 2.41432 8.13716 3.35293 8.13716 5.23015ZM7.49354 5.29144C7.49354 3.72837 7.12193 2.94684 6.37871 2.94684C5.59462 2.94684 5.20257 3.74242 5.20257 5.33359C5.20257 6.81748 5.58695 7.55943 6.35572 7.55943C7.11427 7.55943 7.49354 6.80343 7.49354 5.29144Z" fill="#666666"/>
<path d="M16.9609 64.2931C16.9609 64.6127 16.8933 64.8615 16.7579 65.0395C16.6226 65.2162 16.4415 65.3045 16.2146 65.3045C16.1094 65.3045 16.0229 65.2895 15.9552 65.2594V64.9473C16.0229 64.9962 16.1106 65.0207 16.2184 65.0207C16.5029 65.0207 16.6451 64.7794 16.6451 64.2969V62.5636H16.9609V64.2931ZM18.9837 65.2594H18.6754V64.9586H18.6679C18.5338 65.1892 18.3364 65.3045 18.0757 65.3045C17.884 65.3045 17.7336 65.2538 17.6245 65.1522C17.5168 65.0507 17.4629 64.916 17.4629 64.7481C17.4629 64.3884 17.6747 64.1791 18.0983 64.1202L18.6754 64.0394C18.6754 63.7123 18.5432 63.5487 18.2787 63.5487C18.0469 63.5487 17.8376 63.6277 17.6509 63.7856V63.4698C17.8401 63.3494 18.0582 63.2893 18.3051 63.2893C18.7575 63.2893 18.9837 63.5287 18.9837 64.0074V65.2594ZM18.6754 64.2856L18.2111 64.3495C18.0682 64.3696 17.9604 64.4053 17.8877 64.4567C17.815 64.5068 17.7787 64.5964 17.7787 64.7255C17.7787 64.8195 17.8119 64.8966 17.8783 64.9567C17.946 65.0156 18.0356 65.0451 18.1471 65.0451C18.3 65.0451 18.426 64.9918 18.525 64.8853C18.6253 64.7775 18.6754 64.6415 18.6754 64.4774V64.2856ZM21.1625 65.2594H20.8542V64.1615C20.8542 63.753 20.705 63.5487 20.4068 63.5487C20.2526 63.5487 20.1248 63.607 20.0233 63.7235C19.923 63.8388 19.8729 63.9848 19.8729 64.1615V65.2594H19.5646V63.3344H19.8729V63.654H19.8804C20.0258 63.4108 20.2363 63.2893 20.512 63.2893C20.7226 63.2893 20.8836 63.3576 20.9952 63.4942C21.1067 63.6295 21.1625 63.8257 21.1625 64.0826V65.2594ZM30.5506 62.8494H29.4979V63.7818H30.4717V64.0657H29.4979V65.2594H29.1821V62.5636H30.5506V62.8494ZM32.5677 64.374H31.2086C31.2136 64.5883 31.2712 64.7537 31.3815 64.8703C31.4918 64.9868 31.6434 65.0451 31.8364 65.0451C32.0533 65.0451 32.2525 64.9737 32.4343 64.8308V65.1203C32.2651 65.2431 32.0414 65.3045 31.7631 65.3045C31.4912 65.3045 31.2775 65.2174 31.1221 65.0432C30.9667 64.8678 30.889 64.6215 30.889 64.3044C30.889 64.0049 30.9736 63.7611 31.1428 63.5731C31.3132 63.3839 31.5244 63.2893 31.7763 63.2893C32.0282 63.2893 32.2231 63.3707 32.3609 63.5337C32.4988 63.6966 32.5677 63.9228 32.5677 64.2123V64.374ZM32.2519 64.1127C32.2507 63.9347 32.2074 63.7962 32.1222 63.6972C32.0382 63.5982 31.921 63.5487 31.7707 63.5487C31.6253 63.5487 31.5018 63.6007 31.4003 63.7047C31.2988 63.8088 31.2361 63.9447 31.2123 64.1127H32.2519ZM33.3516 64.9812H33.3441V65.2594H33.0358V62.4095H33.3441V63.6728H33.3516C33.5033 63.4171 33.7251 63.2893 34.0171 63.2893C34.264 63.2893 34.457 63.3758 34.5961 63.5487C34.7365 63.7204 34.8067 63.951 34.8067 64.2405C34.8067 64.5626 34.7283 64.8208 34.5717 65.015C34.415 65.208 34.2007 65.3045 33.9288 65.3045C33.6743 65.3045 33.482 65.1967 33.3516 64.9812ZM33.3441 64.2048V64.4736C33.3441 64.6328 33.3955 64.7681 33.4983 64.8797C33.6023 64.9899 33.7339 65.0451 33.893 65.0451C34.0798 65.0451 34.2258 64.9737 34.3311 64.8308C34.4376 64.6879 34.4908 64.4893 34.4908 64.2349C34.4908 64.0206 34.4413 63.8526 34.3423 63.7311C34.2433 63.6095 34.1092 63.5487 33.94 63.5487C33.7608 63.5487 33.6167 63.6114 33.5077 63.7367C33.3986 63.8608 33.3441 64.0168 33.3441 64.2048Z" fill="#666666"/>
<path d="M47.7739 65.2594H47.4599V63.451C47.4599 63.3081 47.4687 63.1333 47.4862 62.9265H47.4787C47.4486 63.048 47.4217 63.1351 47.3979 63.1878L46.4767 65.2594H46.3226L45.4033 63.2028C45.377 63.1427 45.3501 63.0505 45.3225 62.9265H45.315C45.325 63.0342 45.33 63.2103 45.33 63.4547V65.2594H45.0255V62.5636H45.4428L46.27 64.4435C46.3339 64.5877 46.3752 64.6954 46.394 64.7669H46.4053C46.4592 64.619 46.5024 64.5087 46.535 64.436L47.3791 62.5636H47.7739V65.2594ZM49.8211 65.2594H49.5128V64.9586H49.5052C49.3711 65.1892 49.1738 65.3045 48.9131 65.3045C48.7213 65.3045 48.5709 65.2538 48.4619 65.1522C48.3541 65.0507 48.3002 64.916 48.3002 64.7481C48.3002 64.3884 48.512 64.1791 48.9356 64.1202L49.5128 64.0394C49.5128 63.7123 49.3805 63.5487 49.1161 63.5487C48.8842 63.5487 48.675 63.6277 48.4882 63.7856V63.4698C48.6775 63.3494 48.8955 63.2893 49.1424 63.2893C49.5948 63.2893 49.8211 63.5287 49.8211 64.0074V65.2594ZM49.5128 64.2856L49.0484 64.3495C48.9056 64.3696 48.7978 64.4053 48.7251 64.4567C48.6524 64.5068 48.6161 64.5964 48.6161 64.7255C48.6161 64.8195 48.6493 64.8966 48.7157 64.9567C48.7834 65.0156 48.873 65.0451 48.9845 65.0451C49.1374 65.0451 49.2634 64.9918 49.3624 64.8853C49.4626 64.7775 49.5128 64.6415 49.5128 64.4774V64.2856ZM51.4058 63.6465C51.3519 63.6051 51.2742 63.5844 51.1727 63.5844C51.0411 63.5844 50.9308 63.6465 50.8418 63.7705C50.7541 63.8946 50.7102 64.0638 50.7102 64.2781V65.2594H50.4019V63.3344H50.7102V63.7311H50.7178C50.7616 63.5957 50.8287 63.4904 50.9189 63.4152C51.0091 63.3388 51.11 63.3006 51.2216 63.3006C51.3018 63.3006 51.3632 63.3093 51.4058 63.3269V63.6465ZM61.2639 65.2594H60.9142L60.6285 64.5037H59.4855L59.2167 65.2594H58.8652L59.8991 62.5636H60.2262L61.2639 65.2594ZM60.5251 64.2198L60.1021 63.0712C60.0883 63.0336 60.0746 62.9735 60.0608 62.8907H60.0533C60.0407 62.9672 60.0263 63.0274 60.01 63.0712L59.5908 64.2198H60.5251ZM61.9369 64.9812H61.9294V66.1448H61.6211V63.3344H61.9294V63.6728H61.9369C62.0885 63.4171 62.3104 63.2893 62.6024 63.2893C62.8505 63.2893 63.0442 63.3758 63.1833 63.5487C63.3224 63.7204 63.3919 63.951 63.3919 64.2405C63.3919 64.5626 63.3136 64.8208 63.1569 65.015C63.0003 65.208 62.786 65.3045 62.514 65.3045C62.2646 65.3045 62.0723 65.1967 61.9369 64.9812ZM61.9294 64.2048V64.4736C61.9294 64.6328 61.9808 64.7681 62.0835 64.8797C62.1876 64.9899 62.3191 65.0451 62.4783 65.0451C62.665 65.0451 62.811 64.9737 62.9163 64.8308C63.0228 64.6879 63.0761 64.4893 63.0761 64.2349C63.0761 64.0206 63.0266 63.8526 62.9276 63.7311C62.8286 63.6095 62.6945 63.5487 62.5253 63.5487C62.3461 63.5487 62.202 63.6114 62.0929 63.7367C61.9839 63.8608 61.9294 64.0168 61.9294 64.2048ZM64.8883 63.6465C64.8344 63.6051 64.7567 63.5844 64.6552 63.5844C64.5236 63.5844 64.4133 63.6465 64.3244 63.7705C64.2366 63.8946 64.1928 64.0638 64.1928 64.2781V65.2594H63.8845V63.3344H64.1928V63.7311H64.2003C64.2441 63.5957 64.3112 63.4904 64.4014 63.4152C64.4917 63.3388 64.5925 63.3006 64.7041 63.3006C64.7843 63.3006 64.8457 63.3093 64.8883 63.3269V63.6465Z" fill="#666666"/>
<path d="M73.4429 64.2931C73.4429 64.6127 73.3752 64.8615 73.2399 65.0395C73.1045 65.2162 72.9234 65.3045 72.6966 65.3045C72.5913 65.3045 72.5048 65.2895 72.4371 65.2594V64.9473C72.5048 64.9962 72.5926 65.0207 72.7003 65.0207C72.9848 65.0207 73.1271 64.7794 73.1271 64.2969V62.5636H73.4429V64.2931ZM75.6442 65.2594H75.3359V64.9549H75.3284C75.2006 65.188 75.0026 65.3045 74.7344 65.3045C74.2757 65.3045 74.0463 65.0313 74.0463 64.4849V63.3344H74.3527V64.436C74.3527 64.8421 74.5082 65.0451 74.819 65.0451C74.9694 65.0451 75.0928 64.9899 75.1893 64.8797C75.2871 64.7681 75.3359 64.6227 75.3359 64.4435V63.3344H75.6442V65.2594ZM77.8663 65.2594H77.5579V64.1615C77.5579 63.753 77.4088 63.5487 77.1105 63.5487C76.9564 63.5487 76.8286 63.607 76.727 63.7235C76.6268 63.8388 76.5767 63.9848 76.5767 64.1615V65.2594H76.2684V63.3344H76.5767V63.654H76.5842C76.7295 63.4108 76.9401 63.2893 77.2158 63.2893C77.4264 63.2893 77.5874 63.3576 77.6989 63.4942C77.8105 63.6295 77.8663 63.8257 77.8663 64.0826V65.2594ZM79.9962 64.374H78.637C78.642 64.5883 78.6997 64.7537 78.81 64.8703C78.9202 64.9868 79.0719 65.0451 79.2649 65.0451C79.4817 65.0451 79.681 64.9737 79.8627 64.8308V65.1203C79.6935 65.2431 79.4698 65.3045 79.1916 65.3045C78.9196 65.3045 78.7059 65.2174 78.5505 65.0432C78.3951 64.8678 78.3174 64.6215 78.3174 64.3044C78.3174 64.0049 78.402 63.7611 78.5712 63.5731C78.7416 63.3839 78.9528 63.2893 79.2047 63.2893C79.4566 63.2893 79.6515 63.3707 79.7894 63.5337C79.9272 63.6966 79.9962 63.9228 79.9962 64.2123V64.374ZM79.6803 64.1127C79.6791 63.9347 79.6358 63.7962 79.5506 63.6972C79.4667 63.5982 79.3495 63.5487 79.1991 63.5487C79.0537 63.5487 78.9303 63.6007 78.8288 63.7047C78.7272 63.8088 78.6646 63.9447 78.6408 64.1127H79.6803ZM88.591 64.2931C88.591 64.6127 88.5233 64.8615 88.388 65.0395C88.2526 65.2162 88.0715 65.3045 87.8447 65.3045C87.7394 65.3045 87.6529 65.2895 87.5852 65.2594V64.9473C87.6529 64.9962 87.7406 65.0207 87.8484 65.0207C88.1329 65.0207 88.2752 64.7794 88.2752 64.2969V62.5636H88.591V64.2931ZM90.7923 65.2594H90.484V64.9549H90.4765C90.3487 65.188 90.1507 65.3045 89.8825 65.3045C89.4238 65.3045 89.1944 65.0313 89.1944 64.4849V63.3344H89.5008V64.436C89.5008 64.8421 89.6562 65.0451 89.9671 65.0451C90.1174 65.0451 90.2409 64.9899 90.3374 64.8797C90.4351 64.7681 90.484 64.6227 90.484 64.4435V63.3344H90.7923V65.2594ZM91.7247 65.2594H91.4164V62.4095H91.7247V65.2594ZM93.881 63.3344L92.9955 65.5677C92.8376 65.9662 92.6158 66.1655 92.3301 66.1655C92.2499 66.1655 92.1828 66.1574 92.1289 66.1411V65.8647C92.1953 65.8873 92.2561 65.8986 92.3113 65.8986C92.4667 65.8986 92.5832 65.8058 92.6609 65.6203L92.8151 65.2556L92.0631 63.3344H92.4053L92.926 64.8157C92.9323 64.8345 92.9454 64.8834 92.9655 64.9624H92.9767C92.983 64.9323 92.9955 64.8847 93.0143 64.8195L93.5614 63.3344H93.881Z" fill="#666666"/>
<path d="M103.594 65.2594H103.244L102.959 64.5037H101.816L101.547 65.2594H101.195L102.229 62.5636H102.556L103.594 65.2594ZM102.855 64.2198L102.432 63.0712C102.419 63.0336 102.405 62.9735 102.391 62.8907H102.383C102.371 62.9672 102.356 63.0274 102.34 63.0712L101.921 64.2198H102.855ZM105.508 65.2594H105.2V64.9549H105.192C105.064 65.188 104.866 65.3045 104.598 65.3045C104.139 65.3045 103.91 65.0313 103.91 64.4849V63.3344H104.216V64.436C104.216 64.8421 104.372 65.0451 104.683 65.0451C104.833 65.0451 104.956 64.9899 105.053 64.8797C105.151 64.7681 105.2 64.6227 105.2 64.4435V63.3344H105.508V65.2594ZM107.775 65.1052C107.775 65.8121 107.437 66.1655 106.76 66.1655C106.522 66.1655 106.314 66.1204 106.136 66.0302V65.7219C106.353 65.8422 106.559 65.9023 106.756 65.9023C107.23 65.9023 107.467 65.6504 107.467 65.1466V64.9361H107.459C107.312 65.1817 107.092 65.3045 106.797 65.3045C106.558 65.3045 106.365 65.2193 106.218 65.0489C106.073 64.8772 106 64.6472 106 64.3589C106 64.0318 106.079 63.7718 106.235 63.5788C106.393 63.3858 106.609 63.2893 106.882 63.2893C107.141 63.2893 107.334 63.3933 107.459 63.6013H107.467V63.3344H107.775V65.1052ZM107.467 64.389V64.1052C107.467 63.9523 107.415 63.8213 107.311 63.7123C107.208 63.6032 107.079 63.5487 106.925 63.5487C106.735 63.5487 106.586 63.6183 106.478 63.7574C106.37 63.8952 106.316 64.0889 106.316 64.3383C106.316 64.5526 106.368 64.7243 106.47 64.8533C106.574 64.9812 106.712 65.0451 106.882 65.0451C107.055 65.0451 107.195 64.9837 107.303 64.8609C107.412 64.738 107.467 64.5808 107.467 64.389ZM114.653 65.1504V64.7781C114.696 64.8157 114.747 64.8496 114.806 64.8797C114.866 64.9097 114.929 64.9354 114.994 64.9567C115.06 64.9768 115.127 64.9925 115.193 65.0037C115.259 65.015 115.321 65.0207 115.377 65.0207C115.571 65.0207 115.716 64.9849 115.811 64.9135C115.908 64.8408 115.956 64.7368 115.956 64.6014C115.956 64.5288 115.94 64.4655 115.907 64.4116C115.876 64.3577 115.832 64.3088 115.776 64.2649C115.719 64.2198 115.652 64.1772 115.575 64.1371C115.498 64.0958 115.415 64.0525 115.326 64.0074C115.232 63.9598 115.145 63.9115 115.063 63.8626C114.982 63.8138 114.911 63.7599 114.851 63.701C114.791 63.6421 114.743 63.5757 114.708 63.5017C114.674 63.4265 114.657 63.3388 114.657 63.2385C114.657 63.1157 114.684 63.0092 114.738 62.9189C114.792 62.8275 114.863 62.7523 114.95 62.6934C115.038 62.6345 115.138 62.5906 115.249 62.5618C115.362 62.5329 115.477 62.5185 115.593 62.5185C115.859 62.5185 116.053 62.5505 116.174 62.6144V62.9697C116.015 62.8594 115.811 62.8043 115.561 62.8043C115.492 62.8043 115.424 62.8118 115.355 62.8268C115.286 62.8406 115.224 62.8638 115.17 62.8964C115.117 62.929 115.073 62.971 115.039 63.0223C115.005 63.0737 114.988 63.1364 114.988 63.2103C114.988 63.2793 115.001 63.3388 115.026 63.3889C115.052 63.439 115.09 63.4848 115.14 63.5261C115.19 63.5675 115.251 63.6076 115.323 63.6465C115.395 63.6853 115.479 63.7279 115.573 63.7743C115.669 63.8219 115.761 63.872 115.847 63.9247C115.934 63.9773 116.009 64.0356 116.075 64.0995C116.14 64.1634 116.191 64.2342 116.229 64.3119C116.268 64.3896 116.287 64.4786 116.287 64.5789C116.287 64.7117 116.261 64.8245 116.208 64.9173C116.157 65.0087 116.087 65.0833 115.998 65.141C115.91 65.1986 115.808 65.24 115.693 65.265C115.578 65.2914 115.456 65.3045 115.328 65.3045C115.286 65.3045 115.233 65.3008 115.17 65.2932C115.108 65.287 115.044 65.2769 114.979 65.2632C114.913 65.2506 114.851 65.235 114.793 65.2162C114.735 65.1961 114.689 65.1742 114.653 65.1504ZM118.33 64.374H116.971C116.976 64.5883 117.034 64.7537 117.144 64.8703C117.255 64.9868 117.406 65.0451 117.599 65.0451C117.816 65.0451 118.015 64.9737 118.197 64.8308V65.1203C118.028 65.2431 117.804 65.3045 117.526 65.3045C117.254 65.3045 117.04 65.2174 116.885 65.0432C116.729 64.8678 116.652 64.6215 116.652 64.3044C116.652 64.0049 116.736 63.7611 116.906 63.5731C117.076 63.3839 117.287 63.2893 117.539 63.2893C117.791 63.2893 117.986 63.3707 118.124 63.5337C118.262 63.6966 118.33 63.9228 118.33 64.2123V64.374ZM118.015 64.1127C118.013 63.9347 117.97 63.7962 117.885 63.6972C117.801 63.5982 117.684 63.5487 117.533 63.5487C117.388 63.5487 117.265 63.6007 117.163 63.7047C117.062 63.8088 116.999 63.9447 116.975 64.1127H118.015ZM119.114 64.9812H119.107V66.1448H118.799V63.3344H119.107V63.6728H119.114C119.266 63.4171 119.488 63.2893 119.78 63.2893C120.028 63.2893 120.222 63.3758 120.361 63.5487C120.5 63.7204 120.569 63.951 120.569 64.2405C120.569 64.5626 120.491 64.8208 120.334 65.015C120.178 65.208 119.963 65.3045 119.692 65.3045C119.442 65.3045 119.25 65.1967 119.114 64.9812ZM119.107 64.2048V64.4736C119.107 64.6328 119.158 64.7681 119.261 64.8797C119.365 64.9899 119.497 65.0451 119.656 65.0451C119.843 65.0451 119.989 64.9737 120.094 64.8308C120.2 64.6879 120.254 64.4893 120.254 64.2349C120.254 64.0206 120.204 63.8526 120.105 63.7311C120.006 63.6095 119.872 63.5487 119.703 63.5487C119.524 63.5487 119.379 63.6114 119.27 63.7367C119.161 63.8608 119.107 64.0168 119.107 64.2048Z" fill="#666666"/>
<path d="M131.862 65.3045C131.48 65.3045 131.173 65.1786 130.943 64.9267C130.713 64.6748 130.599 64.347 130.599 63.9435C130.599 63.5099 130.716 63.164 130.95 62.9058C131.185 62.6476 131.503 62.5185 131.907 62.5185C132.279 62.5185 132.579 62.6439 132.806 62.8945C133.034 63.1452 133.148 63.4729 133.148 63.8777C133.148 64.3176 133.031 64.6654 132.798 64.921C132.565 65.1767 132.253 65.3045 131.862 65.3045ZM131.884 62.8043C131.601 62.8043 131.371 62.9064 131.195 63.1107C131.018 63.315 130.929 63.5832 130.929 63.9153C130.929 64.2474 131.015 64.515 131.187 64.718C131.36 64.9198 131.585 65.0207 131.862 65.0207C132.158 65.0207 132.391 64.9242 132.561 64.7312C132.732 64.5382 132.817 64.2681 132.817 63.9209C132.817 63.565 132.734 63.2899 132.569 63.0957C132.403 62.9014 132.175 62.8043 131.884 62.8043ZM134.949 65.171C134.801 65.26 134.625 65.3045 134.422 65.3045C134.148 65.3045 133.926 65.2155 133.757 65.0376C133.589 64.8584 133.505 64.6265 133.505 64.342C133.505 64.0249 133.596 63.7705 133.778 63.5788C133.959 63.3858 134.202 63.2893 134.505 63.2893C134.674 63.2893 134.823 63.3206 134.952 63.3833V63.6991C134.81 63.5988 134.657 63.5487 134.494 63.5487C134.297 63.5487 134.135 63.6195 134.009 63.7611C133.883 63.9015 133.821 64.0864 133.821 64.3157C133.821 64.5413 133.88 64.7192 133.997 64.8496C134.117 64.9799 134.276 65.0451 134.475 65.0451C134.643 65.0451 134.801 64.9893 134.949 64.8778V65.171ZM136.308 65.2406C136.235 65.2807 136.139 65.3008 136.02 65.3008C135.683 65.3008 135.515 65.1128 135.515 64.7368V63.5976H135.184V63.3344H135.515V62.8644L135.823 62.7648V63.3344H136.308V63.5976H135.823V64.6823C135.823 64.8114 135.845 64.9035 135.889 64.9586C135.932 65.0138 136.005 65.0413 136.107 65.0413C136.184 65.0413 136.251 65.02 136.308 64.9774V65.2406ZM147.386 65.2594H146.999L145.611 63.1107C145.576 63.0568 145.547 63.0004 145.525 62.9415H145.514C145.524 62.9992 145.529 63.1226 145.529 63.3118V65.2594H145.213V62.5636H145.623L146.972 64.6785C147.029 64.7662 147.065 64.8264 147.081 64.859H147.089C147.076 64.7813 147.07 64.6491 147.07 64.4623V62.5636H147.386V65.2594ZM148.856 65.3045C148.572 65.3045 148.344 65.2149 148.174 65.0357C148.004 64.8552 147.92 64.6165 147.92 64.3195C147.92 63.9961 148.008 63.7436 148.185 63.5619C148.362 63.3801 148.6 63.2893 148.901 63.2893C149.188 63.2893 149.412 63.3776 149.572 63.5543C149.734 63.7311 149.815 63.9761 149.815 64.2894C149.815 64.5964 149.728 64.8427 149.553 65.0282C149.381 65.2124 149.148 65.3045 148.856 65.3045ZM148.879 63.5487C148.681 63.5487 148.524 63.6164 148.409 63.7517C148.293 63.8858 148.236 64.0713 148.236 64.3082C148.236 64.5363 148.294 64.7161 148.411 64.8477C148.527 64.9793 148.683 65.0451 148.879 65.0451C149.078 65.0451 149.231 64.9806 149.337 64.8515C149.445 64.7224 149.499 64.5388 149.499 64.3007C149.499 64.06 149.445 63.8746 149.337 63.7442C149.231 63.6139 149.078 63.5487 148.879 63.5487ZM151.821 63.3344L151.054 65.2594H150.751L150.022 63.3344H150.36L150.849 64.733C150.885 64.8358 150.908 64.9254 150.916 65.0019H150.924C150.936 64.9054 150.957 64.8183 150.984 64.7406L151.495 63.3344H151.821Z" fill="#666666"/>
<path d="M161.651 65.2107V62.5149H162.395C163.345 62.5149 163.82 62.953 163.82 63.829C163.82 64.2451 163.688 64.5797 163.423 64.8328C163.16 65.0847 162.807 65.2107 162.365 65.2107H161.651ZM161.966 62.8007V64.925H162.369C162.722 64.925 162.997 64.8303 163.194 64.6411C163.391 64.4518 163.489 64.1837 163.489 63.8365C163.489 63.146 163.122 62.8007 162.387 62.8007H161.966ZM165.856 64.3253H164.497C164.502 64.5396 164.559 64.705 164.67 64.8216C164.78 64.9381 164.932 64.9964 165.125 64.9964C165.341 64.9964 165.541 64.925 165.722 64.7821V65.0716C165.553 65.1944 165.329 65.2558 165.051 65.2558C164.779 65.2558 164.566 65.1687 164.41 64.9945C164.255 64.8191 164.177 64.5728 164.177 64.2557C164.177 63.9562 164.262 63.7124 164.431 63.5244C164.601 63.3352 164.813 63.2406 165.064 63.2406C165.316 63.2406 165.511 63.322 165.649 63.485C165.787 63.6479 165.856 63.8741 165.856 64.1636V64.3253ZM165.54 64.064C165.539 63.886 165.496 63.7475 165.41 63.6485C165.326 63.5495 165.209 63.5 165.059 63.5C164.913 63.5 164.79 63.552 164.688 63.656C164.587 63.7601 164.524 63.896 164.5 64.064H165.54ZM167.636 65.1223C167.488 65.2113 167.313 65.2558 167.11 65.2558C166.835 65.2558 166.613 65.1668 166.444 64.9889C166.276 64.8097 166.192 64.5778 166.192 64.2933C166.192 63.9762 166.283 63.7218 166.465 63.5301C166.647 63.3371 166.889 63.2406 167.192 63.2406C167.362 63.2406 167.511 63.2719 167.64 63.3346V63.6504C167.497 63.5501 167.344 63.5 167.181 63.5C166.984 63.5 166.823 63.5708 166.696 63.7124C166.571 63.8528 166.508 64.0376 166.508 64.267C166.508 64.4926 166.567 64.6705 166.685 64.8009C166.804 64.9312 166.963 64.9964 167.162 64.9964C167.33 64.9964 167.488 64.9406 167.636 64.8291V65.1223Z" fill="#666666"/>
<path d="M21.0524 55.0977H168.932" stroke="#D9D9D9" stroke-width="0.5" stroke-linecap="round" stroke-linejoin="round"/>
<path d="M21.0524 30.9645H168.932" stroke="#D9D9D9" stroke-width="0.5" stroke-linecap="round" stroke-linejoin="round"/>
<path d="M21.0524 6.8313H168.932" stroke="#D9D9D9" stroke-width="0.5" stroke-linecap="round" stroke-linejoin="round"/>
<path d="M20.7219 54.8143C20.7219 55.0704 20.6461 55.3206 20.5041 55.5335C20.362 55.7464 20.1601 55.9123 19.9239 56.0103C19.6877 56.1082 19.4278 56.1339 19.177 56.0839C18.9263 56.034 18.6959 55.9107 18.5152 55.7296C18.3344 55.5486 18.2113 55.318 18.1614 55.0669C18.1115 54.8158 18.1371 54.5555 18.2349 54.319C18.3328 54.0824 18.4985 53.8803 18.711 53.738C18.9236 53.5958 19.1736 53.5199 19.4292 53.5199C19.7721 53.5199 20.1009 53.6563 20.3433 53.899C20.5857 54.1418 20.7219 54.471 20.7219 54.8143Z" fill="#6FA3EF"/>
<path d="M49.6503 54.8143C49.6503 55.0704 49.5745 55.3206 49.4325 55.5335C49.2904 55.7464 49.0885 55.9123 48.8523 56.0103C48.6161 56.1082 48.3562 56.1339 48.1054 56.0839C47.8547 56.034 47.6244 55.9107 47.4436 55.7296C47.2628 55.5486 47.1397 55.318 47.0898 55.0669C47.0399 54.8158 47.0655 54.5555 47.1633 54.319C47.2612 54.0824 47.4269 53.8803 47.6395 53.738C47.852 53.5958 48.102 53.5199 48.3576 53.5199C48.7005 53.5199 49.0293 53.6563 49.2717 53.899C49.5141 54.1418 49.6503 54.471 49.6503 54.8143Z" fill="#6FA3EF"/>
<path d="M78.5884 54.8143C78.5884 55.0704 78.5126 55.3206 78.3706 55.5335C78.2285 55.7464 78.0266 55.9123 77.7904 56.0103C77.5542 56.1082 77.2943 56.1339 77.0435 56.0839C76.7928 56.034 76.5625 55.9107 76.3817 55.7296C76.2009 55.5486 76.0778 55.318 76.0279 55.0669C75.978 54.8158 76.0036 54.5555 76.1014 54.319C76.1993 54.0824 76.365 53.8803 76.5776 53.738C76.7901 53.5958 77.0401 53.5199 77.2957 53.5199C77.6386 53.5199 77.9674 53.6563 78.2098 53.899C78.4522 54.1418 78.5884 54.471 78.5884 54.8143Z" fill="#6FA3EF"/>
<path d="M107.521 54.8143C107.521 55.0704 107.445 55.3206 107.303 55.5335C107.161 55.7464 106.959 55.9123 106.723 56.0103C106.487 56.1082 106.227 56.1339 105.976 56.0839C105.725 56.034 105.495 55.9107 105.314 55.7296C105.134 55.5486 105.01 55.318 104.961 55.0669C104.911 54.8158 104.936 54.5555 105.034 54.319C105.132 54.0824 105.298 53.8803 105.51 53.738C105.723 53.5958 105.973 53.5199 106.228 53.5199C106.571 53.5199 106.9 53.6563 107.143 53.899C107.385 54.1418 107.521 54.471 107.521 54.8143Z" fill="#6FA3EF"/>
<path d="M136.455 54.8143C136.455 55.0704 136.379 55.3206 136.237 55.5335C136.095 55.7464 135.893 55.9123 135.657 56.0103C135.421 56.1082 135.161 56.1339 134.91 56.0839C134.659 56.034 134.429 55.9107 134.248 55.7296C134.067 55.5486 133.944 55.318 133.894 55.0669C133.844 54.8158 133.87 54.5555 133.968 54.319C134.066 54.0824 134.231 53.8803 134.444 53.738C134.657 53.5958 134.907 53.5199 135.162 53.5199C135.505 53.5199 135.834 53.6563 136.076 53.899C136.319 54.1418 136.455 54.471 136.455 54.8143Z" fill="#6FA3EF"/>
<path d="M165.388 54.8143C165.388 55.0704 165.312 55.3206 165.17 55.5335C165.028 55.7464 164.826 55.9123 164.59 56.0103C164.353 56.1082 164.093 56.1339 163.843 56.0839C163.592 56.034 163.362 55.9107 163.181 55.7296C163 55.5486 162.877 55.318 162.827 55.0669C162.777 54.8158 162.803 54.5555 162.901 54.319C162.998 54.0824 163.164 53.8803 163.377 53.738C163.589 53.5958 163.839 53.5199 164.095 53.5199C164.438 53.5199 164.767 53.6563 165.009 53.899C165.251 54.1418 165.388 54.471 165.388 54.8143Z" fill="#6FA3EF"/>
<path d="M33.8215 54.9504C33.8213 55.1182 33.7714 55.2822 33.6781 55.4217C33.5848 55.5612 33.4523 55.6698 33.2974 55.7339C33.1424 55.798 32.972 55.8147 32.8076 55.7818C32.6432 55.7489 32.4923 55.668 32.3738 55.5492C32.2554 55.4304 32.1747 55.2792 32.1421 55.1145C32.1095 54.9499 32.1263 54.7792 32.1905 54.6242C32.2547 54.4691 32.3634 54.3366 32.5028 54.2433C32.6422 54.1501 32.8061 54.1003 32.9737 54.1003C33.0851 54.1003 33.1954 54.1223 33.2984 54.1651C33.4013 54.2078 33.4948 54.2704 33.5735 54.3494C33.6523 54.4283 33.7147 54.522 33.7573 54.6252C33.7998 54.7283 33.8216 54.8388 33.8215 54.9504Z" fill="#CCCCCC"/>
<path d="M62.8641 54.9504C62.8641 55.1185 62.8143 55.2828 62.721 55.4226C62.6277 55.5624 62.4952 55.6713 62.34 55.7357C62.1849 55.8 62.0143 55.8168 61.8496 55.784C61.6849 55.7512 61.5337 55.6703 61.415 55.5514C61.2962 55.4325 61.2154 55.2811 61.1826 55.1162C61.1499 54.9513 61.1667 54.7804 61.2309 54.6251C61.2952 54.4698 61.404 54.337 61.5436 54.2436C61.6832 54.1502 61.8473 54.1003 62.0152 54.1003C62.2403 54.1003 62.4562 54.1899 62.6154 54.3493C62.7746 54.5087 62.8641 54.7249 62.8641 54.9504Z" fill="#CCCCCC"/>
<path d="M91.9013 54.9504C91.9011 55.1182 91.8512 55.2822 91.7579 55.4217C91.6646 55.5612 91.5321 55.6698 91.3772 55.7339C91.2222 55.798 91.0518 55.8147 90.8874 55.7818C90.7231 55.7489 90.5721 55.668 90.4536 55.5492C90.3352 55.4304 90.2545 55.2792 90.2219 55.1145C90.1893 54.9499 90.2061 54.7792 90.2703 54.6242C90.3345 54.4691 90.4432 54.3366 90.5826 54.2433C90.722 54.1501 90.8859 54.1003 91.0535 54.1003C91.1649 54.1003 91.2752 54.1223 91.3782 54.1651C91.4811 54.2078 91.5746 54.2704 91.6534 54.3494C91.7321 54.4283 91.7945 54.522 91.8371 54.6252C91.8796 54.7283 91.9014 54.8388 91.9013 54.9504Z" fill="#CCCCCC"/>
<path d="M120.948 54.9504C120.948 55.1185 120.898 55.2828 120.805 55.4226C120.712 55.5624 120.579 55.6713 120.424 55.7357C120.269 55.8 120.098 55.8168 119.934 55.784C119.769 55.7512 119.618 55.6703 119.499 55.5514C119.38 55.4325 119.3 55.2811 119.267 55.1162C119.234 54.9513 119.251 54.7804 119.315 54.6251C119.379 54.4698 119.488 54.337 119.628 54.2436C119.767 54.1502 119.931 54.1003 120.099 54.1003C120.324 54.1003 120.54 54.1899 120.7 54.3493C120.859 54.5087 120.948 54.7249 120.948 54.9504Z" fill="#CCCCCC"/>
<path d="M149.991 54.9504C149.991 55.1185 149.941 55.2828 149.848 55.4226C149.754 55.5624 149.622 55.6713 149.467 55.7357C149.312 55.8 149.141 55.8168 148.976 55.784C148.812 55.7512 148.66 55.6703 148.542 55.5514C148.423 55.4325 148.342 55.2811 148.309 55.1162C148.277 54.9513 148.293 54.7804 148.358 54.6251C148.422 54.4698 148.531 54.337 148.67 54.2436C148.81 54.1502 148.974 54.1003 149.142 54.1003C149.367 54.1003 149.583 54.1899 149.742 54.3493C149.901 54.5087 149.991 54.7249 149.991 54.9504Z" fill="#CCCCCC"/>
<path d="M20.0486 32.8831L33.0216 40.0668C35.2017 41.2741 37.6192 41.7561 40.0139 41.4609C42.4086 41.1657 44.6899 40.1044 46.6123 38.3913L55.1606 30.7734C57.3421 28.8296 59.9789 27.7308 62.7096 27.6277C65.4403 27.5245 68.1311 28.422 70.4132 30.1972C71.9311 31.3779 73.6383 32.1768 75.4287 32.5442C77.219 32.9115 79.0542 32.8395 80.82 32.3325C82.5858 31.8255 84.2444 30.8945 85.6926 29.5973C87.1407 28.3001 88.3475 26.6646 89.2377 24.7925L94.1894 14.3788C95.2693 12.1082 96.8117 10.192 98.6768 8.80399C100.542 7.416 102.671 6.60014 104.87 6.43037C107.069 6.26061 109.27 6.74231 111.272 7.8318C113.274 8.92129 115.014 10.5841 116.335 12.6695L119.375 17.4696C120.608 19.4169 122.208 20.9977 124.048 22.0866C125.889 23.1755 127.918 23.7426 129.977 23.7427H139.007C141.642 23.7426 144.218 24.6717 146.403 26.4112L165.338 41.4802" stroke="#0D47A1" stroke-width="2" stroke-linecap="round" stroke-linejoin="round"/>
<path d="M42.7032 41.3337C42.7032 41.8667 42.5694 42.3878 42.3188 42.831C42.0682 43.2742 41.7121 43.6196 41.2954 43.8236C40.8787 44.0276 40.4201 44.0809 39.9778 43.9769C39.5354 43.873 39.129 43.6163 38.8101 43.2394C38.4912 42.8625 38.274 42.3823 38.186 41.8595C38.098 41.3367 38.1432 40.7948 38.3158 40.3024C38.4884 39.8099 38.7807 39.389 39.1557 39.0929C39.5307 38.7967 39.9716 38.6387 40.4227 38.6387C41.0275 38.6387 41.6075 38.9226 42.0352 39.428C42.4629 39.9334 42.7032 40.6189 42.7032 41.3337Z" fill="#6FA3EF"/>
<path d="M63.5183 27.6011C63.5181 28.1341 63.3842 28.655 63.1335 29.0981C62.8829 29.5412 62.5267 29.8865 62.1099 30.0903C61.6932 30.2942 61.2347 30.3474 60.7924 30.2433C60.3501 30.1392 59.9438 29.8825 59.6249 29.5055C59.3061 29.1286 59.089 28.6484 59.001 28.1256C58.9131 27.6029 58.9583 27.061 59.1309 26.5686C59.3036 26.0762 59.5959 25.6554 59.9709 25.3593C60.3459 25.0632 60.7868 24.9052 61.2378 24.9052C61.5373 24.9052 61.8339 24.9749 62.1107 25.1104C62.3874 25.2459 62.6388 25.4445 62.8506 25.6948C63.0624 25.9452 63.2303 26.2424 63.3449 26.5695C63.4594 26.8966 63.5184 27.2471 63.5183 27.6011Z" fill="#6FA3EF"/>
<path d="M84.3419 31.3569C84.3421 31.8901 84.2084 32.4115 83.9578 32.8549C83.7072 33.2984 83.351 33.6441 82.9342 33.8483C82.5173 34.0525 82.0586 34.106 81.6161 34.0021C81.1735 33.8981 80.7669 33.6414 80.4478 33.2644C80.1287 32.8874 79.9113 32.4071 79.8232 31.8841C79.7352 31.3611 79.7803 30.819 79.9529 30.3263C80.1256 29.8337 80.418 29.4126 80.7931 29.1163C81.1683 28.82 81.6094 28.6619 82.0606 28.6619C82.6655 28.6619 83.2457 28.9458 83.6734 29.4512C84.1012 29.9566 84.3417 30.642 84.3419 31.3569Z" fill="#6FA3EF"/>
<path d="M105.161 6.76552C105.161 7.2985 105.027 7.81947 104.776 8.26254C104.525 8.70562 104.169 9.0509 103.753 9.25474C103.336 9.45858 102.877 9.51182 102.435 9.40773C101.993 9.30364 101.586 9.04689 101.268 8.66995C100.949 8.29301 100.732 7.8128 100.644 7.29004C100.556 6.76728 100.601 6.22545 100.774 5.73305C100.946 5.24065 101.238 4.8198 101.613 4.52371C101.989 4.22762 102.429 4.06958 102.88 4.06958C103.18 4.06958 103.477 4.13932 103.753 4.27481C104.03 4.41031 104.281 4.6089 104.493 4.85926C104.705 5.10961 104.873 5.40682 104.988 5.7339C105.102 6.06098 105.161 6.41152 105.161 6.76552Z" fill="#6FA3EF"/>
<path d="M125.98 21.4104C125.98 21.9434 125.846 22.4644 125.595 22.9074C125.344 23.3505 124.988 23.6958 124.572 23.8996C124.155 24.1035 123.696 24.1567 123.254 24.0526C122.812 23.9485 122.405 23.6918 122.087 23.3148C121.768 22.9379 121.551 22.4577 121.463 21.9349C121.375 21.4122 121.42 20.8703 121.593 20.378C121.765 19.8856 122.057 19.4647 122.432 19.1686C122.807 18.8725 123.248 18.7145 123.699 18.7145C123.999 18.7145 124.295 18.7842 124.572 18.9197C124.849 19.0552 125.1 19.2538 125.312 19.5042C125.524 19.7545 125.692 20.0517 125.806 20.3788C125.921 20.7059 125.98 21.0564 125.98 21.4104Z" fill="#6FA3EF"/>
<path d="M146.8 25.311C146.8 25.8443 146.666 26.3656 146.415 26.8091C146.165 27.2526 145.809 27.5983 145.392 27.8025C144.975 28.0066 144.516 28.0601 144.073 27.9561C143.631 27.8521 143.224 27.5953 142.905 27.2182C142.586 26.8411 142.369 26.3607 142.281 25.8376C142.193 25.3146 142.238 24.7724 142.411 24.2798C142.584 23.7871 142.876 23.3661 143.251 23.0699C143.627 22.7738 144.068 22.6158 144.519 22.616C145.124 22.616 145.704 22.8999 146.132 23.4053C146.559 23.9107 146.8 24.5962 146.8 25.311Z" fill="#6FA3EF"/>
</svg>
