<svg width="173" height="170" viewBox="0 0 173 170" fill="none" xmlns="http://www.w3.org/2000/svg">
<g clip-path="url(#clip0_289_733)">
<rect width="173" height="170" rx="16" fill="#0D47A1"/>
<circle cx="140" cy="115" r="63" fill="#002A6B" fill-opacity="0.47"/>
<path d="M136.324 96.0286C136.324 95.3637 136.324 95.0313 136.416 94.7773C136.498 94.554 136.627 94.3724 136.787 94.2585C136.969 94.1292 137.206 94.1292 137.682 94.1292H145.15C145.625 94.1292 145.863 94.1292 146.045 94.2585C146.204 94.3724 146.334 94.554 146.416 94.7773C146.508 95.0313 146.508 95.3637 146.508 96.0286V120.246H153.298L141.416 136.867L129.534 120.246H136.324V96.0286Z" fill="#9EB5D9" stroke="#073988" stroke-width="2" stroke-linecap="round" stroke-linejoin="round"/>
<circle cx="-5" cy="7" r="85.5" stroke="#D0E2FF" stroke-opacity="0.32"/>
<circle cx="29.5" cy="29.5" r="13.5" fill="#C9D1FF"/>
<path d="M28.2049 24.5623C28.2049 24.3725 28.2049 24.2775 28.2321 24.205C28.256 24.1412 28.2942 24.0894 28.3412 24.0568C28.3946 24.0199 28.4645 24.0199 28.6043 24.0199H30.8011C30.9409 24.0199 31.0108 24.0199 31.0642 24.0568C31.1112 24.0894 31.1494 24.1412 31.1733 24.205C31.2005 24.2775 31.2005 24.3725 31.2005 24.5623V31.4786H33.1977L29.7027 36.225L26.2078 31.4786H28.2049V24.5623Z" fill="#0D47A1" stroke="#074E97" stroke-opacity="0.5" stroke-linecap="round" stroke-linejoin="round"/>
<path d="M18.4336 104H17.2852V94.1973H18.4336V104ZM26.6777 104H25.5566V100.008C25.5566 98.5221 25.0143 97.7793 23.9297 97.7793C23.3691 97.7793 22.9043 97.9912 22.5352 98.415C22.1706 98.8343 21.9883 99.3652 21.9883 100.008V104H20.8672V97H21.9883V98.1621H22.0156C22.5443 97.278 23.3099 96.8359 24.3125 96.8359C25.0781 96.8359 25.6637 97.0843 26.0693 97.5811C26.4749 98.0732 26.6777 98.7865 26.6777 99.7207V104ZM33.5684 103.679C33.0306 104.002 32.3926 104.164 31.6543 104.164C30.6562 104.164 29.8496 103.84 29.2344 103.193C28.6237 102.542 28.3184 101.699 28.3184 100.664C28.3184 99.5111 28.6488 98.5859 29.3096 97.8887C29.9704 97.1868 30.8522 96.8359 31.9551 96.8359C32.5703 96.8359 33.1126 96.9499 33.582 97.1777V98.3262C33.0625 97.9616 32.5065 97.7793 31.9141 97.7793C31.1986 97.7793 30.6107 98.0368 30.1504 98.5518C29.6947 99.0622 29.4668 99.7344 29.4668 100.568C29.4668 101.389 29.681 102.036 30.1094 102.51C30.5423 102.984 31.1211 103.221 31.8457 103.221C32.4564 103.221 33.0306 103.018 33.5684 102.612V103.679ZM38.1895 104.164C37.1549 104.164 36.3278 103.838 35.708 103.187C35.0928 102.53 34.7852 101.662 34.7852 100.582C34.7852 99.4062 35.1064 98.488 35.749 97.8271C36.3916 97.1663 37.2598 96.8359 38.3535 96.8359C39.3971 96.8359 40.2106 97.1572 40.7939 97.7998C41.3818 98.4424 41.6758 99.3333 41.6758 100.473C41.6758 101.589 41.359 102.485 40.7256 103.159C40.0967 103.829 39.2513 104.164 38.1895 104.164ZM38.2715 97.7793C37.5514 97.7793 36.9818 98.0254 36.5625 98.5176C36.1432 99.0052 35.9336 99.6797 35.9336 100.541C35.9336 101.37 36.1455 102.024 36.5693 102.503C36.9932 102.981 37.5605 103.221 38.2715 103.221C38.9961 103.221 39.5521 102.986 39.9395 102.517C40.3314 102.047 40.5273 101.38 40.5273 100.514C40.5273 99.6387 40.3314 98.9642 39.9395 98.4902C39.5521 98.0163 38.9961 97.7793 38.2715 97.7793ZM53.4062 104H52.2852V99.9805C52.2852 99.2057 52.1644 98.6452 51.9229 98.2988C51.6859 97.9525 51.2848 97.7793 50.7197 97.7793C50.2412 97.7793 49.8333 97.998 49.4961 98.4355C49.1634 98.873 48.9971 99.3971 48.9971 100.008V104H47.876V99.8438C47.876 98.4674 47.3451 97.7793 46.2832 97.7793C45.791 97.7793 45.3854 97.9867 45.0664 98.4014C44.7474 98.8115 44.5879 99.347 44.5879 100.008V104H43.4668V97H44.5879V98.1074H44.6152C45.112 97.2598 45.8366 96.8359 46.7891 96.8359C47.2676 96.8359 47.6846 96.9704 48.04 97.2393C48.3955 97.5036 48.6393 97.8522 48.7715 98.2852C49.291 97.319 50.0658 96.8359 51.0957 96.8359C52.6361 96.8359 53.4062 97.7861 53.4062 99.6865V104ZM61.1514 100.78H56.209C56.2272 101.56 56.4368 102.161 56.8379 102.585C57.2389 103.009 57.7904 103.221 58.4922 103.221C59.2806 103.221 60.0052 102.961 60.666 102.441V103.494C60.0508 103.941 59.2373 104.164 58.2256 104.164C57.2367 104.164 56.4596 103.847 55.8945 103.214C55.3294 102.576 55.0469 101.68 55.0469 100.527C55.0469 99.4382 55.3545 98.5518 55.9697 97.8682C56.5895 97.18 57.3574 96.8359 58.2734 96.8359C59.1895 96.8359 59.8981 97.1322 60.3994 97.7246C60.9007 98.3171 61.1514 99.1396 61.1514 100.192V100.78ZM60.0029 99.8301C59.9984 99.1829 59.8411 98.6794 59.5312 98.3193C59.2259 97.9593 58.7998 97.7793 58.2529 97.7793C57.7243 97.7793 57.2754 97.9684 56.9062 98.3467C56.5371 98.7249 56.3092 99.2194 56.2227 99.8301H60.0029Z" fill="white" fill-opacity="0.4"/>
<path d="M23.0703 131H21.4688V118.9C21.3451 119.024 21.1628 119.167 20.9219 119.33C20.6875 119.486 20.4206 119.643 20.1211 119.799C19.8281 119.955 19.5156 120.102 19.1836 120.238C18.8581 120.375 18.5391 120.482 18.2266 120.561V118.939C18.5781 118.842 18.9492 118.712 19.3398 118.549C19.737 118.38 20.1243 118.194 20.502 117.992C20.8861 117.784 21.2474 117.569 21.5859 117.348C21.9245 117.12 22.2174 116.898 22.4648 116.684H23.0703V131ZM34.3203 120.668C34.3203 120.238 34.252 119.864 34.1152 119.545C33.985 119.226 33.8027 118.962 33.5684 118.754C33.3405 118.539 33.0703 118.38 32.7578 118.275C32.4453 118.171 32.1068 118.119 31.7422 118.119C31.4297 118.119 31.1237 118.161 30.8242 118.246C30.5247 118.331 30.2318 118.448 29.9453 118.598C29.6654 118.747 29.3919 118.926 29.125 119.135C28.8646 119.343 28.6204 119.574 28.3926 119.828V118.109C28.8418 117.673 29.3431 117.341 29.8965 117.113C30.4564 116.879 31.1367 116.762 31.9375 116.762C32.5104 116.762 33.041 116.846 33.5293 117.016C34.0176 117.178 34.4408 117.419 34.7988 117.738C35.1569 118.057 35.4368 118.451 35.6387 118.92C35.847 119.389 35.9512 119.926 35.9512 120.531C35.9512 121.085 35.8861 121.586 35.7559 122.035C35.6322 122.484 35.4401 122.908 35.1797 123.305C34.9258 123.702 34.6035 124.083 34.2129 124.447C33.8223 124.812 33.3633 125.183 32.8359 125.561C32.1784 126.029 31.6348 126.43 31.2051 126.762C30.7819 127.094 30.4434 127.406 30.1895 127.699C29.9421 127.986 29.7663 128.275 29.6621 128.568C29.5645 128.855 29.5156 129.187 29.5156 129.564H36.4883V131H27.8457V130.307C27.8457 129.708 27.9108 129.18 28.041 128.725C28.1712 128.269 28.3861 127.836 28.6855 127.426C28.985 127.016 29.3757 126.605 29.8574 126.195C30.3457 125.785 30.9414 125.323 31.6445 124.809C32.1523 124.444 32.5755 124.096 32.9141 123.764C33.2591 123.432 33.5358 123.1 33.7441 122.768C33.9525 122.436 34.099 122.1 34.1836 121.762C34.2747 121.417 34.3203 121.052 34.3203 120.668ZM47.5234 123.939C47.5234 125.111 47.416 126.15 47.2012 127.055C46.9928 127.96 46.6868 128.725 46.2832 129.35C45.8861 129.968 45.3945 130.44 44.8086 130.766C44.2292 131.085 43.5684 131.244 42.8262 131.244C42.123 131.244 41.4948 131.091 40.9414 130.785C40.3945 130.473 39.9323 130.02 39.5547 129.428C39.1771 128.835 38.8906 128.109 38.6953 127.25C38.5 126.384 38.4023 125.395 38.4023 124.281C38.4023 123.057 38.5033 121.977 38.7051 121.039C38.9134 120.102 39.2161 119.317 39.6133 118.686C40.0104 118.048 40.502 117.569 41.0879 117.25C41.6803 116.924 42.3574 116.762 43.1191 116.762C46.0553 116.762 47.5234 119.154 47.5234 123.939ZM45.8828 124.096C45.8828 120.111 44.9355 118.119 43.041 118.119C41.0423 118.119 40.043 120.147 40.043 124.203C40.043 127.986 41.0228 129.877 42.9824 129.877C44.916 129.877 45.8828 127.95 45.8828 124.096ZM51.4297 128.773L49.8672 133.578H48.7246L49.8672 128.773H51.4297ZM62.6406 123.939C62.6406 125.111 62.5332 126.15 62.3184 127.055C62.11 127.96 61.804 128.725 61.4004 129.35C61.0033 129.968 60.5117 130.44 59.9258 130.766C59.3464 131.085 58.6855 131.244 57.9434 131.244C57.2402 131.244 56.612 131.091 56.0586 130.785C55.5117 130.473 55.0495 130.02 54.6719 129.428C54.2943 128.835 54.0078 128.109 53.8125 127.25C53.6172 126.384 53.5195 125.395 53.5195 124.281C53.5195 123.057 53.6204 121.977 53.8223 121.039C54.0306 120.102 54.3333 119.317 54.7305 118.686C55.1276 118.048 55.6191 117.569 56.2051 117.25C56.7975 116.924 57.4746 116.762 58.2363 116.762C61.1725 116.762 62.6406 119.154 62.6406 123.939ZM61 124.096C61 120.111 60.0527 118.119 58.1582 118.119C56.1595 118.119 55.1602 120.147 55.1602 124.203C55.1602 127.986 56.14 129.877 58.0996 129.877C60.0332 129.877 61 127.95 61 124.096ZM73.4219 123.939C73.4219 125.111 73.3145 126.15 73.0996 127.055C72.8913 127.96 72.5853 128.725 72.1816 129.35C71.7845 129.968 71.293 130.44 70.707 130.766C70.1276 131.085 69.4668 131.244 68.7246 131.244C68.0215 131.244 67.3932 131.091 66.8398 130.785C66.293 130.473 65.8307 130.02 65.4531 129.428C65.0755 128.835 64.7891 128.109 64.5938 127.25C64.3984 126.384 64.3008 125.395 64.3008 124.281C64.3008 123.057 64.4017 121.977 64.6035 121.039C64.8118 120.102 65.1146 119.317 65.5117 118.686C65.9089 118.048 66.4004 117.569 66.9863 117.25C67.5788 116.924 68.2559 116.762 69.0176 116.762C71.9538 116.762 73.4219 119.154 73.4219 123.939ZM71.7812 124.096C71.7812 120.111 70.834 118.119 68.9395 118.119C66.9408 118.119 65.9414 120.147 65.9414 124.203C65.9414 127.986 66.9212 129.877 68.8809 129.877C70.8145 129.877 71.7812 127.95 71.7812 124.096ZM84.2031 123.939C84.2031 125.111 84.0957 126.15 83.8809 127.055C83.6725 127.96 83.3665 128.725 82.9629 129.35C82.5658 129.968 82.0742 130.44 81.4883 130.766C80.9089 131.085 80.248 131.244 79.5059 131.244C78.8027 131.244 78.1745 131.091 77.6211 130.785C77.0742 130.473 76.612 130.02 76.2344 129.428C75.8568 128.835 75.5703 128.109 75.375 127.25C75.1797 126.384 75.082 125.395 75.082 124.281C75.082 123.057 75.1829 121.977 75.3848 121.039C75.5931 120.102 75.8958 119.317 76.293 118.686C76.6901 118.048 77.1816 117.569 77.7676 117.25C78.36 116.924 79.0371 116.762 79.7988 116.762C82.735 116.762 84.2031 119.154 84.2031 123.939ZM82.5625 124.096C82.5625 120.111 81.6152 118.119 79.7207 118.119C77.722 118.119 76.7227 120.147 76.7227 124.203C76.7227 127.986 77.7025 129.877 79.6621 129.877C81.5957 129.877 82.5625 127.95 82.5625 124.096ZM99.6133 131H92.3477V116.996H93.9883V129.516H99.6133V131ZM109.184 131H101.762V116.996H108.871V118.48H103.402V123.139H108.461V124.613H103.402V129.516H109.184V131Z" fill="white"/>
</g>
<defs>
<clipPath id="clip0_289_733">
<rect width="173" height="170" rx="16" fill="white"/>
</clipPath>
</defs>
</svg>
