<svg width="179" height="47" viewBox="0 0 179 47" fill="none" xmlns="http://www.w3.org/2000/svg">
<path d="M83.9863 0H9.3713C4.19567 0 0 4.19567 0 9.3713V36.9537C0 42.1293 4.19567 46.325 9.3713 46.325H83.9863C89.1619 46.325 93.3576 42.1293 93.3576 36.9537V9.3713C93.3576 4.19567 89.1619 0 83.9863 0Z" fill="#295298"/>
<path d="M9.57837 20.0288V16.7476H11.3801V14.521L15.9065 11.269V16.7476H18.5139V20.0288H15.9065V26.1665C15.9065 26.7231 15.9749 27.0991 16.1116 27.2944C16.2581 27.48 16.5852 27.5728 17.093 27.5728C17.5129 27.5728 17.9866 27.4751 18.5139 27.2798V30.4146C17.3518 30.8931 16.2141 31.1323 15.1008 31.1323C12.6204 31.1323 11.3801 29.9019 11.3801 27.4409V20.0288H9.57837ZM36.4143 27.6606V30.9272H29.6028V29.814C28.3821 30.6929 27.093 31.1323 25.7356 31.1323C24.3293 31.1323 23.1135 30.7319 22.0881 29.9312C21.0725 29.1304 20.5647 28.0562 20.5647 26.7085C20.5647 25.3511 21.1018 24.2134 22.176 23.2954C23.2502 22.3774 24.637 21.9185 26.3362 21.9185C27.2834 21.9185 28.3723 22.1577 29.6028 22.6362V21.772C29.6028 21.0493 29.3586 20.4585 28.8704 19.9995C28.3821 19.5308 27.7278 19.2964 26.9075 19.2964C25.8918 19.2964 25.0227 19.6675 24.3 20.4097L20.6526 19.7505C21.7073 17.5142 23.9973 16.396 27.5227 16.396C28.8899 16.396 30.0227 16.5522 30.9211 16.8647C31.8196 17.1675 32.4885 17.563 32.928 18.0513C33.3674 18.5396 33.675 19.0767 33.8508 19.6626C34.0364 20.2388 34.1292 21.1812 34.1292 22.4897V27.6606H36.4143ZM29.6028 25.6831C28.509 24.9995 27.635 24.6577 26.9807 24.6577C26.4631 24.6577 25.9895 24.8091 25.5598 25.1118C25.1399 25.4146 24.9299 25.854 24.9299 26.4302C24.9299 26.9478 25.1008 27.3921 25.4426 27.7632C25.7844 28.1343 26.2239 28.3198 26.761 28.3198C27.6008 28.3198 28.5481 27.8267 29.6028 26.8403V25.6831ZM44.2512 10.5513V18.3442C45.384 17.0454 46.7268 16.396 48.2795 16.396C50.0959 16.396 51.5706 17.0845 52.7034 18.4614C53.8459 19.8384 54.4172 21.6011 54.4172 23.7495C54.4172 26.0444 53.8459 27.8511 52.7034 29.1694C51.5706 30.478 50.135 31.1323 48.3967 31.1323C46.8342 31.1323 45.4524 30.522 44.2512 29.3013V30.9272H37.2639V27.6606H39.7249V13.8179H37.2639V10.5513H44.2512ZM49.7737 23.7202C49.7737 22.5093 49.5247 21.5962 49.0266 20.981C48.5286 20.3657 47.8694 20.0581 47.0491 20.0581C46.2678 20.0581 45.5989 20.3608 45.0422 20.9663C44.4856 21.5718 44.2073 22.5581 44.2073 23.9253C44.2073 25.0776 44.4661 25.981 44.9836 26.6353C45.511 27.2896 46.1848 27.6167 47.0051 27.6167C47.7961 27.6167 48.4553 27.2993 48.9827 26.6646C49.51 26.0298 49.7737 25.0483 49.7737 23.7202Z" fill="white"/>
<path d="M95.4971 19.1845V28.6211C95.4836 29.5294 95.2178 30.4161 94.7293 31.182C94.2407 31.9479 93.5488 32.5628 92.7308 32.958C92.2433 33.2002 91.7232 33.3701 91.1867 33.4624C90.8726 33.517 90.5544 33.5443 90.2356 33.5441H65.2439C64.099 33.569 62.9778 33.2154 62.0542 32.5382C61.1307 31.8611 60.4563 30.8981 60.1358 29.7987C60.1183 29.7329 60.1002 29.6676 60.0875 29.6061C60.0833 29.5854 60.0785 29.569 60.0742 29.5488C60.0125 29.2434 59.9816 28.9326 59.9819 28.6211V19.1845C59.9819 16.4644 62.3371 14.261 65.2439 14.261H90.2372C90.556 14.261 90.8742 14.2885 91.1883 14.3432C92.3624 14.5117 93.4391 15.0902 94.2276 15.9763C95.0162 16.8623 95.4659 17.9988 95.4971 19.1845Z" fill="#0D47A1"/>
<path d="M81.3951 23.6932C81.3952 25.1274 80.97 26.5294 80.1733 27.7219C79.3765 28.9145 78.2441 29.8439 76.9191 30.3928C75.5941 30.9417 74.1361 31.0854 72.7295 30.8056C71.3228 30.5258 70.0307 29.8352 69.0166 28.8211C68.0025 27.807 67.3119 26.5149 67.0321 25.1082C66.7524 23.7016 66.896 22.2436 67.4449 20.9186C67.9938 19.5936 68.9232 18.4612 70.1158 17.6644C71.3083 16.8677 72.7103 16.4425 74.1445 16.4426C76.0674 16.4428 77.9116 17.2067 79.2713 18.5664C80.631 19.9262 81.3949 21.7703 81.3951 23.6932Z" fill="#6FA3EF"/>
<path opacity="0.46" d="M81.395 23.3409L73.7928 30.9432C72.4927 30.8788 71.234 30.4652 70.1491 29.746C69.0642 29.0268 68.1931 28.0285 67.6274 26.8562L77.308 17.1746C78.4805 17.7403 79.4788 18.6115 80.1981 19.6967C80.9173 20.7818 81.3308 22.0407 81.395 23.3409Z" fill="white"/>
<path d="M116.168 11.4233H119.61V18.6011H116.168C115.191 16.0229 113.497 14.7339 111.085 14.7339C109.093 14.7339 107.584 15.4126 106.558 16.77C105.543 18.1274 105.035 19.7534 105.035 21.6479C105.035 23.6304 105.572 25.2368 106.646 26.4673C107.73 27.688 109.107 28.2983 110.777 28.2983C112.144 28.2983 113.341 27.8345 114.366 26.9067C115.391 25.979 116.085 24.6899 116.446 23.0396L120.46 24.9585C118.936 29.6851 115.582 32.0483 110.396 32.0483C106.734 32.0483 103.97 31.062 102.105 29.0894C100.25 27.1167 99.322 24.6216 99.322 21.604C99.322 19.4556 99.8054 17.5757 100.772 15.9644C101.739 14.353 103.038 13.1421 104.669 12.3315C106.309 11.5112 108.106 11.1011 110.059 11.1011C112.491 11.1011 114.527 11.7358 116.168 13.0054V11.4233ZM138.345 28.5327V31.7993H131.534V30.686C130.313 31.5649 129.024 32.0044 127.667 32.0044C126.26 32.0044 125.045 31.604 124.019 30.8032C123.004 30.0024 122.496 28.9282 122.496 27.5806C122.496 26.2231 123.033 25.0854 124.107 24.1675C125.181 23.2495 126.568 22.7905 128.267 22.7905C129.215 22.7905 130.303 23.0298 131.534 23.5083V22.644C131.534 21.9214 131.29 21.3306 130.802 20.8716C130.313 20.4028 129.659 20.1685 128.839 20.1685C127.823 20.1685 126.954 20.5396 126.231 21.2817L122.584 20.6226C123.638 18.3862 125.928 17.2681 129.454 17.2681C130.821 17.2681 131.954 17.4243 132.852 17.7368C133.751 18.0396 134.42 18.4351 134.859 18.9233C135.299 19.4116 135.606 19.9487 135.782 20.5347C135.968 21.1108 136.06 22.0532 136.06 23.3618V28.5327H138.345ZM131.534 26.5552C130.44 25.8716 129.566 25.5298 128.912 25.5298C128.394 25.5298 127.921 25.6812 127.491 25.9839C127.071 26.2866 126.861 26.7261 126.861 27.3022C126.861 27.8198 127.032 28.2642 127.374 28.6353C127.716 29.0063 128.155 29.1919 128.692 29.1919C129.532 29.1919 130.479 28.6987 131.534 27.7124V26.5552ZM140.513 31.7993V26.9214H143.824C143.853 27.5854 144.161 28.1177 144.747 28.5181C145.333 28.9087 146.055 29.104 146.915 29.104C147.657 29.104 148.233 28.9771 148.643 28.7231C149.063 28.4595 149.273 28.1274 149.273 27.7271C149.273 27.356 149.083 27.0679 148.702 26.8628C148.321 26.6577 147.574 26.4624 146.461 26.2769C144.166 25.9058 142.51 25.3442 141.495 24.5923C140.479 23.8306 139.971 22.8247 139.971 21.5747C139.971 20.4028 140.45 19.4165 141.407 18.6157C142.364 17.8052 143.634 17.3999 145.216 17.3999C146.495 17.3999 147.691 17.6343 148.804 18.103V17.6196H152.042V21.7358H148.804C148.511 20.7495 147.476 20.2563 145.699 20.2563C144.39 20.2563 143.736 20.6177 143.736 21.3403C143.736 21.6138 143.868 21.8237 144.132 21.9702C144.405 22.1069 145.094 22.2729 146.197 22.4683C147.945 22.771 149.254 23.0737 150.123 23.3765C150.992 23.6792 151.685 24.1821 152.203 24.8853C152.73 25.5786 152.994 26.4136 152.994 27.3901C152.994 28.7769 152.496 29.9146 151.5 30.8032C150.513 31.6821 149.112 32.1216 147.296 32.1216C145.606 32.1216 144.449 31.7798 143.824 31.0962V31.7993H140.513ZM154.884 31.7993V28.5327H157.169V14.6899H154.884V11.4233H161.68V18.7622C163.106 17.7661 164.449 17.2681 165.709 17.2681C168.609 17.2681 170.059 19.0112 170.059 22.4976V28.5327H172.139V31.7993H165.533V22.7026C165.533 22.0386 165.411 21.5845 165.167 21.3403C164.932 21.0864 164.576 20.9595 164.097 20.9595C163.424 20.9595 162.618 21.2573 161.68 21.853V28.5327H163.702V31.7993H154.884Z" fill="#0F4087"/>
</svg>
