<svg width="173" height="170" viewBox="0 0 173 170" fill="none" xmlns="http://www.w3.org/2000/svg">
<g clip-path="url(#clip0_279_995)">
<rect width="173" height="170" rx="16" fill="#DDE2FF"/>
<circle cx="140" cy="115" r="63" fill="#BCC6FF" fill-opacity="0.62"/>
<path d="M146.508 134.967C146.508 135.632 146.508 135.965 146.416 136.219C146.334 136.442 146.204 136.623 146.045 136.737C145.863 136.867 145.625 136.867 145.15 136.867H137.682C137.206 136.867 136.969 136.867 136.787 136.737C136.627 136.623 136.498 136.442 136.416 136.219C136.324 135.965 136.324 135.632 136.324 134.967V110.749H129.534L141.416 94.1293L153.298 110.749H146.508V134.967Z" fill="#0D47A1" fill-opacity="0.5"/>
<circle cx="-5" cy="7" r="85.5" stroke="#0D47A1" stroke-opacity="0.32"/>
<circle cx="29.5" cy="29.5" r="13.5" transform="rotate(-180 29.5 29.5)" fill="#C9D1FF"/>
<path d="M30.9509 34.8615C30.9509 35.0514 30.9509 35.1463 30.9237 35.2188C30.8998 35.2826 30.8616 35.3345 30.8146 35.367C30.7612 35.4039 30.6913 35.4039 30.5515 35.4039H28.3547C28.2149 35.4039 28.145 35.4039 28.0916 35.367C28.0446 35.3345 28.0064 35.2826 27.9825 35.2188C27.9553 35.1463 27.9553 35.0514 27.9553 34.8615V27.9452H25.9582L29.4531 23.1988L32.9481 27.9452H30.9509V34.8615Z" fill="#0D47A1" stroke="#074E97" stroke-opacity="0.5" stroke-linecap="round" stroke-linejoin="round"/>
<path d="M21.2363 104.164C19.8464 104.164 18.7321 103.706 17.8936 102.79C17.0596 101.874 16.6426 100.682 16.6426 99.2148C16.6426 97.638 17.0687 96.3802 17.9209 95.4414C18.7731 94.5026 19.9329 94.0332 21.4004 94.0332C22.7539 94.0332 23.8431 94.4889 24.668 95.4004C25.4974 96.3118 25.9121 97.5036 25.9121 98.9756C25.9121 100.575 25.4883 101.84 24.6406 102.77C23.793 103.699 22.6582 104.164 21.2363 104.164ZM21.3184 95.0723C20.2884 95.0723 19.4521 95.4437 18.8096 96.1865C18.167 96.9294 17.8457 97.9046 17.8457 99.1123C17.8457 100.32 18.1579 101.293 18.7822 102.031C19.4111 102.765 20.2292 103.132 21.2363 103.132C22.3118 103.132 23.1595 102.781 23.7793 102.079C24.3991 101.377 24.709 100.395 24.709 99.1328C24.709 97.8385 24.4082 96.8382 23.8066 96.1318C23.2051 95.4255 22.3757 95.0723 21.3184 95.0723ZM33.3496 104H32.2285V102.893H32.2012C31.7363 103.74 31.0163 104.164 30.041 104.164C28.373 104.164 27.5391 103.171 27.5391 101.184V97H28.6533V101.006C28.6533 102.482 29.2184 103.221 30.3486 103.221C30.8955 103.221 31.3444 103.02 31.6953 102.619C32.0508 102.214 32.2285 101.685 32.2285 101.033V97H33.3496V104ZM38.8662 103.932C38.6019 104.077 38.2533 104.15 37.8203 104.15C36.5944 104.15 35.9814 103.467 35.9814 102.1V97.957H34.7783V97H35.9814V95.291L37.1025 94.9287V97H38.8662V97.957H37.1025V101.901C37.1025 102.371 37.1823 102.706 37.3418 102.906C37.5013 103.107 37.7656 103.207 38.1348 103.207C38.4173 103.207 38.6611 103.13 38.8662 102.975V103.932ZM45.1348 103.679C44.597 104.002 43.959 104.164 43.2207 104.164C42.2227 104.164 41.416 103.84 40.8008 103.193C40.1901 102.542 39.8848 101.699 39.8848 100.664C39.8848 99.5111 40.2152 98.5859 40.876 97.8887C41.5368 97.1868 42.4186 96.8359 43.5215 96.8359C44.1367 96.8359 44.679 96.9499 45.1484 97.1777V98.3262C44.6289 97.9616 44.0729 97.7793 43.4805 97.7793C42.765 97.7793 42.1771 98.0368 41.7168 98.5518C41.2611 99.0622 41.0332 99.7344 41.0332 100.568C41.0332 101.389 41.2474 102.036 41.6758 102.51C42.1087 102.984 42.6875 103.221 43.4121 103.221C44.0228 103.221 44.597 103.018 45.1348 102.612V103.679ZM49.7559 104.164C48.7214 104.164 47.8942 103.838 47.2744 103.187C46.6592 102.53 46.3516 101.662 46.3516 100.582C46.3516 99.4062 46.6729 98.488 47.3154 97.8271C47.958 97.1663 48.8262 96.8359 49.9199 96.8359C50.9635 96.8359 51.777 97.1572 52.3604 97.7998C52.9482 98.4424 53.2422 99.3333 53.2422 100.473C53.2422 101.589 52.9255 102.485 52.292 103.159C51.6631 103.829 50.8177 104.164 49.7559 104.164ZM49.8379 97.7793C49.1178 97.7793 48.5482 98.0254 48.1289 98.5176C47.7096 99.0052 47.5 99.6797 47.5 100.541C47.5 101.37 47.7119 102.024 48.1357 102.503C48.5596 102.981 49.127 103.221 49.8379 103.221C50.5625 103.221 51.1185 102.986 51.5059 102.517C51.8978 102.047 52.0938 101.38 52.0938 100.514C52.0938 99.6387 51.8978 98.9642 51.5059 98.4902C51.1185 98.0163 50.5625 97.7793 49.8379 97.7793ZM64.9727 104H63.8516V99.9805C63.8516 99.2057 63.7308 98.6452 63.4893 98.2988C63.2523 97.9525 62.8512 97.7793 62.2861 97.7793C61.8076 97.7793 61.3997 97.998 61.0625 98.4355C60.7298 98.873 60.5635 99.3971 60.5635 100.008V104H59.4424V99.8438C59.4424 98.4674 58.9115 97.7793 57.8496 97.7793C57.3574 97.7793 56.9518 97.9867 56.6328 98.4014C56.3138 98.8115 56.1543 99.347 56.1543 100.008V104H55.0332V97H56.1543V98.1074H56.1816C56.6784 97.2598 57.403 96.8359 58.3555 96.8359C58.834 96.8359 59.251 96.9704 59.6064 97.2393C59.9619 97.5036 60.2057 97.8522 60.3379 98.2852C60.8574 97.319 61.6322 96.8359 62.6621 96.8359C64.2025 96.8359 64.9727 97.7861 64.9727 99.6865V104ZM72.7178 100.78H67.7754C67.7936 101.56 68.0033 102.161 68.4043 102.585C68.8053 103.009 69.3568 103.221 70.0586 103.221C70.847 103.221 71.5716 102.961 72.2324 102.441V103.494C71.6172 103.941 70.8037 104.164 69.792 104.164C68.8031 104.164 68.026 103.847 67.4609 103.214C66.8958 102.576 66.6133 101.68 66.6133 100.527C66.6133 99.4382 66.9209 98.5518 67.5361 97.8682C68.1559 97.18 68.9238 96.8359 69.8398 96.8359C70.7559 96.8359 71.4645 97.1322 71.9658 97.7246C72.4671 98.3171 72.7178 99.1396 72.7178 100.192V100.78ZM71.5693 99.8301C71.5648 99.1829 71.4076 98.6794 71.0977 98.3193C70.7923 97.9593 70.3662 97.7793 69.8193 97.7793C69.2907 97.7793 68.8418 97.9684 68.4727 98.3467C68.1035 98.7249 67.8757 99.2194 67.7891 99.8301H71.5693Z" fill="black" fill-opacity="0.4"/>
<path d="M23.0703 131H21.4688V118.9C21.3451 119.024 21.1628 119.167 20.9219 119.33C20.6875 119.486 20.4206 119.643 20.1211 119.799C19.8281 119.955 19.5156 120.102 19.1836 120.238C18.8581 120.375 18.5391 120.482 18.2266 120.561V118.939C18.5781 118.842 18.9492 118.712 19.3398 118.549C19.737 118.38 20.1243 118.194 20.502 117.992C20.8861 117.784 21.2474 117.569 21.5859 117.348C21.9245 117.12 22.2174 116.898 22.4648 116.684H23.0703V131ZM34.3203 120.668C34.3203 120.238 34.252 119.864 34.1152 119.545C33.985 119.226 33.8027 118.962 33.5684 118.754C33.3405 118.539 33.0703 118.38 32.7578 118.275C32.4453 118.171 32.1068 118.119 31.7422 118.119C31.4297 118.119 31.1237 118.161 30.8242 118.246C30.5247 118.331 30.2318 118.448 29.9453 118.598C29.6654 118.747 29.3919 118.926 29.125 119.135C28.8646 119.343 28.6204 119.574 28.3926 119.828V118.109C28.8418 117.673 29.3431 117.341 29.8965 117.113C30.4564 116.879 31.1367 116.762 31.9375 116.762C32.5104 116.762 33.041 116.846 33.5293 117.016C34.0176 117.178 34.4408 117.419 34.7988 117.738C35.1569 118.057 35.4368 118.451 35.6387 118.92C35.847 119.389 35.9512 119.926 35.9512 120.531C35.9512 121.085 35.8861 121.586 35.7559 122.035C35.6322 122.484 35.4401 122.908 35.1797 123.305C34.9258 123.702 34.6035 124.083 34.2129 124.447C33.8223 124.812 33.3633 125.183 32.8359 125.561C32.1784 126.029 31.6348 126.43 31.2051 126.762C30.7819 127.094 30.4434 127.406 30.1895 127.699C29.9421 127.986 29.7663 128.275 29.6621 128.568C29.5645 128.855 29.5156 129.187 29.5156 129.564H36.4883V131H27.8457V130.307C27.8457 129.708 27.9108 129.18 28.041 128.725C28.1712 128.269 28.3861 127.836 28.6855 127.426C28.985 127.016 29.3757 126.605 29.8574 126.195C30.3457 125.785 30.9414 125.323 31.6445 124.809C32.1523 124.444 32.5755 124.096 32.9141 123.764C33.2591 123.432 33.5358 123.1 33.7441 122.768C33.9525 122.436 34.099 122.1 34.1836 121.762C34.2747 121.417 34.3203 121.052 34.3203 120.668ZM47.5234 123.939C47.5234 125.111 47.416 126.15 47.2012 127.055C46.9928 127.96 46.6868 128.725 46.2832 129.35C45.8861 129.968 45.3945 130.44 44.8086 130.766C44.2292 131.085 43.5684 131.244 42.8262 131.244C42.123 131.244 41.4948 131.091 40.9414 130.785C40.3945 130.473 39.9323 130.02 39.5547 129.428C39.1771 128.835 38.8906 128.109 38.6953 127.25C38.5 126.384 38.4023 125.395 38.4023 124.281C38.4023 123.057 38.5033 121.977 38.7051 121.039C38.9134 120.102 39.2161 119.317 39.6133 118.686C40.0104 118.048 40.502 117.569 41.0879 117.25C41.6803 116.924 42.3574 116.762 43.1191 116.762C46.0553 116.762 47.5234 119.154 47.5234 123.939ZM45.8828 124.096C45.8828 120.111 44.9355 118.119 43.041 118.119C41.0423 118.119 40.043 120.147 40.043 124.203C40.043 127.986 41.0228 129.877 42.9824 129.877C44.916 129.877 45.8828 127.95 45.8828 124.096ZM51.4297 128.773L49.8672 133.578H48.7246L49.8672 128.773H51.4297ZM62.6406 123.939C62.6406 125.111 62.5332 126.15 62.3184 127.055C62.11 127.96 61.804 128.725 61.4004 129.35C61.0033 129.968 60.5117 130.44 59.9258 130.766C59.3464 131.085 58.6855 131.244 57.9434 131.244C57.2402 131.244 56.612 131.091 56.0586 130.785C55.5117 130.473 55.0495 130.02 54.6719 129.428C54.2943 128.835 54.0078 128.109 53.8125 127.25C53.6172 126.384 53.5195 125.395 53.5195 124.281C53.5195 123.057 53.6204 121.977 53.8223 121.039C54.0306 120.102 54.3333 119.317 54.7305 118.686C55.1276 118.048 55.6191 117.569 56.2051 117.25C56.7975 116.924 57.4746 116.762 58.2363 116.762C61.1725 116.762 62.6406 119.154 62.6406 123.939ZM61 124.096C61 120.111 60.0527 118.119 58.1582 118.119C56.1595 118.119 55.1602 120.147 55.1602 124.203C55.1602 127.986 56.14 129.877 58.0996 129.877C60.0332 129.877 61 127.95 61 124.096ZM73.4219 123.939C73.4219 125.111 73.3145 126.15 73.0996 127.055C72.8913 127.96 72.5853 128.725 72.1816 129.35C71.7845 129.968 71.293 130.44 70.707 130.766C70.1276 131.085 69.4668 131.244 68.7246 131.244C68.0215 131.244 67.3932 131.091 66.8398 130.785C66.293 130.473 65.8307 130.02 65.4531 129.428C65.0755 128.835 64.7891 128.109 64.5938 127.25C64.3984 126.384 64.3008 125.395 64.3008 124.281C64.3008 123.057 64.4017 121.977 64.6035 121.039C64.8118 120.102 65.1146 119.317 65.5117 118.686C65.9089 118.048 66.4004 117.569 66.9863 117.25C67.5788 116.924 68.2559 116.762 69.0176 116.762C71.9538 116.762 73.4219 119.154 73.4219 123.939ZM71.7812 124.096C71.7812 120.111 70.834 118.119 68.9395 118.119C66.9408 118.119 65.9414 120.147 65.9414 124.203C65.9414 127.986 66.9212 129.877 68.8809 129.877C70.8145 129.877 71.7812 127.95 71.7812 124.096ZM84.2031 123.939C84.2031 125.111 84.0957 126.15 83.8809 127.055C83.6725 127.96 83.3665 128.725 82.9629 129.35C82.5658 129.968 82.0742 130.44 81.4883 130.766C80.9089 131.085 80.248 131.244 79.5059 131.244C78.8027 131.244 78.1745 131.091 77.6211 130.785C77.0742 130.473 76.612 130.02 76.2344 129.428C75.8568 128.835 75.5703 128.109 75.375 127.25C75.1797 126.384 75.082 125.395 75.082 124.281C75.082 123.057 75.1829 121.977 75.3848 121.039C75.5931 120.102 75.8958 119.317 76.293 118.686C76.6901 118.048 77.1816 117.569 77.7676 117.25C78.36 116.924 79.0371 116.762 79.7988 116.762C82.735 116.762 84.2031 119.154 84.2031 123.939ZM82.5625 124.096C82.5625 120.111 81.6152 118.119 79.7207 118.119C77.722 118.119 76.7227 120.147 76.7227 124.203C76.7227 127.986 77.7025 129.877 79.6621 129.877C81.5957 129.877 82.5625 127.95 82.5625 124.096ZM99.6133 131H92.3477V116.996H93.9883V129.516H99.6133V131ZM109.184 131H101.762V116.996H108.871V118.48H103.402V123.139H108.461V124.613H103.402V129.516H109.184V131Z" fill="black"/>
</g>
<defs>
<clipPath id="clip0_279_995">
<rect width="173" height="170" rx="16" fill="white"/>
</clipPath>
</defs>
</svg>
