<svg width="227" height="230" viewBox="0 0 227 230" fill="none" xmlns="http://www.w3.org/2000/svg">
<g clip-path="url(#clip0_138_3638)">
<path d="M14.0867 11.8338H11.5867V14.3338V50.1683C11.5867 51.42 11.0976 52.6118 10.2407 53.4838C9.38514 54.3543 8.23414 54.8352 7.04334 54.8352C5.85254 54.8352 4.70154 54.3543 3.84602 53.4838C2.98905 52.6118 2.5 51.42 2.5 50.1683V7.16691C2.5 5.91527 2.98905 4.72347 3.84602 3.85147C4.70154 2.98094 5.85254 2.5 7.04334 2.5H49.3034C50.4942 2.5 51.6452 2.98093 52.5007 3.85147C53.3577 4.72347 53.8467 5.91527 53.8467 7.16691C53.8467 8.41854 53.3577 9.61034 52.5007 10.4823C51.6452 11.3529 50.4942 11.8338 49.3034 11.8338H14.0867ZM213.8 11.8338H211.3H176.083C174.893 11.8338 173.742 11.3529 172.886 10.4823C172.029 9.61033 171.54 8.41853 171.54 7.16691C171.54 5.91529 172.029 4.72348 172.886 3.85146C173.742 2.98093 174.893 2.5 176.083 2.5H218.343C219.534 2.5 220.685 2.98094 221.541 3.85146C222.398 4.72346 222.887 5.91526 222.887 7.16691V50.1683C222.887 51.42 222.398 52.6118 221.541 53.4838C220.685 54.3543 219.534 54.8352 218.343 54.8352C217.153 54.8352 216.002 54.3543 215.146 53.4838C214.289 52.6118 213.8 51.42 213.8 50.1683V14.3338V11.8338ZM11.5867 215.007V217.507H14.0867H49.3034C50.4942 217.507 51.6452 217.988 52.5007 218.859C53.3577 219.731 53.8467 220.922 53.8467 222.174C53.8467 223.426 53.3577 224.617 52.5007 225.49C51.6452 226.36 50.4942 226.841 49.3034 226.841H7.04334C5.85255 226.841 4.70155 226.36 3.84602 225.49C2.98904 224.617 2.5 223.426 2.5 222.174V179.173C2.5 177.921 2.98904 176.729 3.84602 175.857C4.70154 174.987 5.85254 174.506 7.04334 174.506C8.23414 174.506 9.38514 174.987 10.2407 175.857C11.0976 176.729 11.5867 177.921 11.5867 179.173V215.007ZM211.3 217.507H213.8V215.007V179.173C213.8 177.921 214.289 176.729 215.146 175.857C216.002 174.987 217.153 174.506 218.343 174.506C219.534 174.506 220.685 174.987 221.541 175.857C222.398 176.729 222.887 177.921 222.887 179.173V222.174C222.887 223.426 222.398 224.618 221.541 225.49C220.685 226.36 219.534 226.841 218.343 226.841H176.083C174.893 226.841 173.742 226.36 172.886 225.49C172.029 224.617 171.54 223.426 171.54 222.174C171.54 220.922 172.029 219.731 172.886 218.859C173.742 217.988 174.893 217.507 176.083 217.507H211.3ZM58.8467 59.8352H67.9334V69.1691H58.8467V59.8352Z" stroke="#0D47A1" stroke-width="5"/>
<g filter="url(#filter0_d_138_3638)">
<path d="M4.39526 111.705L223.534 109.788" stroke="#0D47A1" stroke-opacity="0.7" stroke-width="7" stroke-linecap="round" stroke-linejoin="round" shape-rendering="crispEdges"/>
</g>
</g>
<path d="M97.426 25.702H21.0889V102.039H97.426V25.702ZM36.3563 40.9695H82.1586V86.7717H36.3563V40.9695ZM66.8912 163.109H51.6237V178.376H66.8912V163.109Z" fill="#0B0C0C" fill-opacity="0.9"/>
<path d="M97.426 132.574H21.0889V208.911H97.426V132.574ZM36.3563 147.842H82.1586V193.644H36.3563V147.842ZM158.496 56.2369H173.763V71.5044H158.496V56.2369Z" fill="#0B0C0C" fill-opacity="0.9"/>
<path d="M127.961 25.702H204.298V102.039H127.961V25.702ZM143.228 40.9695V86.7717H189.031V40.9695H143.228ZM112.693 117.307V147.841H127.961V163.109H112.693V178.376H143.228V147.841H158.496V178.376H173.763V163.109H204.298V147.841H158.496V117.307H112.693ZM143.228 147.841H127.961V132.574H143.228V147.841ZM204.298 178.376H189.031V193.644H158.496V208.911H204.298V178.376ZM143.228 208.911V193.644H112.693V208.911H143.228Z" fill="#0B0C0C" fill-opacity="0.9"/>
<path d="M173.763 132.574H204.298V117.307H173.763V132.574Z" fill="#0B0C0C" fill-opacity="0.9"/>
<defs>
<filter id="filter0_d_138_3638" x="-3.10474" y="106.288" width="234.139" height="16.9166" filterUnits="userSpaceOnUse" color-interpolation-filters="sRGB">
<feFlood flood-opacity="0" result="BackgroundImageFix"/>
<feColorMatrix in="SourceAlpha" type="matrix" values="0 0 0 0 0 0 0 0 0 0 0 0 0 0 0 0 0 0 127 0" result="hardAlpha"/>
<feOffset dy="4"/>
<feGaussianBlur stdDeviation="2"/>
<feComposite in2="hardAlpha" operator="out"/>
<feColorMatrix type="matrix" values="0 0 0 0 0.0509804 0 0 0 0 0.278431 0 0 0 0 0.631373 0 0 0 0.5 0"/>
<feBlend mode="normal" in2="BackgroundImageFix" result="effect1_dropShadow_138_3638"/>
<feBlend mode="normal" in="SourceGraphic" in2="effect1_dropShadow_138_3638" result="shape"/>
</filter>
<clipPath id="clip0_138_3638">
<rect width="226.046" height="230" fill="white"/>
</clipPath>
</defs>
</svg>
