<svg width="23" height="24" viewBox="0 0 23 24" fill="none" xmlns="http://www.w3.org/2000/svg">
<path d="M11.5 0.281982C9.22552 0.281982 7.00211 0.956446 5.11095 2.22008C3.21978 3.48372 1.7458 5.27977 0.875391 7.38112C0.00498277 9.48247 -0.222756 11.7947 0.220974 14.0255C0.664704 16.2563 1.75997 18.3054 3.36828 19.9137C4.97658 21.522 7.02568 22.6173 9.25647 23.061C11.4872 23.5047 13.7995 23.277 15.9009 22.4066C18.0022 21.5362 19.7983 20.0622 21.0619 18.171C22.3255 16.2799 23 14.0565 23 11.782C23 8.73199 21.7884 5.80692 19.6317 3.65025C17.4751 1.49359 14.55 0.281982 11.5 0.281982ZM11.5 3.73198C12.1824 3.73198 12.8494 3.93432 13.4167 4.31341C13.9841 4.6925 14.4263 5.23132 14.6874 5.86172C14.9485 6.49213 15.0168 7.18581 14.8837 7.85504C14.7506 8.52428 14.422 9.13901 13.9395 9.6215C13.457 10.104 12.8423 10.4326 12.1731 10.5657C11.5038 10.6988 10.8102 10.6305 10.1797 10.3694C9.54934 10.1082 9.01053 9.66605 8.63143 9.0987C8.25234 8.53135 8.05 7.86433 8.05 7.18198C8.04935 6.72874 8.13813 6.27982 8.31128 5.86095C8.48442 5.44208 8.73852 5.06149 9.05902 4.741C9.37951 4.4205 9.7601 4.1664 10.179 3.99326C10.5978 3.82011 11.0468 3.73132 11.5 3.73198ZM11.5 20.062C10.1339 20.0622 8.78902 19.7245 7.58511 19.0789C6.38121 18.4334 5.35571 17.5 4.60001 16.362C4.635 14.074 9.2 12.82 11.5 12.82C13.8 12.82 18.366 14.074 18.4 16.362C17.6443 17.5 16.6188 18.4334 15.4149 19.0789C14.211 19.7245 12.8661 20.0622 11.5 20.062Z" fill="black"/>
<path d="M4.09769 16.5094L4.10006 16.3543C4.11156 15.6028 4.49734 14.9753 5.02758 14.4784C5.55572 13.9836 6.26049 13.5843 7.00767 13.2717C8.5 12.6474 10.2817 12.32 11.5 12.32C12.7183 12.32 14.5002 12.6474 15.9927 13.2717C16.7399 13.5843 17.4448 13.9835 17.9729 14.4785C18.5031 14.9753 18.8888 15.6029 18.9 16.3546L18.9023 16.5095L18.8165 16.6386C18.0152 17.8453 16.9278 18.835 15.6512 19.5196C14.3746 20.2041 12.9486 20.5622 11.5001 20.562L4.09769 16.5094ZM4.09769 16.5094L4.18348 16.6386M4.09769 16.5094L4.18348 16.6386M4.18348 16.6386C4.98481 17.8453 6.07223 18.835 7.34882 19.5196C8.62537 20.2041 10.0514 20.5622 11.4999 20.562L4.18348 16.6386ZM11.5004 3.23198C12.2815 3.23206 13.045 3.46372 13.6945 3.89768C14.3441 4.33171 14.8504 4.94862 15.1493 5.67038C15.4483 6.39215 15.5265 7.18636 15.3741 7.95259C15.2217 8.71881 14.8455 9.42264 14.2931 9.97505C13.7407 10.5275 13.0368 10.9037 12.2706 11.0561C11.5044 11.2085 10.7102 11.1303 9.98841 10.8313C9.26664 10.5323 8.64973 10.0261 8.2157 9.37648C7.78174 8.72702 7.55008 7.96348 7.55 7.18238M11.5004 3.23198C10.9815 3.23127 10.4675 3.33294 9.98796 3.53118C9.5083 3.72945 9.07247 4.02043 8.70547 4.38744C8.33846 4.75445 8.04748 5.19028 7.8492 5.66994C7.65097 6.1495 7.54929 6.66347 7.55 7.18238M11.5004 3.23198C11.5005 3.23198 11.5006 3.23198 11.5007 3.23198L11.5 3.73198V3.23198C11.5001 3.23198 11.5003 3.23198 11.5004 3.23198ZM7.55 7.18238C7.55 7.18249 7.55001 7.1826 7.55001 7.18271L8.05 7.18198H7.55C7.55 7.18212 7.55 7.18225 7.55 7.18238ZM5.38873 2.63582C7.19767 1.42712 9.32441 0.781982 11.5 0.781982C14.4174 0.781982 17.2153 1.94091 19.2782 4.00381C21.3411 6.06671 22.5 8.8646 22.5 11.782C22.5 13.9576 21.8549 16.0843 20.6462 17.8933C19.4375 19.7022 17.7195 21.1121 15.7095 21.9447C13.6995 22.7772 11.4878 22.9951 9.35401 22.5706C7.22022 22.1462 5.26021 21.0985 3.72183 19.5602C2.18345 18.0218 1.1358 16.0618 0.711367 13.928C0.28693 11.7942 0.504766 9.58245 1.33733 7.57246C2.16989 5.56248 3.57979 3.84451 5.38873 2.63582Z" stroke="black" stroke-opacity="0.2"/>
</svg>
