<svg width="25" height="24" viewBox="0 0 25 24" fill="none" xmlns="http://www.w3.org/2000/svg">
<path d="M22.681 10.76H13.961V1.98C13.961 1.59649 13.8086 1.2287 13.5374 0.95752C13.2663 0.686343 12.8985 0.533997 12.515 0.533997C12.1315 0.533997 11.7637 0.686343 11.4925 0.95752C11.2213 1.2287 11.069 1.59649 11.069 1.98V10.76H2.34897C2.06184 10.7618 1.78165 10.8484 1.54364 11.009C1.30562 11.1696 1.1204 11.397 1.01128 11.6626C0.902159 11.9282 0.874003 12.2202 0.930352 12.5017C0.986701 12.7833 1.12504 13.0419 1.32797 13.245C1.4614 13.3803 1.62035 13.4878 1.7956 13.5613C1.97086 13.6347 2.15894 13.6727 2.34897 13.673H11.069V22.453C11.069 22.8384 11.2218 23.2081 11.494 23.481C11.6274 23.6163 11.7863 23.7238 11.9616 23.7973C12.1369 23.8707 12.3249 23.9087 12.515 23.909C12.8995 23.9066 13.2674 23.7521 13.5384 23.4793C13.8093 23.2065 13.9612 22.8375 13.961 22.453V13.673H22.681C23.0671 13.673 23.4375 13.5196 23.7105 13.2465C23.9836 12.9735 24.137 12.6032 24.137 12.217C24.137 11.8308 23.9836 11.4605 23.7105 11.1874C23.4375 10.9144 23.0671 10.76 22.681 10.76Z" fill="#0D47A1"/>
</svg>
