<svg width="11" height="10" viewBox="0 0 11 10" fill="none" xmlns="http://www.w3.org/2000/svg">
<path d="M0.0700128 3.05599V2.71999C0.0700128 2.58552 0.123429 2.45657 0.21851 2.36149C0.313591 2.2664 0.442548 2.21299 0.577013 2.21299H8.17701V1.19899C8.17721 1.09886 8.20705 1.00103 8.26278 0.917841C8.3185 0.83465 8.39761 0.769821 8.49013 0.73153C8.58265 0.693239 8.68443 0.683201 8.78265 0.70268C8.88086 0.72216 8.97111 0.770286 9.04201 0.840989L10.731 2.52999C10.8261 2.62507 10.8795 2.75403 10.8795 2.88849C10.8795 3.02295 10.8261 3.15191 10.731 3.24699L9.04501 4.93599C8.97411 5.00669 8.88386 5.05482 8.78565 5.0743C8.68743 5.09378 8.58565 5.08374 8.49313 5.04545C8.40061 5.00716 8.3215 4.94233 8.26578 4.85914C8.21005 4.77595 8.18021 4.67812 8.18001 4.57799V3.56399H0.577013C0.510348 3.56399 0.444338 3.55084 0.382761 3.5253C0.321184 3.49976 0.265248 3.46232 0.218156 3.41514C0.171063 3.36795 0.133739 3.31194 0.108318 3.25032C0.0828982 3.18869 0.0698813 3.12265 0.0700128 3.05599ZM10.376 6.26599H2.77001V5.25599C2.76981 5.15586 2.73997 5.05803 2.68425 4.97484C2.62853 4.89165 2.54942 4.82682 2.4569 4.78853C2.36438 4.75024 2.26259 4.7402 2.16438 4.75968C2.06616 4.77916 1.97591 4.82729 1.90501 4.89799L0.218013 6.58499C0.122934 6.68007 0.069519 6.80903 0.069519 6.94349C0.069519 7.07795 0.122934 7.20691 0.218013 7.30199L1.90701 8.99099C1.97791 9.06169 2.06816 9.10982 2.16638 9.1293C2.26459 9.14878 2.36638 9.13874 2.4589 9.10045C2.55142 9.06216 2.63053 8.99733 2.68625 8.91414C2.74197 8.83095 2.77181 8.73312 2.77201 8.63299V7.61899H10.372C10.5065 7.61899 10.6354 7.56557 10.7305 7.47049C10.8256 7.37541 10.879 7.24645 10.879 7.11199V6.77399C10.8788 6.64039 10.8258 6.51229 10.7316 6.41754C10.6374 6.32279 10.5096 6.26904 10.376 6.26799V6.26599Z" fill="white"/>
</svg>
