<svg width="30" height="28" viewBox="0 0 30 28" fill="none" xmlns="http://www.w3.org/2000/svg">
<path d="M1.6238 8.63399C2.34185 7.90797 3.31432 7.50077 4.32738 7.5H25.6726C26.6857 7.50077 27.6582 7.90797 28.3762 8.63399C29.0945 9.36024 29.4993 10.3462 29.5 11.3756V23.6244C29.4993 24.6538 29.0945 25.6398 28.3762 26.366C27.6581 27.0921 26.6856 27.4993 25.6725 27.5H4.32754C3.31443 27.4993 2.34188 27.0921 1.6238 26.366C0.905575 25.6398 0.500766 24.6539 0.5 23.6246V11.3754C0.500766 10.3461 0.905575 9.3602 1.6238 8.63399Z" fill="#0D47A1" stroke="#0D47A1"/>
<path d="M21.0243 0.566786L21.0243 0.566839L21.0314 0.565222C21.4944 0.460632 21.9741 0.482032 22.4283 0.627986C22.8772 0.772274 23.29 1.03478 23.6283 1.39591C24.1905 2.10612 24.5023 3.01523 24.5 3.95965V3.96089V5.03786H4.51538C3.79648 4.99391 3.07793 5.11639 2.40871 5.39599C2.2901 5.44554 2.17358 5.4998 2.05937 5.55859C2.17104 5.41577 2.29696 5.27773 2.43486 5.14584C3.0012 4.60417 3.70658 4.22877 4.25265 4.09774L21.0243 0.566786Z" fill="#0D47A1" stroke="#0D47A1"/>
<g clip-path="url(#clip0_349_774)">
<path d="M18.8143 18.3005C18.126 17.7928 17.3437 17.4454 16.5191 17.2812L15.7362 17.0859V13.55L15.8421 13.5958C16.1535 13.7655 16.4168 14.0196 16.6049 14.3322C16.793 14.6448 16.8992 15.0047 16.9126 15.375H19.577C19.5892 14.7179 19.453 14.0672 19.1796 13.4771C18.9062 12.8869 18.5036 12.3742 18.0052 11.9818C17.3332 11.4608 16.5568 11.1103 15.7362 10.9573V9H13.2544V10.8974C12.2527 10.982 11.3003 11.3928 10.5284 12.0734C10.1057 12.4617 9.76894 12.9437 9.54214 13.4851C9.31534 14.0266 9.20405 14.6142 9.21617 15.2062C9.17453 15.7916 9.2759 16.3784 9.51053 16.9103C9.74517 17.4423 10.1052 17.9014 10.556 18.2438C11.3935 18.7446 12.3055 19.0909 13.253 19.2677V23.099C12.8273 22.9933 12.4426 22.7519 12.1509 22.4073C11.8428 22.0089 11.6653 21.5154 11.6452 21.001H9C8.96926 21.6558 9.08988 22.3086 9.3514 22.9029C9.61292 23.4973 10.0075 24.0153 10.5009 24.412C11.3057 25.0437 12.2572 25.4331 13.2544 25.5391V27H15.7362V25.5625C16.7802 25.4722 17.7748 25.0538 18.5922 24.3609C19.0401 23.9759 19.3994 23.4882 19.6429 22.9348C19.8865 22.3813 20.0079 21.7765 19.998 21.1661C20.029 20.6235 19.9379 20.0809 19.7321 19.5827C19.5263 19.0846 19.2118 18.6451 18.8143 18.3005ZM12.4272 16.1187C12.228 16.0177 12.0608 15.8575 11.9461 15.6578C11.8314 15.458 11.7741 15.2273 11.7811 14.9937C11.7744 14.7385 11.8315 14.4859 11.9466 14.2614C12.0618 14.037 12.231 13.8487 12.437 13.7156C12.6875 13.547 12.9643 13.4268 13.2544 13.3604V16.4443C12.9688 16.3662 12.6916 16.2572 12.4272 16.1187ZM16.141 23.0214C16.0082 23.0682 15.8729 23.1065 15.7357 23.1359V19.875C16.0881 19.9759 16.4273 20.1225 16.7456 20.3115C16.9259 20.4184 17.0753 20.5753 17.1777 20.7652C17.28 20.9552 17.3316 21.171 17.3267 21.3896C17.3352 21.764 17.2223 22.1301 17.0066 22.4271C16.791 22.7241 16.4856 22.934 16.1415 23.0219L16.141 23.0214Z" fill="white"/>
</g>
<rect x="9.5" y="9.5" width="10" height="17" stroke="#0D47A1"/>
<defs>
<clipPath id="clip0_349_774">
<rect x="9" y="9" width="11" height="18" fill="white"/>
</clipPath>
</defs>
</svg>
