<svg width="65" height="115" viewBox="0 0 65 115" fill="none" xmlns="http://www.w3.org/2000/svg">
<path d="M25.6394 90.5605C24.863 90.9707 23.8962 91.1758 22.739 91.1758C21.2449 91.1758 20.0486 90.6948 19.1501 89.7329C18.2517 88.771 17.8025 87.5088 17.8025 85.9463C17.8025 84.2666 18.3079 82.9092 19.3186 81.874C20.3293 80.8389 21.6111 80.3213 23.1638 80.3213C24.1599 80.3213 24.9851 80.4653 25.6394 80.7534V82.0645C24.8875 81.6445 24.0574 81.4346 23.1492 81.4346C21.9431 81.4346 20.9641 81.8374 20.2122 82.6431C19.4651 83.4487 19.0916 84.5254 19.0916 85.873C19.0916 87.1523 19.4407 88.1729 20.1389 88.9346C20.842 89.6914 21.7625 90.0698 22.9001 90.0698C23.9548 90.0698 24.8679 89.8354 25.6394 89.3667V90.5605ZM32.9856 91H31.7844V89.8281H31.7551C31.2327 90.7266 30.4636 91.1758 29.448 91.1758C28.7009 91.1758 28.115 90.978 27.6902 90.5825C27.2703 90.187 27.0603 89.6621 27.0603 89.0078C27.0603 87.6064 27.8855 86.791 29.5359 86.5615L31.7844 86.2466C31.7844 84.9722 31.2693 84.335 30.239 84.335C29.3357 84.335 28.5203 84.6426 27.7927 85.2578V84.0273C28.53 83.5586 29.3796 83.3242 30.3416 83.3242C32.1042 83.3242 32.9856 84.2568 32.9856 86.1221V91ZM31.7844 87.2061L29.9753 87.4551C29.4187 87.5332 28.9988 87.6724 28.7156 87.8726C28.4324 88.0679 28.2908 88.417 28.2908 88.9199C28.2908 89.2861 28.4202 89.5864 28.679 89.8208C28.9426 90.0503 29.2917 90.165 29.7263 90.165C30.322 90.165 30.8127 89.9575 31.1985 89.5425C31.5891 89.1226 31.7844 88.5928 31.7844 87.9531V87.2061ZM34.7947 90.729V89.4399C35.449 89.9233 36.1692 90.165 36.9553 90.165C38.01 90.165 38.5374 89.8135 38.5374 89.1104C38.5374 88.9102 38.491 88.7417 38.3982 88.605C38.3103 88.4634 38.1882 88.3389 38.032 88.2314C37.8806 88.124 37.7 88.0288 37.49 87.9458C37.2849 87.8579 37.0627 87.7676 36.8235 87.6748C36.4915 87.543 36.1985 87.4111 35.9446 87.2793C35.6956 87.1426 35.4856 86.9912 35.3147 86.8252C35.1487 86.6543 35.0217 86.4614 34.9338 86.2466C34.8508 86.0317 34.8093 85.7803 34.8093 85.4922C34.8093 85.1406 34.8899 84.8306 35.051 84.562C35.2122 84.2886 35.427 84.0615 35.6956 83.8809C35.9641 83.6953 36.2693 83.5562 36.6111 83.4634C36.9578 83.3706 37.3142 83.3242 37.6804 83.3242C38.3298 83.3242 38.9109 83.4365 39.4236 83.6611V84.877C38.8718 84.5156 38.2371 84.335 37.5193 84.335C37.2947 84.335 37.092 84.3618 36.9114 84.4155C36.7307 84.4644 36.5745 84.5352 36.4426 84.6279C36.3157 84.7207 36.2156 84.833 36.1423 84.9648C36.074 85.0918 36.0398 85.2334 36.0398 85.3896C36.0398 85.585 36.074 85.7485 36.1423 85.8804C36.2156 86.0122 36.3206 86.1294 36.4573 86.2319C36.594 86.3345 36.76 86.4272 36.9553 86.5103C37.1506 86.5933 37.3728 86.6836 37.6218 86.7812C37.9539 86.9082 38.2517 87.04 38.5154 87.1768C38.7791 87.3086 39.0037 87.46 39.1892 87.6309C39.3748 87.7969 39.5164 87.9897 39.614 88.2095C39.7166 88.4292 39.7678 88.6904 39.7678 88.9932C39.7678 89.3643 39.6848 89.6865 39.5188 89.96C39.3577 90.2334 39.1404 90.4604 38.8669 90.6411C38.5935 90.8218 38.2786 90.9561 37.9221 91.0439C37.5657 91.1318 37.1921 91.1758 36.8015 91.1758C36.03 91.1758 35.3611 91.0269 34.7947 90.729ZM47.8464 91H46.6453V86.6787C46.6453 85.1162 46.0642 84.335 44.9021 84.335C44.3162 84.335 43.823 84.562 43.4226 85.0161C43.0222 85.4653 42.822 86.0439 42.822 86.752V91H41.6208V79.8965H42.822V84.7451H42.8513C43.4275 83.7979 44.2478 83.3242 45.3123 83.3242C47.0017 83.3242 47.8464 84.3423 47.8464 86.3784V91Z" fill="black"/>
<path d="M14.6671 101.596C14.4522 101.596 14.2691 101.522 14.1177 101.376C13.9664 101.229 13.8907 101.044 13.8907 100.819C13.8907 100.595 13.9664 100.409 14.1177 100.263C14.2691 100.111 14.4522 100.036 14.6671 100.036C14.8868 100.036 15.0723 100.111 15.2237 100.263C15.3799 100.409 15.4581 100.595 15.4581 100.819C15.4581 101.034 15.3799 101.217 15.2237 101.369C15.0723 101.52 14.8868 101.596 14.6671 101.596ZM15.253 111H14.0518V103.5H15.253V111ZM23.9102 111H22.709V106.723C22.709 105.131 22.128 104.335 20.9659 104.335C20.3653 104.335 19.8672 104.562 19.4717 105.016C19.0811 105.465 18.8858 106.034 18.8858 106.723V111H17.6846V103.5H18.8858V104.745H18.9151C19.4815 103.798 20.3018 103.324 21.376 103.324C22.1964 103.324 22.8238 103.59 23.2584 104.123C23.6929 104.65 23.9102 105.414 23.9102 106.415V111ZM30.9195 100.497L25.8804 112.743H24.7598L29.7842 100.497H30.9195ZM35.1602 111.176C34.0518 111.176 33.1656 110.827 32.5015 110.128C31.8423 109.425 31.5128 108.495 31.5128 107.338C31.5128 106.078 31.857 105.094 32.5455 104.386C33.2339 103.678 34.1641 103.324 35.336 103.324C36.4542 103.324 37.3257 103.668 37.9507 104.357C38.5806 105.045 38.8956 106 38.8956 107.221C38.8956 108.417 38.5562 109.376 37.8775 110.099C37.2037 110.817 36.2979 111.176 35.1602 111.176ZM35.2481 104.335C34.4766 104.335 33.8663 104.599 33.4171 105.126C32.9678 105.648 32.7432 106.371 32.7432 107.294C32.7432 108.183 32.9703 108.883 33.4244 109.396C33.8785 109.909 34.4864 110.165 35.2481 110.165C36.0245 110.165 36.6202 109.914 37.0352 109.411C37.4551 108.908 37.6651 108.192 37.6651 107.265C37.6651 106.327 37.4551 105.604 37.0352 105.097C36.6202 104.589 36.0245 104.335 35.2481 104.335ZM46.879 111H45.6778V109.813H45.6485C45.1505 110.722 44.379 111.176 43.334 111.176C41.5469 111.176 40.6534 110.111 40.6534 107.982V103.5H41.8472V107.792C41.8472 109.374 42.4527 110.165 43.6636 110.165C44.2496 110.165 44.7305 109.95 45.1065 109.521C45.4874 109.086 45.6778 108.52 45.6778 107.821V103.5H46.879V111ZM52.7896 110.927C52.5064 111.083 52.1329 111.161 51.669 111.161C50.3555 111.161 49.6988 110.429 49.6988 108.964V104.525H48.4097V103.5H49.6988V101.669L50.9 101.281V103.5H52.7896V104.525H50.9V108.751C50.9 109.254 50.9854 109.613 51.1563 109.828C51.3272 110.043 51.6104 110.15 52.0059 110.15C52.3087 110.15 52.5699 110.067 52.7896 109.901V110.927Z" fill="black"/>
<path d="M38 0H27C12.0883 0 0 12.0883 0 27V39C0 53.9117 12.0883 66 27 66H38C52.9117 66 65 53.9117 65 39V27C65 12.0883 52.9117 0 38 0Z" fill="white"/>
<path d="M38 0.5H27C12.3645 0.5 0.5 12.3645 0.5 27V39C0.5 53.6355 12.3645 65.5 27 65.5H38C52.6355 65.5 64.5 53.6355 64.5 39V27C64.5 12.3645 52.6355 0.5 38 0.5Z" stroke="#707070"/>
<path d="M37.168 35.339H35.924C35.837 35.339 35.7536 35.3736 35.6921 35.4351C35.6306 35.4966 35.596 35.58 35.596 35.667V37.058H32.244V33.591H34.544C34.631 33.591 34.7144 33.5565 34.776 33.4949C34.8375 33.4334 34.872 33.35 34.872 33.263V32.169C34.8723 32.1258 34.864 32.0829 34.8476 32.0429C34.8313 32.0029 34.8071 31.9665 34.7767 31.9358C34.7462 31.9051 34.7099 31.8808 34.67 31.8642C34.6301 31.8476 34.5873 31.839 34.544 31.839H32.244V30.102C32.2439 29.8857 32.2886 29.6717 32.3752 29.4735C32.4618 29.2753 32.5885 29.0972 32.7474 28.9504C32.9062 28.8035 33.0938 28.6912 33.2982 28.6204C33.5026 28.5496 33.7194 28.5219 33.935 28.539C34.4973 28.5675 35.0417 28.7456 35.512 29.055C35.5802 29.0983 35.6621 29.115 35.7418 29.1017C35.8215 29.0884 35.8935 29.0461 35.944 28.983L36.723 28.012C36.7505 27.9778 36.7708 27.9384 36.7828 27.8962C36.7948 27.854 36.7982 27.8098 36.7927 27.7663C36.7873 27.7227 36.7732 27.6807 36.7513 27.6427C36.7294 27.6047 36.7 27.5715 36.665 27.545C35.8641 26.9371 34.8894 26.602 33.884 26.589C33.4023 26.546 32.9169 26.6029 32.4582 26.7561C31.9995 26.9093 31.5773 27.1555 31.2181 27.4794C30.8589 27.8032 30.5704 28.1977 30.3706 28.6381C30.1708 29.0785 30.064 29.5554 30.057 30.039V31.839H29.291C29.204 31.839 29.1206 31.8736 29.0591 31.9351C28.9976 31.9966 28.963 32.08 28.963 32.167V33.263C28.963 33.35 28.9976 33.4334 29.0591 33.4949C29.1206 33.5565 29.204 33.591 29.291 33.591H30.057V37.091H29.072C29.0289 37.091 28.9861 37.0995 28.9463 37.1161C28.9064 37.1326 28.8702 37.1569 28.8397 37.1874C28.8093 37.218 28.7851 37.2543 28.7687 37.2942C28.7523 37.3341 28.7439 37.3769 28.744 37.42V38.514C28.744 38.601 28.7786 38.6844 28.8401 38.7459C28.9016 38.8075 28.985 38.842 29.072 38.842H37.172C37.259 38.842 37.3424 38.8075 37.404 38.7459C37.4655 38.6844 37.5 38.601 37.5 38.514V35.67C37.5004 35.6263 37.4921 35.583 37.4755 35.5426C37.459 35.5022 37.4345 35.4655 37.4036 35.4347C37.3727 35.4039 37.3359 35.3795 37.2955 35.3631C37.255 35.3467 37.2117 35.3385 37.168 35.339Z" fill="#0D47A1"/>
<path d="M45.37 22.767V29.55H38.587" stroke="#0D47A1" stroke-width="2" stroke-linecap="round" stroke-linejoin="round"/>
<path d="M20.5 42.52V35.737H27.283" stroke="#0D47A1" stroke-width="2" stroke-linecap="round" stroke-linejoin="round"/>
<path d="M23.337 28.221C24.5 23.926 27.276 20.711 30.683 19.706C34.09 18.701 37.654 20.045 40.124 23.267L45.369 29.695M20.5 35.592L25.745 42.02C28.214 45.242 31.779 46.587 35.186 45.581C38.593 44.575 41.366 41.361 42.532 37.066" stroke="#0D47A1" stroke-width="2" stroke-linecap="round" stroke-linejoin="round"/>
</svg>
