<svg width="30" height="28" viewBox="0 0 30 28" fill="none" xmlns="http://www.w3.org/2000/svg">
<path d="M25.6728 7H4.32718C3.17979 7.00082 2.07963 7.46205 1.2683 8.28239C0.456975 9.10274 0.000815004 10.2151 0 11.3753V23.6247C0.000815004 24.7849 0.456975 25.8973 1.2683 26.7176C2.07963 27.5379 3.17979 27.9992 4.32718 28H25.6728C26.8202 27.9992 27.9204 27.5379 28.7317 26.7176C29.543 25.8973 29.9992 24.7849 30 23.6247V11.3753C29.9992 10.2151 29.543 9.10274 28.7317 8.28239C27.9204 7.46205 26.8202 7.00082 25.6728 7Z" fill="#0D47A1"/>
<path d="M20.9213 0.0775117L4.14311 3.60984C2.85701 3.91495 1 5.30711 1 7C1.45119 6.49946 1.99745 6.10969 2.60146 5.85734C3.20546 5.60499 3.85295 5.49601 4.49968 5.53786H25V3.96089C25.0026 2.89999 24.6503 1.87355 24.0075 1.06941C23.6104 0.640534 23.1202 0.325182 22.5813 0.151967C22.0423 -0.0212473 21.4717 -0.0468398 20.9213 0.0775117Z" fill="#0D47A1"/>
<g clip-path="url(#clip0_245_1140)">
<path d="M18.8143 18.3005C18.126 17.7928 17.3437 17.4454 16.5191 17.2812L15.7362 17.0859V13.55L15.8421 13.5958C16.1535 13.7655 16.4168 14.0196 16.6049 14.3322C16.793 14.6448 16.8992 15.0047 16.9126 15.375H19.577C19.5892 14.7179 19.453 14.0672 19.1796 13.4771C18.9062 12.8869 18.5036 12.3742 18.0052 11.9818C17.3332 11.4608 16.5568 11.1103 15.7362 10.9573V9H13.2544V10.8974C12.2527 10.982 11.3003 11.3928 10.5284 12.0734C10.1057 12.4617 9.76894 12.9437 9.54214 13.4851C9.31534 14.0266 9.20404 14.6142 9.21616 15.2062C9.17452 15.7916 9.27589 16.3784 9.51053 16.9103C9.74517 17.4423 10.1052 17.9014 10.556 18.2438C11.3935 18.7446 12.3055 19.0909 13.253 19.2677V23.099C12.8273 22.9933 12.4426 22.7519 12.1509 22.4073C11.8427 22.0089 11.6653 21.5154 11.6452 21.001H8.99999C8.96926 21.6558 9.08987 22.3086 9.35139 22.9029C9.61291 23.4973 10.0075 24.0153 10.5009 24.412C11.3057 25.0437 12.2572 25.4331 13.2544 25.5391V27H15.7362V25.5625C16.7802 25.4722 17.7748 25.0538 18.5922 24.3609C19.0401 23.9759 19.3994 23.4882 19.6429 22.9348C19.8865 22.3813 20.0079 21.7765 19.998 21.1661C20.029 20.6235 19.9378 20.0809 19.7321 19.5827C19.5263 19.0846 19.2117 18.6451 18.8143 18.3005ZM12.4272 16.1187C12.228 16.0177 12.0608 15.8575 11.9461 15.6578C11.8314 15.458 11.7741 15.2273 11.7811 14.9937C11.7744 14.7385 11.8315 14.4859 11.9466 14.2614C12.0618 14.037 12.231 13.8487 12.437 13.7156C12.6875 13.547 12.9643 13.4268 13.2544 13.3604V16.4443C12.9688 16.3662 12.6916 16.2572 12.4272 16.1187ZM16.141 23.0214C16.0082 23.0682 15.8729 23.1065 15.7357 23.1359V19.875C16.0881 19.9759 16.4273 20.1225 16.7456 20.3115C16.9259 20.4184 17.0753 20.5753 17.1777 20.7652C17.28 20.9552 17.3315 21.171 17.3267 21.3896C17.3352 21.764 17.2223 22.1301 17.0066 22.4271C16.7909 22.7241 16.4856 22.934 16.1414 23.0219L16.141 23.0214Z" fill="white"/>
</g>
<defs>
<clipPath id="clip0_245_1140">
<rect width="11" height="18" fill="white" transform="translate(9 9)"/>
</clipPath>
</defs>
</svg>
