<svg width="36" height="33" viewBox="0 0 36 33" fill="none" xmlns="http://www.w3.org/2000/svg">
<g clip-path="url(#clip0_245_1232)">
<path d="M17.0899 9.87648L20.2486 10.7647C20.3723 10.7989 20.4792 10.876 20.5495 10.9817C20.6198 11.0875 20.6488 11.2147 20.631 11.3399C20.6132 11.465 20.5499 11.5796 20.4529 11.6624C20.3558 11.7451 20.2315 11.7905 20.1031 11.79H18.0314C17.8073 11.7889 17.5859 11.7423 17.381 11.653C17.2375 11.5813 17.0751 11.5548 16.9158 11.5771C16.7565 11.5994 16.6081 11.6694 16.4907 11.7776L15.3856 12.8647C15.3059 12.9412 15.2443 13.0341 15.2052 13.1367C15.1661 13.2393 15.1505 13.3492 15.1595 13.4584C15.1686 13.5676 15.2019 13.6735 15.2573 13.7686C15.3127 13.8637 15.3887 13.9456 15.48 14.0084C16.0835 14.398 16.7715 14.6429 17.4888 14.7235V15.8238C17.4895 16.0872 17.5961 16.3395 17.7853 16.5258C17.9745 16.7121 18.2309 16.8172 18.4986 16.8181H19.5093C19.7771 16.8174 20.0338 16.7125 20.2231 16.5261C20.4125 16.3398 20.5192 16.0873 20.52 15.8238V14.7296C20.9868 14.6761 21.4381 14.532 21.8479 14.3057C22.2577 14.0794 22.6179 13.7754 22.9074 13.4112C23.197 13.0471 23.4103 12.6301 23.535 12.1843C23.6597 11.7385 23.6933 11.2729 23.6338 10.8142C23.5232 10.1149 23.2081 9.46227 22.727 8.93605C22.2459 8.40983 21.6195 8.03272 20.9242 7.85072L17.7664 6.96158C17.6427 6.92743 17.5358 6.85033 17.4655 6.74458C17.3952 6.63882 17.3663 6.51158 17.384 6.38643C17.4018 6.26128 17.4651 6.14671 17.5621 6.06395C17.6592 5.98119 17.7835 5.93585 17.9119 5.93633H19.9836C20.2077 5.93739 20.4292 5.98403 20.6341 6.07333C20.7775 6.14501 20.9399 6.17151 21.0992 6.14921C21.2585 6.12691 21.4069 6.05691 21.5244 5.9487L22.6294 4.86158C22.7091 4.78507 22.7707 4.6922 22.8098 4.58959C22.8489 4.48698 22.8645 4.37715 22.8555 4.26793C22.8465 4.15871 22.8131 4.05279 22.7577 3.95771C22.7023 3.86264 22.6263 3.78076 22.5351 3.7179C21.9315 3.3283 21.2435 3.0834 20.5262 3.00287V1.90338C20.5255 1.63988 20.4188 1.38738 20.2294 1.20106C20.04 1.01474 19.7834 0.909757 19.5156 0.909058L18.5049 0.909058C18.237 0.909757 17.9804 1.01474 17.791 1.20106C17.6016 1.38738 17.4949 1.63988 17.4942 1.90338V2.99668C17.0277 3.05066 16.5767 3.19507 16.1673 3.42156C15.7579 3.64805 15.3982 3.95213 15.109 4.31622C14.8198 4.68031 14.6068 5.09719 14.4823 5.54275C14.3579 5.98831 14.3244 6.45373 14.3839 6.91209C14.4941 7.61117 14.8086 8.26364 15.289 8.78998C15.7695 9.31633 16.3952 9.69383 17.0899 9.87648ZM34.5439 21.2992C34.195 20.9887 33.7414 20.8167 33.2709 20.8167C32.8004 20.8167 32.3467 20.9887 31.9979 21.2992L26.4898 25.8952C25.8247 26.4559 24.9778 26.7643 24.1019 26.7649H17.0459C16.7882 26.7497 16.5462 26.6384 16.3692 26.4536C16.1922 26.2688 16.0937 26.0245 16.0937 25.7705C16.0937 25.5166 16.1922 25.2723 16.3692 25.0875C16.5462 24.9027 16.7882 24.7913 17.0459 24.7762H21.7175C22.2422 24.7717 22.7446 24.5668 23.1187 24.2048C23.4927 23.8428 23.7092 23.3519 23.7224 22.8359C23.7355 22.3198 23.5444 21.8189 23.1893 21.4389C22.8342 21.0588 22.3428 20.8294 21.819 20.799H12.2709C10.6472 20.8038 9.07963 21.384 7.85527 22.4332L5.08193 24.7727H1.77224C1.51217 24.7815 1.26612 24.8908 1.08749 25.077C0.908859 25.2631 0.812073 25.5111 0.81814 25.767V31.7329C0.812073 31.9889 0.908859 32.2368 1.08749 32.423C1.26612 32.6091 1.51217 32.7185 1.77224 32.7272H23.0534C23.929 32.7245 24.7751 32.4164 25.4414 31.8575L34.4622 24.3378C34.6811 24.1501 34.858 23.9197 34.9817 23.6612C35.1055 23.4027 35.1733 23.1218 35.181 22.8362C35.1887 22.5506 35.136 22.2665 35.0264 22.0019C34.9167 21.7374 34.7524 21.4981 34.5439 21.2992Z" fill="#0D47A1"/>
</g>
<defs>
<clipPath id="clip0_245_1232">
<rect width="34.3636" height="31.8182" fill="white" transform="translate(0.818176 0.909058)"/>
</clipPath>
</defs>
</svg>
