<svg width="24" height="24" viewBox="0 0 24 24" fill="none" xmlns="http://www.w3.org/2000/svg">
<path d="M12 18.575L19.416 23.051L17.448 14.615L24 8.93898L15.372 8.20698L12 0.250977L8.628 8.20698L0 8.93898L6.552 14.615L4.584 23.051L12 18.575Z" fill="black"/>
<path d="M12.2584 18.1469L12 17.991L11.7416 18.1469L5.34013 22.0106L7.03893 14.7286L7.10749 14.4347L6.87939 14.2371L1.22308 9.33701L8.67027 8.70519L8.9707 8.6797L9.08836 8.40209L12 1.53228L14.9116 8.40209L15.0293 8.6797L15.3297 8.70519L22.7769 9.33701L17.1206 14.2371L16.8925 14.4347L16.9611 14.7286L18.6599 22.0106L12.2584 18.1469Z" stroke="black" stroke-opacity="0.2"/>
</svg>
