<svg width="27" height="22" viewBox="0 0 27 22" fill="none" xmlns="http://www.w3.org/2000/svg">
<path d="M16.2 11.199C17.268 11.199 18.3121 10.8823 19.2001 10.2889C20.0881 9.69557 20.7803 8.8522 21.189 7.86548C21.5977 6.87876 21.7046 5.793 21.4963 4.7455C21.2879 3.698 20.7736 2.73582 20.0184 1.98061C19.2632 1.22541 18.301 0.711109 17.2535 0.502749C16.206 0.294389 15.1203 0.401327 14.1335 0.81004C13.1468 1.21875 12.3034 1.91088 11.7101 2.79891C11.1167 3.68694 10.8 4.73097 10.8 5.79899C10.8042 7.22986 11.3745 8.60092 12.3863 9.6127C13.3981 10.6245 14.7692 11.1948 16.2 11.199ZM16.2 13.899C12.623 13.899 5.40002 15.722 5.40002 19.299V21.999H27V19.299C27 15.722 19.778 13.899 16.2 13.899Z" fill="black"/>
<path d="M18.9223 9.87319C18.1167 10.4115 17.1697 10.6988 16.2008 10.699C14.9023 10.695 13.6581 10.1774 12.7399 9.25915C11.8217 8.34096 11.3041 7.0968 11.3 5.79832C11.3002 4.82942 11.5875 3.88231 12.1258 3.07669C12.6642 2.27089 13.4295 1.64285 14.3249 1.27198C15.2202 0.90111 16.2055 0.804074 17.156 0.993141C18.1065 1.18221 18.9796 1.64889 19.6648 2.33417C20.3501 3.01944 20.8168 3.89254 21.0059 4.84305C21.1949 5.79355 21.0979 6.77878 20.727 7.67414C20.3562 8.5695 19.7281 9.33477 18.9223 9.87319ZM5.90002 19.299C5.90002 18.5896 6.25426 17.929 6.92291 17.3143C7.59463 16.6967 8.54847 16.161 9.64465 15.7217C11.8379 14.8427 14.4748 14.399 16.2 14.399C17.9258 14.399 20.5626 14.8427 22.7558 15.7217C23.8519 16.161 24.8056 16.6967 25.4773 17.3143C26.1458 17.929 26.5 18.5896 26.5 19.299V21.499H5.90002V19.299Z" stroke="black" stroke-opacity="0.2"/>
<path d="M5.4 9.39898V5.79898H3.6V9.39898H0V11.199H3.6V14.799H5.4V11.199H9V9.39898H5.4Z" fill="black"/>
<path d="M4.9 9.39898V9.89898H5.4H8.5V10.699H5.4H4.9V11.199V14.299H4.1V11.199V10.699H3.6H0.5V9.89898H3.6H4.1V9.39898V6.29898H4.9V9.39898Z" stroke="black" stroke-opacity="0.2"/>
</svg>
