<svg width="45" height="23" viewBox="0 0 45 23" fill="none" xmlns="http://www.w3.org/2000/svg">
<g clip-path="url(#clip0_245_1413)">
<path d="M33.5979 0.384644H11.8317C10.0372 0.383971 8.27038 0.839658 6.68856 1.71113C5.10673 2.58261 3.75899 3.84282 2.76534 5.37957C1.77169 6.91632 1.16296 8.68192 0.993359 10.5192C0.823757 12.3564 1.09854 14.2082 1.79325 15.9098C2.48796 17.6114 3.58103 19.1099 4.97514 20.272C6.36925 21.434 8.02113 22.2235 9.7837 22.5701C11.5463 22.9167 13.3648 22.8097 15.0775 22.2586C16.7901 21.7076 18.3437 20.7295 19.5998 19.4116H25.824C27.08 20.7288 28.6332 21.7063 30.3453 22.257C32.0574 22.8077 33.8754 22.9146 35.6374 22.5682C37.3994 22.2217 39.0507 21.4327 40.4445 20.2712C41.8384 19.1098 42.9314 17.612 43.6263 15.9112C44.3212 14.2104 44.5965 12.3592 44.4276 10.5226C44.2588 8.68587 43.651 6.9206 42.6584 5.38384C41.6659 3.84709 40.3193 2.58652 38.7385 1.71432C37.1578 0.842121 35.3918 0.385345 33.5979 0.384644ZM18.3616 12.9757C18.3611 13.1983 18.2749 13.4115 18.1219 13.5689C17.9689 13.7263 17.7615 13.8149 17.5451 13.8154H14.0083V17.4527C14.0078 17.6752 13.9216 17.8885 13.7686 18.0458C13.6156 18.2032 13.4083 18.2918 13.1919 18.2923H10.4716C10.2552 18.2918 10.0478 18.2032 9.8948 18.0458C9.7418 17.8885 9.65561 17.6752 9.6551 17.4527V13.8154H6.11833C5.90195 13.8149 5.69457 13.7263 5.54156 13.5689C5.38855 13.4115 5.30237 13.1983 5.30186 12.9757V10.1782C5.30237 9.95563 5.38855 9.74236 5.54156 9.58501C5.69457 9.42765 5.90195 9.33902 6.11833 9.33849H9.6551V5.70124C9.65561 5.47871 9.7418 5.26544 9.8948 5.10808C10.0478 4.95073 10.2552 4.86209 10.4716 4.86157H13.1928C13.4092 4.86209 13.6166 4.95073 13.7696 5.10808C13.9226 5.26544 14.0088 5.47871 14.0093 5.70124V9.33849H17.5461C17.7625 9.33902 17.9698 9.42765 18.1228 9.58501C18.2759 9.74236 18.362 9.95563 18.3625 10.1782L18.3616 12.9757ZM30.8776 17.7322C30.2319 17.7322 29.6006 17.5353 29.0637 17.1663C28.5268 16.7974 28.1083 16.273 27.8612 15.6595C27.6141 15.0459 27.5495 14.3708 27.6754 13.7195C27.8014 13.0681 28.1124 12.4699 28.569 12.0003C29.0256 11.5307 29.6073 11.2109 30.2407 11.0814C30.874 10.9518 31.5305 11.0183 32.1271 11.2724C32.7237 11.5266 33.2336 11.9569 33.5923 12.5091C33.9511 13.0613 34.1426 13.7104 34.1426 14.3745C34.1426 15.2651 33.7986 16.1193 33.1863 16.7491C32.5741 17.379 31.7436 17.732 30.8776 17.7322ZM36.3192 12.1361C35.6734 12.1361 35.0422 11.9391 34.5053 11.5702C33.9684 11.2012 33.5499 10.6768 33.3028 10.0633C33.0557 9.44977 32.991 8.77465 33.117 8.12332C33.243 7.472 33.5539 6.87371 34.0105 6.40413C34.4671 5.93455 35.0489 5.61476 35.6822 5.4852C36.3156 5.35565 36.972 5.42214 37.5686 5.67627C38.1652 5.93041 38.6751 6.36077 39.0339 6.91294C39.3926 7.46511 39.5841 8.11429 39.5841 8.77838C39.5841 9.66899 39.2402 10.5231 38.6279 11.153C38.0156 11.7828 37.1852 12.1358 36.3192 12.1361Z" fill="#0D47A1"/>
</g>
<defs>
<clipPath id="clip0_245_1413">
<rect width="43.5256" height="22.3846" fill="white" transform="translate(0.94873 0.384644)"/>
</clipPath>
</defs>
</svg>
