<svg width="31" height="31" viewBox="0 0 31 31" fill="none" xmlns="http://www.w3.org/2000/svg">
<path d="M26.5205 15.5769V29.2564H4.63332V15.5769" fill="#0D47A1"/>
<path d="M26.5205 15.5769V29.2564H4.63332V15.5769" stroke="#0D47A1" stroke-width="2" stroke-linecap="round" stroke-linejoin="round"/>
<path d="M1.8974 8.73718H29.2564V15.5769H1.8974V8.73718Z" fill="#0D47A1" stroke="#0D47A1" stroke-width="2" stroke-linecap="round" stroke-linejoin="round"/>
<path d="M15.5769 29.2564V8.73718V29.2564Z" fill="#0D47A1"/>
<path d="M15.5769 29.2564V8.73718" stroke="#0D47A1" stroke-width="2" stroke-linecap="round" stroke-linejoin="round"/>
<path d="M15.5769 8.7372H9.42111C8.5141 8.7372 7.64424 8.3769 7.00289 7.73555C6.36154 7.0942 6.00124 6.22434 6.00124 5.31733C6.00124 4.41033 6.36154 3.54047 7.00289 2.89912C7.64424 2.25777 8.5141 1.89746 9.42111 1.89746C14.2089 1.89746 15.5769 8.7372 15.5769 8.7372Z" fill="#0D47A1" stroke="#0D47A1" stroke-width="2" stroke-linecap="round" stroke-linejoin="round"/>
<path d="M15.5769 8.7372H21.7327C22.1818 8.7372 22.6265 8.64875 23.0414 8.47688C23.4563 8.30502 23.8333 8.05311 24.1509 7.73555C24.4684 7.41798 24.7203 7.04098 24.8922 6.62606C25.0641 6.21114 25.1525 5.76644 25.1525 5.31733C25.1525 4.86823 25.0641 4.42352 24.8922 4.0086C24.7203 3.59369 24.4684 3.21668 24.1509 2.89912C23.8333 2.58155 23.4563 2.32965 23.0414 2.15778C22.6265 1.98592 22.1818 1.89746 21.7327 1.89746C16.9448 1.89746 15.5769 8.7372 15.5769 8.7372Z" fill="#0D47A1" stroke="#0D47A1" stroke-width="2" stroke-linecap="round" stroke-linejoin="round"/>
</svg>
