<svg width="22" height="22" viewBox="0 0 22 22" fill="none" xmlns="http://www.w3.org/2000/svg">
<path d="M20.0599 6.25202H8.74092C8.22505 6.25281 7.73054 6.45809 7.36577 6.82286C7.00099 7.18764 6.79572 7.68215 6.79492 8.19802V16.08C6.79598 16.5953 7.00151 17.0892 7.36637 17.4531C7.73123 17.817 8.22559 18.0213 8.74092 18.021H15.2179C15.3636 18.0226 15.5028 18.0811 15.6059 18.184L18.8239 21.152C19.0029 21.326 19.2989 21.252 19.2989 21.004V18.42C19.2989 18.114 19.4929 18.02 19.7989 18.02H19.8499C20.3873 18.0281 20.9077 17.8324 21.3066 17.4723C21.7055 17.1122 21.9532 16.6144 21.9999 16.079V8.19802C22.001 7.94267 21.9516 7.68964 21.8545 7.45346C21.7575 7.21727 21.6147 7.00259 21.4344 6.82176C21.2541 6.64092 21.0399 6.4975 20.804 6.39972C20.5681 6.30195 20.3153 6.25175 20.0599 6.25202Z" fill="black"/>
<path d="M20.0599 6.75202L20.0604 6.75201C20.2499 6.75182 20.4375 6.78906 20.6126 6.86161C20.7876 6.93416 20.9466 7.04059 21.0803 7.17477C21.2141 7.30894 21.32 7.46824 21.392 7.64349C21.464 7.81873 21.5007 8.00649 21.4999 8.19595V8.19802V16.0558C21.4598 16.4575 21.2716 16.8303 20.9716 17.1012C20.6665 17.3766 20.2684 17.5263 19.8575 17.5201L19.8575 17.52H19.8499H19.7989C19.6145 17.52 19.36 17.5443 19.1442 17.6979C18.8917 17.8777 18.7989 18.152 18.7989 18.42V20.4488L15.951 17.8221C15.7564 17.632 15.4958 17.5241 15.2234 17.521V17.521H15.2179H8.74092H8.74066C8.35781 17.5212 7.99053 17.3695 7.71946 17.0991C7.44851 16.8288 7.29583 16.4621 7.29492 16.0795V8.19843C7.29561 7.81503 7.44821 7.44752 7.71932 7.17642C7.99043 6.90531 8.35794 6.7527 8.74133 6.75202L20.0599 6.75202Z" stroke="black" stroke-opacity="0.2"/>
<path d="M7.21396 5.001H16.276V1.665C16.2757 1.2235 16.1002 0.800151 15.788 0.48796C15.4758 0.175769 15.0525 0.000264929 14.611 0H2.42196C1.98045 0.000264929 1.55711 0.175769 1.24492 0.48796C0.932727 0.800151 0.757223 1.2235 0.756958 1.665V10.103C0.756958 10.5447 0.932345 10.9683 1.24456 11.2807C1.55678 11.5931 1.98028 11.7687 2.42196 11.769H5.54296V6.669C5.54428 6.22651 5.72085 5.80256 6.03402 5.48995C6.3472 5.17734 6.77146 5.00153 7.21396 5.001Z" fill="black"/>
<path d="M7.21336 4.501L7.21396 4.501L15.776 4.501V1.6653C15.7758 1.3563 15.6529 1.06001 15.4344 0.841513C15.216 0.623049 14.9197 0.500221 14.6108 0.5C14.6107 0.5 14.6107 0.5 14.6107 0.5L14.611 0L7.21336 4.501ZM7.21336 4.501C6.63862 4.50169 6.08756 4.73004 5.68079 5.13608C5.27402 5.54211 5.04468 6.09277 5.04296 6.66751V6.669M7.21336 4.501L5.04296 6.669M5.04296 6.669V11.269M5.04296 6.669V11.269M5.04296 11.269H2.42226C2.11314 11.2688 1.81674 11.1459 1.59822 10.9272C1.37971 10.7086 1.25696 10.4121 1.25696 10.103V1.66516C1.25718 1.35621 1.38001 1.05998 1.59847 0.841513C1.81697 0.623017 2.11326 0.500185 2.42226 0.5L5.04296 11.269Z" stroke="black" stroke-opacity="0.2"/>
</svg>
