<svg width="41" height="29" viewBox="0 0 41 29" fill="none" xmlns="http://www.w3.org/2000/svg">
<g clip-path="url(#clip0_245_1219)">
<path d="M12.6179 14.577C13.9953 14.577 15.3417 14.1758 16.487 13.4242C17.6322 12.6727 18.5248 11.6045 19.0519 10.3547C19.579 9.10486 19.7169 7.72962 19.4482 6.40284C19.1795 5.07606 18.5162 3.85733 17.5423 2.90078C16.5684 1.94422 15.3275 1.2928 13.9766 1.02889C12.6257 0.764975 11.2254 0.900424 9.95289 1.41811C8.68037 1.93579 7.59272 2.81246 6.8275 3.93725C6.06227 5.06204 5.65383 6.38443 5.65383 7.73721C5.65337 8.63554 5.83318 9.52516 6.183 10.3552C6.53281 11.1852 7.04576 11.9394 7.69253 12.5747C8.3393 13.2099 9.10721 13.7137 9.95234 14.0572C10.7975 14.4008 11.7033 14.5774 12.6179 14.577ZM17.3933 16.5312H16.8769C15.5524 17.1739 14.0949 17.5083 12.6175 17.5083C11.1401 17.5083 9.68262 17.1739 8.35812 16.5312H7.84255C5.94279 16.5312 4.12083 17.2724 2.77749 18.5917C1.43415 19.9111 0.679474 21.7005 0.679474 23.5663L0.679474 25.3251C0.679708 26.1025 0.994233 26.8479 1.55391 27.3976C2.11358 27.9473 2.87259 28.2562 3.66409 28.2564H21.5718C22.3633 28.2562 23.1223 27.9473 23.682 27.3976C24.2416 26.8479 24.5562 26.1025 24.5564 25.3251V23.5663C24.5564 22.6425 24.3711 21.7276 24.0111 20.8741C23.6512 20.0205 23.1235 19.245 22.4584 18.5917C21.7932 17.9384 21.0036 17.4202 20.1345 17.0667C19.2654 16.7131 18.334 16.5312 17.3933 16.5312ZM30.5256 14.577C31.7062 14.577 32.8603 14.2331 33.842 13.5889C34.8236 12.9447 35.5887 12.0291 36.0405 10.9578C36.4923 9.88659 36.6105 8.70781 36.3802 7.57057C36.1498 6.43333 35.5813 5.38871 34.7465 4.5688C33.9117 3.7489 32.8481 3.19054 31.6902 2.96433C30.5323 2.73811 29.332 2.85421 28.2413 3.29794C27.1506 3.74167 26.2183 4.4931 25.5624 5.45721C24.9065 6.42131 24.5564 7.55479 24.5564 8.71431C24.5569 10.269 25.1859 11.76 26.3053 12.8593C27.4246 13.9587 28.9426 14.5765 30.5256 14.577ZM33.5102 16.5312H33.2741C31.5018 17.1826 29.5494 17.1826 27.7771 16.5312H27.541C26.3224 16.5392 25.1276 16.8637 24.078 17.4718C25.6574 19.1227 26.5396 21.301 26.5461 23.5663V25.9114C26.5461 26.046 26.5152 26.1719 26.509 26.3022H37.4897C38.2812 26.302 39.0402 25.9931 39.5999 25.4434C40.1596 24.8937 40.4741 24.1483 40.4743 23.3709C40.4748 22.4726 40.295 21.583 39.9452 20.7529C39.5954 19.9229 39.0824 19.1687 38.4356 18.5335C37.7889 17.8982 37.021 17.3944 36.1758 17.0509C35.3307 16.7073 34.4249 16.5307 33.5102 16.5312Z" fill="#0D47A1"/>
</g>
<defs>
<clipPath id="clip0_245_1219">
<rect width="39.7949" height="27.359" fill="white" transform="translate(0.679474 0.897461)"/>
</clipPath>
</defs>
</svg>
