<svg width="24" height="25" viewBox="0 0 24 25" fill="none" xmlns="http://www.w3.org/2000/svg">
<path d="M11.988 0.604017C9.61514 0.60639 7.29625 1.31219 5.32443 2.63221C3.35262 3.95223 1.81642 5.8272 0.910011 8.02012C0.00359875 10.213 -0.23233 12.6255 0.232047 14.9524C0.696424 17.2794 1.84026 19.4165 3.51897 21.0935C5.19767 22.7706 7.33589 23.9123 9.66333 24.3743C11.9908 24.8364 14.403 24.598 16.595 23.6894C18.787 22.7808 20.6604 21.2427 21.9785 19.2696C23.2965 17.2965 24 14.9769 24 12.604C24.0008 11.0269 23.6905 9.46515 23.087 8.00811C22.4835 6.55106 21.5985 5.22734 20.4828 4.11273C19.3671 2.99811 18.0425 2.11448 16.5848 1.51241C15.1272 0.910337 13.5651 0.60165 11.988 0.604017ZM20.3 7.80402H16.76C16.3844 6.31776 15.8283 4.88309 15.104 3.53202C17.2929 4.28562 19.1374 5.80209 20.3 7.80402ZM12 3.05202C13.0081 4.50626 13.7815 6.1098 14.292 7.80402H9.70801C10.2185 6.1098 10.9919 4.50626 12 3.05202ZM2.71201 15.004C2.29602 13.4311 2.29602 11.777 2.71201 10.204H6.768C6.66345 10.9999 6.60735 11.8014 6.60001 12.604C6.60735 13.4067 6.66345 14.2082 6.768 15.004H2.71201ZM3.70001 17.404H7.24001C7.61557 18.8903 8.17171 20.3249 8.89601 21.676C6.70475 20.9266 4.85898 19.409 3.70001 17.404ZM7.24001 7.80402H3.70001C4.85996 5.79826 6.70726 4.28063 8.90001 3.53202C8.17294 4.88271 7.61411 6.3174 7.23601 7.80402H7.24001ZM12 22.156C10.9919 20.7018 10.2185 19.0982 9.70801 17.404H14.292C13.7815 19.0982 13.0081 20.7018 12 22.156ZM14.808 15.004H9.19201C9.07347 14.2093 9.00932 13.4075 9.00001 12.604C9.00883 11.8006 9.07298 10.9987 9.19201 10.204H14.808C14.927 10.9987 14.9912 11.8006 15 12.604C14.9907 13.4075 14.9265 14.2093 14.808 15.004ZM15.108 21.676C15.8323 20.3249 16.3884 18.8903 16.764 17.404H20.3C19.1384 19.4052 17.2955 20.9216 15.108 21.676ZM17.232 15.004C17.3366 14.2082 17.3927 13.4067 17.4 12.604C17.3927 11.8014 17.3366 10.9999 17.232 10.204H21.288C21.704 11.777 21.704 13.4311 21.288 15.004H17.232Z" fill="black"/>
<path d="M11.9885 1.10402L11.9888 1.10402C13.5001 1.10175 14.9971 1.39757 16.3939 1.97454C17.7908 2.55151 19.0602 3.39831 20.1294 4.46646C21.1987 5.53461 22.0467 6.80314 22.6251 8.19945C23.2035 9.59576 23.5008 11.0924 23.5 12.6038V12.604C23.5 14.878 22.8258 17.101 21.5627 18.9919C20.2996 20.8828 18.5042 22.3568 16.4035 23.2275C14.3028 24.0983 11.9912 24.3267 9.76069 23.8839C7.53023 23.4411 5.4811 22.347 3.87234 20.7398C2.26358 19.1326 1.16741 17.0846 0.722379 14.8546C0.277351 12.6246 0.503449 10.3127 1.37209 8.21112C2.24074 6.10957 3.71293 4.31272 5.60258 3.0477C7.49224 1.78269 9.71451 1.10629 11.9885 1.10402ZM20.3 8.30402H21.1686L20.7324 7.55292C19.5095 5.44711 17.5693 3.85196 15.2668 3.05925L14.0606 2.644L14.6633 3.76826C15.3683 5.08335 15.9097 6.47983 16.2752 7.92651L16.3706 8.30402H16.76H20.3ZM12.4109 2.76717L12 2.17436L11.5891 2.76717C10.5512 4.26444 9.75489 5.91541 9.22927 7.65976L9.03514 8.30402H9.70801H14.292H14.9649L14.7707 7.65976C14.2451 5.91541 13.4488 4.26444 12.4109 2.76717ZM2.22862 15.1319L2.32705 15.504H2.71201H6.768H7.33799L7.26375 14.9389C7.16203 14.1646 7.10736 13.3849 7.10003 12.604C7.10736 11.8231 7.16203 11.0434 7.26375 10.2691L7.33799 9.70402H6.768H2.71201H2.32705L2.22862 10.0762C1.79048 11.7329 1.79048 13.4751 2.22862 15.1319ZM3.70001 16.904H2.83346L3.26712 17.6542C4.48656 19.7639 6.42862 21.3606 8.7342 22.1491L9.93759 22.5607L9.33668 21.4398C8.63166 20.1247 8.09033 18.7282 7.72477 17.2815L7.62938 16.904H7.24001H3.70001ZM3.26717 7.55371L2.83326 8.30402H3.70001H6.59292H7.23601H7.24001V7.80503L7.72058 7.92726C8.08862 6.48023 8.63257 5.08374 9.34027 3.76901L9.94412 2.64722L8.73846 3.05883C6.43132 3.8465 4.48764 5.44331 3.26717 7.55371ZM11.5891 22.4409L12 23.0337L12.4109 22.4409C13.4488 20.9436 14.2451 19.2926 14.7707 17.5483L14.9649 16.904H14.292H9.70801H9.03514L9.22927 17.5483C9.75489 19.2926 10.5512 20.9436 11.5891 22.4409ZM14.808 15.504H15.239L15.3025 15.0778C15.4244 14.2606 15.4904 13.436 15.5 12.6098L15.5001 12.6098L15.5 12.5985C15.4909 11.7721 15.4249 10.9473 15.3025 10.13L15.2387 9.70402H14.808H9.19201H8.76132L8.69752 10.13C8.5751 10.9473 8.50911 11.7721 8.50004 12.5985L8.49991 12.5985L8.50004 12.6098C8.50962 13.436 8.57558 14.2606 8.69748 15.0778L8.76105 15.504H9.19201H14.808ZM14.6673 21.4398L14.0641 22.5649L15.271 22.1487C17.572 21.3551 19.5105 19.7601 20.7324 17.655L21.1684 16.904H20.3H16.764H16.3746L16.2792 17.2815C15.9137 18.7282 15.3723 20.1247 14.6673 21.4398ZM16.7363 14.9389L16.662 15.504H17.232H21.288H21.673L21.7714 15.1319C22.2095 13.4751 22.2095 11.7329 21.7714 10.0762L21.673 9.70402H21.288H17.232H16.662L16.7363 10.2691C16.838 11.0434 16.8927 11.8231 16.9 12.604C16.8927 13.3849 16.838 14.1646 16.7363 14.9389Z" stroke="black" stroke-opacity="0.2"/>
</svg>
