<svg width="24" height="24" viewBox="0 0 24 24" fill="none" xmlns="http://www.w3.org/2000/svg">
<path d="M10.7294 2.88315L9.93692 0.818431C8.30564 1.19984 6.77847 1.9361 5.46408 2.97482C4.14969 4.01354 3.08039 5.32918 2.33226 6.82814L4.32753 7.71662C4.96247 6.48142 5.86784 5.40535 6.97624 4.5685C8.08463 3.73165 9.3675 3.15557 10.7294 2.88315ZM20.2503 14.807L22.2483 15.6967C22.8571 14.1368 23.117 12.4625 23.0097 10.7915C22.9023 9.1204 22.4304 7.49313 21.627 6.02396L19.5696 6.81966C20.2722 8.01572 20.698 9.35395 20.8158 10.7361C20.9336 12.1183 20.7404 13.5092 20.2503 14.807ZM18.0608 14.4311C19.4262 11.3646 18.9316 8.06782 16.3769 6.11643L16.6797 5.43642C16.8566 5.03899 16.8685 4.58754 16.7126 4.18138C16.5567 3.77521 16.2459 3.44761 15.8484 3.27064C15.451 3.09367 14.9996 3.08182 14.5934 3.23771C14.1872 3.39359 13.8596 3.70444 13.6827 4.10187L13.3803 4.78097C10.2106 4.18331 7.44402 6.01582 6.07406 9.09234L3.85143 14.0837L0.963013 15.1961L0.518162 16.1951L16.4995 23.3115L16.9443 22.3125L15.8385 19.4215L18.0608 14.4311ZM7.17288 22.7497C7.30625 22.8114 7.44628 22.8576 7.59021 22.8873C7.93673 22.9608 8.29582 22.9503 8.63744 22.8566C8.97906 22.7629 9.2933 22.5888 9.55387 22.3489C9.76517 22.147 9.93403 21.9049 10.0505 21.6369L6.05544 19.8579C5.82261 20.3898 5.80941 20.9922 6.01871 21.5339C6.22801 22.0755 6.64285 22.5125 7.17288 22.7497Z" fill="white"/>
</svg>
