<svg width="24" height="21" viewBox="0 0 24 21" fill="none" xmlns="http://www.w3.org/2000/svg">
<path d="M5.78265 3.78445L3.85089 2.6466C2.72691 3.79269 1.89273 5.19051 1.41769 6.72387C0.942657 8.25723 0.840485 9.88183 1.11967 11.4626L3.3477 11.0327C3.13411 9.71764 3.24421 8.37031 3.66848 7.10735C4.09275 5.8444 4.81841 4.70386 5.78265 3.78445ZM21.1115 7.60741L23.3395 7.17751C22.8515 5.59963 22.0195 4.14963 20.9036 2.93201C19.7877 1.71438 18.4156 0.759438 16.8861 0.135979L15.6415 1.88293C16.9248 2.36405 18.0829 3.12888 19.0292 4.1203C19.9756 5.11172 20.6857 6.30412 21.1066 7.60845L21.1115 7.60741ZM19.0288 8.53797C18.7299 7.0251 17.9201 5.66096 16.735 4.67423C15.5499 3.6875 14.0616 3.13816 12.5196 3.11832L12.3575 2.42803C12.2352 2.00883 11.9574 1.65218 11.5809 1.43106C11.2044 1.20995 10.7576 1.14109 10.3319 1.23858C10.1224 1.2674 9.92095 1.33865 9.73988 1.44796C9.55881 1.55727 9.40194 1.70235 9.27884 1.87434C9.15573 2.04633 9.06899 2.24161 9.02391 2.44826C8.97883 2.6549 8.97636 2.86857 9.01664 3.0762L9.17816 3.76355C7.78607 4.33671 6.65596 5.40571 6.00637 6.76382C5.35679 8.12194 5.23387 9.67268 5.66139 11.1162L6.85122 16.1675L5.09195 18.6188L5.32937 19.6294L23.1548 16.191L22.9173 15.1804L20.2157 13.5899L19.0288 8.53797ZM14.9508 20.9422C15.3685 20.866 15.7559 20.6725 16.0677 20.3842C16.3794 20.096 16.6027 19.725 16.7115 19.3145C16.7657 19.0431 16.7596 18.7632 16.6934 18.4944L12.2374 19.3542C12.4037 19.9142 12.7769 20.39 13.2812 20.6848C13.7855 20.9797 14.3832 21.0716 14.9528 20.9418L14.9508 20.9422Z" fill="black"/>
<path d="M21.4363 7.03551C20.9822 5.82319 20.2869 4.71374 19.3909 3.77507C18.5414 2.88504 17.5301 2.16812 16.4132 1.66142L17.0594 0.754427C18.3751 1.3483 19.5578 2.20364 20.535 3.26983C21.4747 4.2952 22.2036 5.49307 22.6825 6.79506L21.4363 7.03551ZM18.5383 8.63487L18.54 8.64363L18.542 8.65232L19.7289 13.7043L19.7778 13.9124L19.962 14.0208L22.4795 15.5029L22.549 15.7987L5.70628 19.0475L5.63068 18.7257L7.25743 16.459L7.39004 16.2743L7.3379 16.0529L6.14807 11.0015L6.14483 10.9878L6.14081 10.9742C5.74842 9.64933 5.86124 8.22605 6.45743 6.97957C7.05363 5.73308 8.09085 4.75195 9.36852 4.22589L9.76233 4.06375L9.6649 3.64917L9.50584 2.97227C9.48023 2.8341 9.48246 2.69218 9.51242 2.55483C9.54302 2.41459 9.60188 2.28207 9.68542 2.16536C9.76896 2.04864 9.87542 1.95018 9.9983 1.876L9.74053 1.44902L9.9983 1.876C10.1212 1.80182 10.2579 1.75347 10.4001 1.73391L10.422 1.7309L10.4436 1.72596C10.7449 1.65694 11.0612 1.70569 11.3277 1.86222C11.5908 2.0167 11.7858 2.26464 11.874 2.55637L12.0329 3.23265L12.1223 3.61324L12.5132 3.61828C13.9405 3.63664 15.3181 4.14512 16.415 5.05847C17.512 5.97182 18.2616 7.23451 18.5383 8.63487ZM14.8468 20.4532L14.8817 20.6298L14.8417 20.4543C14.3959 20.5559 13.9282 20.484 13.5336 20.2532C13.3047 20.1194 13.1103 19.9379 12.962 19.7236L16.2403 19.0911C16.2364 19.128 16.231 19.1649 16.2241 19.2016C16.1382 19.5143 15.9665 19.7968 15.7282 20.0171C15.4862 20.2409 15.1854 20.3912 14.861 20.4504L14.9231 20.7901L14.8487 20.4528L14.8468 20.4532ZM1.8953 6.87183C2.30835 5.53855 3.0071 4.31309 3.94108 3.28002L4.98069 3.89237C4.18373 4.77605 3.57493 5.81571 3.19451 6.94813C2.79604 8.13428 2.65876 9.39056 2.78968 10.6312L1.53694 10.8729C1.3727 9.53077 1.49404 8.16705 1.8953 6.87183Z" stroke="black" stroke-opacity="0.2"/>
</svg>
