<svg width="33" height="33" viewBox="0 0 33 33" fill="none" xmlns="http://www.w3.org/2000/svg">
<path d="M20.766 12.2918V18.9778H18.902V26.9228H13.816V18.9848H11.95V12.2918C11.9482 12.1539 11.9738 12.0171 12.0253 11.8892C12.0768 11.7613 12.1532 11.6449 12.25 11.5468C12.3476 11.4467 12.4647 11.3677 12.594 11.3147C12.7234 11.2617 12.8622 11.2359 13.002 11.2388H19.721C19.9984 11.2444 20.2627 11.3576 20.4582 11.5545C20.6537 11.7513 20.7652 12.0164 20.769 12.2938L20.766 12.2918ZM14.073 8.09176C14.0264 7.78083 14.0528 7.46331 14.1501 7.16435C14.2475 6.86538 14.413 6.59317 14.6338 6.36926C14.8545 6.14534 15.1243 5.97587 15.4218 5.87425C15.7193 5.77263 16.0364 5.74165 16.348 5.78376C16.6596 5.74165 16.9767 5.77263 17.2742 5.87425C17.5717 5.97587 17.8415 6.14534 18.0623 6.36926C18.283 6.59317 18.4485 6.86538 18.5459 7.16435C18.6432 7.46331 18.6696 7.78083 18.623 8.09176C18.6671 8.40079 18.6387 8.71585 18.5399 9.01198C18.4412 9.30812 18.2749 9.5772 18.0542 9.79793C17.8334 10.0187 17.5644 10.185 17.2682 10.2837C16.9721 10.3824 16.657 10.4109 16.348 10.3668C16.039 10.4109 15.7239 10.3824 15.4278 10.2837C15.1316 10.185 14.8626 10.0187 14.6418 9.79793C14.4211 9.5772 14.2548 9.30812 14.1561 9.01198C14.0573 8.71585 14.0289 8.40079 14.073 8.09176ZM16.328 0.00176206C18.4852 -0.0301185 20.6269 0.370898 22.6265 1.1811C24.626 1.9913 26.4428 3.19423 27.9694 4.71875C29.4959 6.24327 30.7013 8.05843 31.5142 10.0569C32.3271 12.0553 32.731 14.1965 32.702 16.3538C32.7359 18.5224 32.3381 20.6761 31.5316 22.6895C30.7252 24.7029 29.5263 26.5358 28.0047 28.0813C26.4831 29.6269 24.6692 30.8544 22.6687 31.6922C20.6681 32.53 18.5209 32.9615 16.352 32.9615C14.1831 32.9615 12.0359 32.53 10.0353 31.6922C8.0348 30.8544 6.22092 29.6269 4.69932 28.0813C3.17772 26.5358 1.9788 24.7029 1.17236 22.6895C0.36592 20.6761 -0.031921 18.5224 0.00200015 16.3538C-0.0116466 14.2048 0.40113 12.0744 1.21643 10.086C2.03173 8.09765 3.23337 6.29075 4.75176 4.76995C6.27015 3.24914 8.07513 2.04463 10.0622 1.22617C12.0493 0.407701 14.179 -0.00846503 16.328 0.00176206ZM16.381 2.94876C12.8259 2.95718 9.41836 4.37133 6.90197 6.88267C4.38558 9.394 2.96457 12.7987 2.949 16.3538C2.98258 19.9002 4.41041 23.291 6.92385 25.7932C9.43728 28.2954 12.8344 29.7081 16.381 29.7258C19.9118 29.6952 23.2876 28.2712 25.7736 25.7637C28.2595 23.2562 29.6543 19.8682 29.6543 16.3373C29.6543 12.8063 28.2595 9.41832 25.7736 6.91081C23.2876 4.40329 19.9118 2.97928 16.381 2.94876Z" fill="#0D47A1"/>
</svg>
