<svg width="24" height="41" viewBox="0 0 24 41" fill="none" xmlns="http://www.w3.org/2000/svg">
<path d="M23.03 25.328H21.985V1.50299C21.985 1.17041 21.8529 0.851452 21.6177 0.616281C21.3825 0.38111 21.0636 0.248993 20.731 0.248993L3.176 0.248993C2.84342 0.248993 2.52446 0.38111 2.28929 0.616281C2.05412 0.851452 1.922 1.17041 1.922 1.50299V25.328H0.877C0.710709 25.328 0.551229 25.3941 0.433644 25.5116C0.316059 25.6292 0.25 25.7887 0.25 25.955L0.25 27H23.657V25.955C23.657 25.7887 23.5909 25.6292 23.4734 25.5116C23.3558 25.3941 23.1963 25.328 23.03 25.328ZM6.938 4.21999C6.938 4.0537 7.00406 3.89422 7.12164 3.77664C7.23923 3.65905 7.39871 3.59299 7.565 3.59299H9.65C9.81629 3.59299 9.97577 3.65905 10.0934 3.77664C10.2109 3.89422 10.277 4.0537 10.277 4.21999V6.30999C10.277 6.47628 10.2109 6.63576 10.0934 6.75335C9.97577 6.87093 9.81629 6.93699 9.65 6.93699H7.565C7.39871 6.93699 7.23923 6.87093 7.12164 6.75335C7.00406 6.63576 6.938 6.47628 6.938 6.30999V4.21999ZM6.938 9.23599C6.938 9.15365 6.95422 9.07212 6.98573 8.99605C7.01724 8.91998 7.06342 8.85086 7.12164 8.79264C7.17987 8.73441 7.24899 8.68823 7.32506 8.65672C7.40113 8.62521 7.48266 8.60899 7.565 8.60899H9.65C9.73234 8.60899 9.81387 8.62521 9.88994 8.65672C9.96601 8.68823 10.0351 8.73441 10.0934 8.79264C10.1516 8.85086 10.1978 8.91998 10.2293 8.99605C10.2608 9.07212 10.277 9.15365 10.277 9.23599V11.326C10.2759 11.4916 10.2094 11.65 10.0919 11.7668C9.97448 11.8835 9.8156 11.949 9.65 11.949H7.565C7.39871 11.949 7.23923 11.8829 7.12164 11.7653C7.00406 11.6478 6.938 11.4883 6.938 11.322V9.23599ZM9.65 16.968H7.565C7.39871 16.968 7.23923 16.9019 7.12164 16.7843C7.00406 16.6668 6.938 16.5073 6.938 16.341V14.249C6.938 14.0827 7.00406 13.9232 7.12164 13.8056C7.23923 13.6881 7.39871 13.622 7.565 13.622H9.65C9.81629 13.622 9.97577 13.6881 10.0934 13.8056C10.2109 13.9232 10.277 14.0827 10.277 14.249V16.339C10.2773 16.4215 10.2612 16.5032 10.2298 16.5795C10.1985 16.6559 10.1523 16.7252 10.0941 16.7836C10.0358 16.8421 9.96661 16.8884 9.89041 16.9201C9.8142 16.9517 9.73251 16.968 9.65 16.968ZM13.621 25.328H10.281V20.939C10.281 20.7727 10.3471 20.6132 10.4646 20.4956C10.5822 20.3781 10.7417 20.312 10.908 20.312H12.998C13.1643 20.312 13.3238 20.3781 13.4414 20.4956C13.5589 20.6132 13.625 20.7727 13.625 20.939L13.621 25.328ZM16.965 16.341C16.965 16.5073 16.8989 16.6668 16.7814 16.7843C16.6638 16.9019 16.5043 16.968 16.338 16.968H14.25C14.0837 16.968 13.9242 16.9019 13.8066 16.7843C13.6891 16.6668 13.623 16.5073 13.623 16.341V14.249C13.6235 14.083 13.6898 13.9241 13.8073 13.8069C13.9249 13.6898 14.0841 13.624 14.25 13.624H16.34C16.5063 13.624 16.6658 13.6901 16.7834 13.8076C16.9009 13.9252 16.967 14.0847 16.967 14.251L16.965 16.341ZM16.965 11.325C16.965 11.4913 16.8989 11.6508 16.7814 11.7683C16.6638 11.8859 16.5043 11.952 16.338 11.952H14.25C14.0837 11.952 13.9242 11.8859 13.8066 11.7683C13.6891 11.6508 13.623 11.4913 13.623 11.325V9.23599C13.623 9.15365 13.6392 9.07212 13.6707 8.99605C13.7022 8.91998 13.7484 8.85086 13.8066 8.79264C13.8649 8.73441 13.934 8.68823 14.0101 8.65672C14.0861 8.62521 14.1677 8.60899 14.25 8.60899H16.34C16.5063 8.60899 16.6658 8.67505 16.7834 8.79264C16.9009 8.91022 16.967 9.0697 16.967 9.23599L16.965 11.325ZM16.965 6.30899C16.965 6.47528 16.8989 6.63476 16.7814 6.75235C16.6638 6.86993 16.5043 6.93599 16.338 6.93599H14.25C14.0837 6.93599 13.9242 6.86993 13.8066 6.75235C13.6891 6.63476 13.623 6.47528 13.623 6.30899V4.21999C13.623 4.0537 13.6891 3.89422 13.8066 3.77664C13.9242 3.65905 14.0837 3.59299 14.25 3.59299H16.34C16.5063 3.59299 16.6658 3.65905 16.7834 3.77664C16.9009 3.89422 16.967 4.0537 16.967 4.21999L16.965 6.30899Z" fill="#0D47A1"/>
<path d="M12.241 33.883C10.841 33.518 10.387 33.141 10.387 32.554C10.387 31.88 11.011 31.411 12.056 31.411C13.156 31.411 13.564 31.936 13.601 32.711H14.967C14.9529 32.1515 14.7488 31.6134 14.3882 31.1854C14.0276 30.7574 13.532 30.4649 12.983 30.356V29H11.128V30.335C10.5624 30.3923 10.0351 30.6476 9.63937 31.0558C9.24361 31.464 9.00477 31.9988 8.965 32.566C8.965 33.994 10.145 34.704 11.865 35.119C13.41 35.49 13.719 36.034 13.719 36.608C13.719 37.034 13.419 37.714 12.05 37.714C10.777 37.714 10.276 37.145 10.208 36.414H8.854C8.9011 37.0106 9.15339 37.5724 9.56797 38.0039C9.98255 38.4355 10.5338 38.71 11.128 38.781V40.122H12.982V38.8C14.187 38.571 15.145 37.873 15.145 36.606C15.146 34.847 13.644 34.247 12.241 33.883Z" fill="#0D47A1"/>
</svg>
