<svg width="22" height="22" viewBox="0 0 22 22" fill="none" xmlns="http://www.w3.org/2000/svg">
<path d="M9.558 15.021H12.289V17.752H9.558V15.021ZM15.021 5.462C15.3833 5.462 15.7307 5.60592 15.9869 5.86209C16.2431 6.11827 16.387 6.46571 16.387 6.828V10.928L12.287 13.659H9.558V12.29L13.658 9.559V8.193H6.829V5.462H15.022H15.021ZM10.921 2.048C8.86748 2.04787 6.87745 2.75978 5.28998 4.06242C3.70251 5.36506 2.61583 7.17783 2.21509 9.19187C1.81435 11.2059 2.12435 13.2966 3.09227 15.1077C4.06019 16.9188 5.62614 18.3382 7.5233 19.1242C9.42046 19.9101 11.5314 20.0139 13.4966 19.4179C15.4617 18.8219 17.1594 17.563 18.3003 15.8556C19.4413 14.1482 19.9549 12.0981 19.7537 10.0544C19.5526 8.01078 18.649 6.10012 17.197 4.648C16.3748 3.82119 15.3967 3.16567 14.3194 2.71938C13.2421 2.27309 12.0871 2.0449 10.921 2.048ZM10.921 4.12128e-07C13.0817 -0.000592967 15.194 0.639584 16.9909 1.83957C18.7877 3.03955 20.1883 4.74544 21.0156 6.74149C21.8429 8.73754 22.0596 10.9341 21.6385 13.0533C21.2173 15.1726 20.1771 17.1193 18.6495 18.6474C17.1219 20.1754 15.1754 21.2161 13.0563 21.6379C10.9371 22.0596 8.74053 21.8435 6.74426 21.0167C4.74798 20.19 3.04171 18.7899 1.84123 16.9934C0.640757 15.1969 8.14783e-08 13.0847 0 10.924C0 8.02678 1.15092 5.24821 3.19957 3.19957C5.24821 1.15092 8.02678 4.12128e-07 10.924 4.12128e-07H10.921Z" fill="black"/>
<path d="M4.97281 3.67589C6.64953 2.30002 8.7514 1.54802 10.9203 1.548C10.9206 1.548 10.9208 1.548 10.921 1.548L10.921 2.048L4.97281 3.67589ZM4.97281 3.67589C3.29592 5.05191 2.14802 6.96681 1.7247 9.0943M4.97281 3.67589L1.7247 9.0943M1.7247 9.0943C1.30139 11.2218 1.62885 13.4302 2.6513 15.3434M1.7247 9.0943L2.6513 15.3434M2.6513 15.3434C3.67374 17.2565 5.32791 18.7559 7.33193 19.5861M2.6513 15.3434L7.33193 19.5861M7.33193 19.5861C9.33596 20.4163 11.5659 20.526 13.6417 19.8964M7.33193 19.5861L13.6417 19.8964M13.6417 19.8964C15.7175 19.2668 17.5108 17.937 18.716 16.1334M13.6417 19.8964L18.716 16.1334M18.716 16.1334C19.9213 14.3299 20.4639 12.1642 20.2513 10.0054M18.716 16.1334L20.2513 10.0054M20.2513 10.0054C20.0388 7.84697 19.0846 5.82894 17.5512 4.2951L20.2513 10.0054ZM13.658 7.693H7.329V5.962H15.021C15.2507 5.962 15.4709 6.05324 15.6334 6.21565C15.7958 6.37805 15.887 6.59832 15.887 6.828V10.6603L12.1357 13.159H10.058V12.5577L13.9352 9.97514L14.158 9.82672V9.559V8.193V7.693H13.658ZM10.924 0.5C12.9848 0.5 14.9994 1.11084 16.7132 2.25537C18.4278 3.40043 19.7643 5.02824 20.5537 6.93292C21.3431 8.83761 21.5499 10.9336 21.1481 12.9559C20.7462 14.9781 19.7536 16.8358 18.2959 18.2939C16.8382 19.752 14.9808 20.7451 12.9587 21.1475C10.9365 21.5499 8.84047 21.3437 6.93557 20.5548C5.03066 19.7659 3.40249 18.4298 2.25696 16.7156C1.11143 15.0013 0.5 12.9858 0.5 10.924C0.5 8.15938 1.59824 5.508 3.55312 3.55312C5.508 1.59824 8.15938 0.5 10.924 0.5ZM11.789 15.521V17.252H10.058V15.521H11.789Z" stroke="black" stroke-opacity="0.2"/>
</svg>
