<svg width="26" height="16" viewBox="0 0 26 16" fill="none" xmlns="http://www.w3.org/2000/svg">
<path d="M17.883 1.24112e-06H14.483C14.1669 6.26952e-05 13.8622 0.118506 13.629 0.332001L9.74605 3.891C9.74605 3.891 9.73804 3.903 9.73405 3.907C9.43096 4.19047 9.25217 4.58222 9.23663 4.99691C9.22108 5.4116 9.37004 5.81564 9.65104 6.121C9.94103 6.41185 10.3291 6.58401 10.7393 6.6038C11.1496 6.62359 11.5524 6.48958 11.869 6.228C11.869 6.228 11.881 6.228 11.885 6.22L15.044 3.326C15.1053 3.26993 15.177 3.22647 15.2551 3.19811C15.3331 3.16974 15.416 3.15703 15.499 3.1607C15.5819 3.16437 15.6634 3.18434 15.7386 3.21948C15.8139 3.25462 15.8815 3.30424 15.9375 3.3655C15.9936 3.42676 16.0371 3.49847 16.0654 3.57653C16.0938 3.65458 16.1065 3.73746 16.1028 3.82043C16.0992 3.9034 16.0792 3.98484 16.0441 4.06009C16.0089 4.13534 15.9593 4.20293 15.898 4.259L14.866 5.2L20.623 9.873C20.7345 9.96494 20.8388 10.0652 20.935 10.173V2.53L18.777 0.372001C18.6601 0.253924 18.5208 0.160242 18.3673 0.0963853C18.2139 0.0325286 18.0493 -0.000232418 17.883 1.24112e-06ZM22.205 2.538V11.391C22.2049 11.5572 22.2375 11.7217 22.3011 11.8753C22.3646 12.0288 22.4578 12.1683 22.5753 12.2858C22.6928 12.4033 22.8323 12.4965 22.9858 12.56C23.1393 12.6235 23.3039 12.6561 23.47 12.656H25.996V2.538H22.205ZM24.105 11.391C23.9798 11.391 23.8575 11.3539 23.7534 11.2843C23.6493 11.2148 23.5681 11.1159 23.5202 11.0002C23.4723 10.8846 23.4598 10.7573 23.4842 10.6345C23.5086 10.5117 23.5689 10.3989 23.6574 10.3104C23.746 10.2219 23.8588 10.1616 23.9816 10.1372C24.1043 10.1127 24.2316 10.1253 24.3473 10.1732C24.4629 10.2211 24.5618 10.3022 24.6314 10.4063C24.7009 10.5104 24.738 10.6328 24.738 10.758C24.7379 10.8413 24.7214 10.9237 24.6894 11.0005C24.6574 11.0774 24.6106 11.1472 24.5516 11.206C24.4927 11.2648 24.4227 11.3114 24.3457 11.3431C24.2688 11.3749 24.1863 11.3911 24.103 11.391H24.105ZM0.696045 12.652H3.22604C3.39262 12.6528 3.55772 12.6206 3.71183 12.5574C3.86595 12.4942 4.00604 12.4011 4.12406 12.2836C4.24209 12.166 4.33571 12.0263 4.39955 11.8724C4.46338 11.7185 4.49618 11.5536 4.49604 11.387V2.538H0.696045V12.652ZM2.59604 10.126C2.72124 10.126 2.84362 10.1631 2.94772 10.2327C3.05182 10.3022 3.13295 10.4011 3.18086 10.5168C3.22877 10.6324 3.24131 10.7597 3.21688 10.8825C3.19246 11.0053 3.13217 11.1181 3.04364 11.2066C2.95512 11.2951 2.84233 11.3554 2.71954 11.3798C2.59675 11.4043 2.46947 11.3917 2.35381 11.3438C2.23814 11.2959 2.13928 11.2148 2.06972 11.1107C2.00017 11.0066 1.96304 10.8842 1.96304 10.759C1.96331 10.5912 2.03009 10.4303 2.14874 10.3117C2.26739 10.193 2.42824 10.1263 2.59604 10.126ZM19.831 10.861L13.931 6.069L12.745 7.156C12.1888 7.66641 11.4525 7.93493 10.6982 7.90249C9.94394 7.87004 9.23345 7.53929 8.72305 6.983C8.21264 6.42671 7.94412 5.69044 7.97656 4.93617C8.00901 4.1819 8.33975 3.47141 8.89604 2.961L12.126 1.24112e-06H8.81304C8.64688 0.000152197 8.48239 0.0330886 8.32898 0.0969232C8.17557 0.160758 8.03626 0.254236 7.91904 0.372001L5.75704 2.53V11.383H6.48104L10.059 14.621C10.5797 15.0438 11.247 15.2426 11.9142 15.1736C12.5814 15.1046 13.1939 14.7735 13.617 14.253L13.625 14.245L14.333 14.858C14.4828 14.9799 14.6552 15.071 14.8402 15.1262C15.0252 15.1814 15.2193 15.1996 15.4114 15.1798C15.6035 15.1599 15.7898 15.1023 15.9596 15.0104C16.1294 14.9185 16.2794 14.794 16.401 14.644L17.642 13.118L17.856 13.292C17.985 13.3968 18.1333 13.4752 18.2926 13.5226C18.4518 13.57 18.6189 13.5855 18.7841 13.5682C18.9494 13.5509 19.1096 13.5012 19.2556 13.4219C19.4017 13.3426 19.5306 13.2352 19.635 13.106L20.011 12.643C20.2232 12.3824 20.3232 12.0482 20.289 11.7138C20.2549 11.3795 20.0895 11.0724 19.829 10.86L19.831 10.861Z" fill="black"/>
<path d="M25.238 10.758V10.7588C25.2378 10.9077 25.2082 11.0551 25.151 11.1926C25.0938 11.3301 25.0101 11.455 24.9046 11.5601C24.7992 11.6653 24.674 11.7486 24.5364 11.8054C24.3995 11.8618 24.253 11.8909 24.105 11.891L25.238 10.758ZM25.238 10.758C25.238 10.5339 25.1716 10.3149 25.0471 10.1285C24.9226 9.94222 24.7457 9.797 24.5386 9.71125C24.3316 9.62549 24.1038 9.60305 23.884 9.64677C23.6642 9.69049 23.4623 9.79839 23.3039 9.95685C23.1454 10.1153 23.0375 10.3172 22.9938 10.537C22.9501 10.7567 22.9725 10.9846 23.0583 11.1916C23.144 11.3986 23.2893 11.5756 23.4756 11.7001C23.6611 11.824 23.8791 11.8905 24.1023 11.891L25.238 10.758ZM17.883 0.500002L17.8837 0.500001C17.9838 0.49986 18.0829 0.519579 18.1752 0.558015C18.2676 0.596451 18.3514 0.65284 18.4219 0.723915L18.4235 0.725555L20.435 2.73711V9.07642L15.6323 5.17798L16.2349 4.62847L16.2356 4.62783C16.3453 4.52742 16.4342 4.40639 16.4971 4.27164C16.56 4.1369 16.5958 3.99108 16.6024 3.84251C16.6089 3.69395 16.5862 3.54554 16.5354 3.40577C16.4846 3.266 16.4068 3.13761 16.3064 3.02791C16.206 2.91821 16.0849 2.82937 15.9502 2.76644C15.8154 2.70352 15.6696 2.66776 15.5211 2.66119C15.3725 2.65462 15.2241 2.67738 15.0843 2.72817C14.9445 2.77895 14.8161 2.85677 14.7065 2.95718L14.7063 2.95732L11.6147 5.78955L11.5506 5.84253C11.33 6.02479 11.0493 6.11817 10.7634 6.10438C10.4809 6.09075 10.2135 5.97343 10.0123 5.77507C9.82491 5.56767 9.7258 5.2952 9.73628 5.01564C9.74688 4.73276 9.86884 4.46554 10.0756 4.27217L10.0817 4.26646L10.0876 4.26054C10.0981 4.25006 10.1072 4.23999 10.1145 4.23156L13.9667 0.700776C13.9667 0.700735 13.9668 0.700695 13.9668 0.700654C13.9668 0.700635 13.9669 0.700617 13.9669 0.700598C14.1079 0.571622 14.292 0.500063 14.483 0.500001C14.4831 0.500001 14.4831 0.500001 14.4831 0.500001L17.883 0.500002ZM22.705 11.3914V11.391V3.038H25.496V12.156H23.47H23.4696C23.3692 12.1561 23.2698 12.1364 23.177 12.098C23.0842 12.0596 22.9998 12.0032 22.9288 11.9322C22.8578 11.8612 22.8015 11.7769 22.7631 11.6841C22.7247 11.5913 22.705 11.4918 22.705 11.3914ZM1.19604 12.152V3.038H3.99604L3.99604 11.387L3.99605 11.3874C3.99613 11.4881 3.9763 11.5878 3.93772 11.6808C3.89913 11.7738 3.84255 11.8583 3.77121 11.9293C3.69987 12.0004 3.61519 12.0566 3.52204 12.0948C3.42889 12.1331 3.3291 12.1525 3.22842 12.152H3.22604H1.19604ZM2.59604 9.626L2.59526 9.626C2.29512 9.62647 2.00741 9.74591 1.79518 9.95814C1.58296 10.1704 1.46352 10.4581 1.46304 10.7582V10.759C1.46304 10.9831 1.52949 11.2021 1.65399 11.3885C1.77849 11.5748 1.95544 11.72 2.16246 11.8058C2.36949 11.8915 2.5973 11.9139 2.81708 11.8702C3.03686 11.8265 3.23874 11.7186 3.3972 11.5602C3.55565 11.4017 3.66356 11.1998 3.70727 10.98C3.75099 10.7603 3.72855 10.5324 3.6428 10.3254C3.55705 10.1184 3.41183 9.94144 3.22551 9.81695C3.03918 9.69245 2.82013 9.626 2.59604 9.626ZM19.5133 11.2471L19.513 11.2475C19.6707 11.3761 19.771 11.5621 19.7916 11.7646C19.8123 11.9671 19.7517 12.1695 19.6232 12.3274L19.6229 12.3278L19.2469 12.7908L19.2462 12.7917C19.1831 12.8698 19.1052 12.9346 19.017 12.9825C18.9288 13.0304 18.832 13.0605 18.7322 13.0709C18.6323 13.0813 18.5314 13.072 18.4352 13.0433C18.339 13.0147 18.2494 12.9674 18.1715 12.9041L17.9575 12.7301L17.5696 12.4147L17.2541 12.8025L16.0131 14.3285L16.0127 14.329C15.9325 14.4279 15.8335 14.5101 15.7215 14.5707C15.6095 14.6313 15.4866 14.6693 15.3599 14.6824C15.2332 14.6955 15.1052 14.6835 14.9832 14.6471C14.8633 14.6113 14.7515 14.5527 14.6539 14.4745L13.9523 13.867L13.6006 13.5624L13.2715 13.8914L13.2635 13.8994L13.2453 13.9176L13.2291 13.9376C12.8896 14.3552 12.3981 14.6209 11.8628 14.6763C11.3316 14.7312 10.8004 14.5746 10.3841 14.2408L6.81655 11.0123L6.6737 10.883H6.48104H6.25704V2.73738L8.27227 0.725884L8.27342 0.724733C8.34423 0.653588 8.42839 0.597117 8.52107 0.558553C8.61367 0.520018 8.71297 0.500122 8.81327 0.500001H10.8407L8.55817 2.59243L8.55801 2.59258C7.90401 3.19264 7.51517 4.02793 7.47702 4.91469C7.43888 5.80144 7.75456 6.66703 8.35463 7.32103C8.95469 7.97504 9.78997 8.36388 10.6767 8.40202C11.5634 8.44016 12.4289 8.12455 13.0829 7.5246C13.0829 7.52454 13.083 7.52448 13.0831 7.52442L13.9508 6.72916L19.5133 11.2471Z" stroke="black" stroke-opacity="0.2"/>
</svg>
