<svg width="19" height="22" viewBox="0 0 19 22" fill="none" xmlns="http://www.w3.org/2000/svg">
<path d="M9.225 0.325989L0 4.11899V9.80799C0.0611366 12.4582 1.00006 15.0131 2.66956 17.0723C4.33905 19.1314 6.64471 20.5783 9.225 21.186C11.8053 20.5783 14.1109 19.1314 15.7804 17.0723C17.4499 15.0131 18.3889 12.4582 18.45 9.80799V4.11899L9.225 0.325989ZM9.225 10.747H16.4C16.135 12.6966 15.3191 14.5301 14.0481 16.0321C12.7771 17.534 11.1039 18.6421 9.225 19.226V10.756H2.05V5.35599L9.225 2.40699V10.747Z" fill="black"/>
<path d="M2.05 11.256H8.725V19.226V19.905L9.37339 19.7035C11.3432 19.0913 13.0973 17.9297 14.4298 16.355C15.7622 14.7804 16.6176 12.8583 16.8954 10.8143L16.9726 10.247H16.4H9.725V2.40699V1.6609L9.03492 1.94453L1.85992 4.89353L1.55 5.02091V5.35599V10.756V11.256H2.05ZM0.5 9.80216V4.45402L9.225 0.866603L17.95 4.45402V9.80218C17.8902 12.3397 16.9906 14.7857 15.3921 16.7574C13.817 18.7 11.6512 20.0739 9.225 20.6717C6.79883 20.0739 4.63295 18.7 3.05794 16.7574C1.45936 14.7857 0.559798 12.3396 0.5 9.80216Z" stroke="black" stroke-opacity="0.2"/>
</svg>
