<svg width="26" height="25" viewBox="0 0 26 25" fill="none" xmlns="http://www.w3.org/2000/svg">
<path d="M24.656 0.998989L0.811026 10.814C0.715505 10.8511 0.633701 10.9167 0.576691 11.0019C0.51968 11.087 0.490217 11.1877 0.49229 11.2901C0.494363 11.3926 0.527873 11.4919 0.588282 11.5747C0.648691 11.6575 0.733081 11.7198 0.830026 11.753L7.28003 15.194C7.46739 15.2934 7.67972 15.336 7.89095 15.3165C8.10217 15.2969 8.30309 15.2161 8.46903 15.084L21.187 4.72799C21.271 4.66099 21.473 4.52799 21.551 4.60499C21.629 4.68199 21.506 4.86899 21.434 4.94899L10.434 16.649C10.286 16.8036 10.1954 17.0041 10.1772 17.2173C10.159 17.4306 10.2144 17.6436 10.334 17.821L14.55 24.207C14.5996 24.2948 14.672 24.3677 14.7594 24.4181C14.8468 24.4684 14.9462 24.4943 15.0471 24.4931C15.148 24.4918 15.2467 24.4635 15.3328 24.4111C15.419 24.3586 15.4896 24.284 15.537 24.195L25.397 1.67499C25.4398 1.57366 25.4501 1.46157 25.4265 1.35414C25.403 1.24671 25.3467 1.14923 25.2654 1.0751C25.1842 1.00098 25.082 0.95386 24.9728 0.940229C24.8637 0.926598 24.753 0.947127 24.656 0.998989Z" fill="#0D47A1"/>
</svg>
