<svg width="32" height="32" viewBox="0 0 32 32" fill="none" xmlns="http://www.w3.org/2000/svg">
<path d="M13.2727 29.4545C13.2727 29.7062 13.1607 29.9523 12.951 30.1616C12.7412 30.3709 12.443 30.534 12.0942 30.6303C11.7454 30.7267 11.3615 30.7519 10.9912 30.7028C10.6208 30.6537 10.2807 30.5324 10.0137 30.3544C9.7467 30.1765 9.56487 29.9497 9.49121 29.7028C9.41755 29.4559 9.45536 29.2 9.59985 28.9674C9.74435 28.7349 9.98904 28.5361 10.303 28.3963C10.6169 28.2564 10.986 28.1818 11.3636 28.1818C11.8699 28.1818 12.3555 28.3159 12.7136 28.5545C13.0716 28.7932 13.2727 29.1169 13.2727 29.4545Z" fill="#0D47A1" stroke="#0D47A1" stroke-linecap="round" stroke-linejoin="round"/>
<path d="M28.5454 29.4545C28.5454 29.7062 28.4708 29.9523 28.3309 30.1616C28.1911 30.3709 27.9923 30.534 27.7598 30.6303C27.5272 30.7267 27.2713 30.7519 27.0244 30.7028C26.7775 30.6537 26.5508 30.5324 26.3728 30.3544C26.1948 30.1765 26.0735 29.9497 26.0244 29.7028C25.9753 29.4559 26.0005 29.2 26.0969 28.9674C26.1932 28.7349 26.3563 28.5361 26.5656 28.3963C26.7749 28.2564 27.021 28.1818 27.2727 28.1818C27.6103 28.1818 27.934 28.3159 28.1727 28.5545C28.4113 28.7932 28.5454 29.1169 28.5454 29.4545Z" fill="#0D47A1" stroke="#0D47A1" stroke-linecap="round" stroke-linejoin="round"/>
<path d="M0.545456 1.45459H6.09917L9.82017 19.6321C9.94713 20.2571 10.2949 20.8185 10.8025 21.2181C11.3102 21.6177 11.9454 21.8299 12.597 21.8177H26.0926C26.7442 21.8299 27.3794 21.6177 27.887 21.2181C28.3947 20.8185 28.7425 20.2571 28.8694 19.6321L31.0909 8.2423H7.4876" fill="#0D47A1"/>
<path d="M0.545456 1.45459H6.09917L9.82017 19.6321C9.94713 20.2571 10.2949 20.8185 10.8025 21.2181C11.3102 21.6177 11.9454 21.8299 12.597 21.8177H26.0926C26.7442 21.8299 27.3794 21.6177 27.887 21.2181C28.3947 20.8185 28.7425 20.2571 28.8694 19.6321L31.0909 8.2423H7.4876" stroke="#0D47A1" stroke-linecap="round" stroke-linejoin="round"/>
</svg>
