<svg width="48" height="36" viewBox="0 0 48 36" fill="none" xmlns="http://www.w3.org/2000/svg">
<g clip-path="url(#clip0_245_1234)" filter="url(#filter0_d_245_1234)">
<path d="M13.0404 7.04547H34.9596V20.4091H13.0404V7.04547ZM40.4394 13.7273C40.4394 14.6133 40.7858 15.4631 41.4024 16.0897C42.019 16.7162 42.8553 17.0682 43.7273 17.0682V23.75C43.7273 24.6361 43.3809 25.4858 42.7643 26.1124C42.1477 26.7389 41.3114 27.0909 40.4394 27.0909H7.56061C6.68861 27.0909 5.85233 26.7389 5.23573 26.1124C4.61914 25.4858 4.27274 24.6361 4.27274 23.75V17.0682C5.14474 17.0682 5.98102 16.7162 6.59762 16.0897C7.21421 15.4631 7.56061 14.6133 7.56061 13.7273C7.56061 12.8412 7.21421 11.9914 6.59762 11.3649C5.98102 10.7384 5.14474 10.3864 4.27274 10.3864V3.70456C4.27274 2.81849 4.61914 1.96872 5.23573 1.34218C5.85233 0.715635 6.68861 0.363647 7.56061 0.363647H40.4394C41.3114 0.363647 42.1477 0.715635 42.7643 1.34218C43.3809 1.96872 43.7273 2.81849 43.7273 3.70456V10.3864C42.8553 10.3864 42.019 10.7384 41.4024 11.3649C40.7858 11.9914 40.4394 12.8412 40.4394 13.7273ZM37.1515 6.48914C37.1516 6.26976 37.1092 6.0525 37.0267 5.84977C36.9442 5.64705 36.8231 5.46284 36.6705 5.30766C36.5179 5.15249 36.3367 5.02939 36.1372 4.94541C35.9378 4.86142 35.724 4.81819 35.5081 4.81819H12.4929C12.2769 4.81806 12.063 4.86119 11.8635 4.94512C11.6639 5.02905 11.4826 5.15212 11.3298 5.30731C11.1771 5.4625 11.056 5.64676 10.9734 5.84954C10.8908 6.05233 10.8484 6.26967 10.8485 6.48914V20.9664C10.8485 21.1858 10.891 21.403 10.9737 21.6057C11.0563 21.8084 11.1775 21.9925 11.3302 22.1476C11.4829 22.3027 11.6642 22.4257 11.8637 22.5095C12.0632 22.5934 12.277 22.6365 12.4929 22.6364H35.5081C35.724 22.6365 35.9378 22.5934 36.1373 22.5095C36.3368 22.4257 36.5181 22.3027 36.6708 22.1476C36.8235 21.9925 36.9447 21.8084 37.0273 21.6057C37.11 21.403 37.1525 21.1858 37.1525 20.9664L37.1515 6.48914Z" fill="#0D47A1"/>
</g>
<defs>
<filter id="filter0_d_245_1234" x="0.272736" y="0.363647" width="47.4546" height="34.7273" filterUnits="userSpaceOnUse" color-interpolation-filters="sRGB">
<feFlood flood-opacity="0" result="BackgroundImageFix"/>
<feColorMatrix in="SourceAlpha" type="matrix" values="0 0 0 0 0 0 0 0 0 0 0 0 0 0 0 0 0 0 127 0" result="hardAlpha"/>
<feOffset dy="4"/>
<feGaussianBlur stdDeviation="2"/>
<feComposite in2="hardAlpha" operator="out"/>
<feColorMatrix type="matrix" values="0 0 0 0 0 0 0 0 0 0 0 0 0 0 0 0 0 0 0.25 0"/>
<feBlend mode="normal" in2="BackgroundImageFix" result="effect1_dropShadow_245_1234"/>
<feBlend mode="normal" in="SourceGraphic" in2="effect1_dropShadow_245_1234" result="shape"/>
</filter>
<clipPath id="clip0_245_1234">
<rect width="39.4545" height="26.7273" fill="white" transform="translate(4.27274 0.363647)"/>
</clipPath>
</defs>
</svg>
